<svg id="katman_1" data-name="katman 1" xmlns="http://www.w3.org/2000/svg" viewBox="0 0 425 425"><defs><style>.cls-1{fill:#2a4173;}.cls-2{fill:#2b4271;stroke:#2b4271;stroke-miterlimit:10;}.cls-3{font-size:80px;fill:#fff;font-family:MyriadPro-Regular, Myriad Pro;}</style></defs><path class="cls-1" d="M212.5,419.71C97.69,419.71,4.29,326.31,4.29,211.5S97.69,3.29,212.5,3.29,420.71,96.69,420.71,211.5,327.31,419.71,212.5,419.71Zm0-402.63C105.3,17.08,18.08,104.3,18.08,211.5S105.3,405.92,212.5,405.92,406.92,318.71,406.92,211.5,319.7,17.08,212.5,17.08Z"/><path class="cls-2" d="M212.25,110.25c3.51.55,7.06.94,10.52,1.66,18.68,3.88,29.9,15.47,34,33.86,3.55,15.86,4.56,31.91.83,47.85-4.08,17.45-12.85,32-28.81,41-16.78,9.51-33.57,8.5-49.36-2.35-14-9.55-22.05-23.38-25.21-39.73-3.86-19.27-3.06-38.48,4.38-56.9,4.85-12.07,14.3-19.46,26.8-22.77,4.67-1.24,9.52-1.79,14.3-2.67Z"/><path class="cls-2" d="M209.94,377.63c-24.55-.2-45-1.52-65-6.83-11.92-3.15-23.32-7.51-33.14-15.28-.95-.74-1.83-1.6-2.75-2.4a12.85,12.85,0,0,1-4.9-11.34c.82-14.22.62-28.52,3.11-42.69,2-11.28,5.42-21.93,13.53-30.51A56.38,56.38,0,0,1,141,255.47c11-4.51,22.52-7.07,34.15-9.18a3.36,3.36,0,0,1,2.43.81c6.67,6.19,14.68,9,23.62,9.8s17.91-.26,26-4.73c2.56-1.41,4.78-3.44,7.22-5.08a3.85,3.85,0,0,1,2.44-.8c11.89,2.19,23.67,4.78,34.87,9.5,10.75,4.52,19.93,11,25.75,21.41A61.24,61.24,0,0,1,305.05,302c1.24,14.28,1.85,28.62,2.55,42.93a8,8,0,0,1-1.81,4.88c-6.12,7.62-14.46,12.12-23.28,15.76-16.4,6.78-33.68,9.65-51.26,10.94C222.84,377.16,214.4,377.4,209.94,377.63Z"/><rect class="cls-2" x="249.13" y="53.31" width="70.49" height="70.49" rx="12"/><text class="cls-3" transform="translate(268.28 114.9)">?</text></svg>