<svg id="katman_1" data-name="katman 1" xmlns="http://www.w3.org/2000/svg" viewBox="0 0 425 425"><defs><style>.cls-1{fill:#2a4173;}.cls-2,.cls-3,.cls-4,.cls-5{fill:none;stroke:#2a4173;stroke-miterlimit:10;}.cls-2{stroke-width:9px;}.cls-3{stroke-width:8px;}.cls-4{stroke-width:7px;}.cls-5{stroke-width:6px;}</style></defs><path class="cls-1" d="M212.5,419.71C97.69,419.71,4.29,326.31,4.29,211.5S97.69,3.29,212.5,3.29,420.71,96.69,420.71,211.5,327.31,419.71,212.5,419.71Zm0-402.63C105.3,17.08,18.08,104.3,18.08,211.5S105.3,405.92,212.5,405.92,406.92,318.71,406.92,211.5,319.7,17.08,212.5,17.08Z"/><polygon class="cls-2" points="119.18 84.55 151.63 84.55 312.18 84.55 312.18 93.55 318.18 93.55 318.18 342.55 310.18 342.55 310.18 347.55 119.18 347.55 119.18 84.55"/><line class="cls-3" x1="150.71" y1="347.55" x2="150.71" y2="84.55"/><line class="cls-4" x1="185.36" y1="171.18" x2="282.9" y2="171.18"/><rect class="cls-5" x="209.06" y="204.91" width="55.61" height="11.14"/></svg>