<svg id="katman_1" data-name="katman 1" xmlns="http://www.w3.org/2000/svg" viewBox="0 0 425 425"><defs><style>.cls-1,.cls-2{fill:#2a4173;}.cls-2,.cls-3,.cls-4{stroke:#2a4173;stroke-miterlimit:10;}.cls-2{stroke-width:5px;}.cls-3,.cls-4{fill:none;}.cls-3{stroke-width:7px;}.cls-4{stroke-width:9px;}.cls-5{fill:#fff;}</style></defs><path class="cls-1" d="M212.5,419.71C97.69,419.71,4.29,326.31,4.29,211.5S97.69,3.29,212.5,3.29,420.71,96.69,420.71,211.5,327.31,419.71,212.5,419.71Zm0-402.63C105.3,17.08,18.08,104.3,18.08,211.5S105.3,405.92,212.5,405.92,406.92,318.71,406.92,211.5,319.7,17.08,212.5,17.08Z"/><rect class="cls-2" x="154.28" y="125.17" width="115.26" height="6.33"/><rect class="cls-2" x="154.28" y="169.44" width="115.26" height="6.33"/><line class="cls-3" x1="154.28" y1="150.47" x2="246.83" y2="150.47"/><polygon class="cls-4" points="118.27 80.15 150.92 80.15 312.52 80.15 312.52 89.21 318.56 89.21 318.56 339.82 310.51 339.82 310.51 344.85 118.27 344.85 118.27 80.15"/><circle class="cls-1" cx="246.83" cy="253.59" r="45.39"/><path class="cls-5" d="M260.92,239.94l-19.13,19.13-9-9a5,5,0,1,0-7.12,7.13l12.6,12.61a5,5,0,0,0,7.13,0l22.7-22.7a5,5,0,1,0-7.13-7.12Z"/></svg>