<svg id="katman_1" data-name="katman 1" xmlns="http://www.w3.org/2000/svg" viewBox="0 0 425 425"><defs><style>.cls-1,.cls-2{fill:#2a4173;}.cls-2{stroke:#2a4173;stroke-miterlimit:10;}</style></defs><path class="cls-1" d="M212.5,419.71C97.69,419.71,4.29,326.31,4.29,211.5S97.69,3.29,212.5,3.29,420.71,96.69,420.71,211.5,327.31,419.71,212.5,419.71Zm0-402.63C105.3,17.08,18.08,104.3,18.08,211.5S105.3,405.92,212.5,405.92,406.92,318.71,406.92,211.5,319.7,17.08,212.5,17.08Z"/><polygon class="cls-2" points="81.19 236.77 182.21 236.77 182.21 263.28 248.72 263.28 248.72 236.77 349.24 236.77 349.24 311.29 336.74 332.29 97.2 332.29 81.19 314.79 81.19 236.77"/><polygon class="cls-2" points="81.19 213.77 351.24 213.77 351.24 145.25 333.24 132.75 98.7 132.75 81.19 148.76 81.19 213.77"/><polygon class="cls-2" points="173.21 132.75 173.21 106.25 260.73 106.25 260.73 132.75 280.23 132.75 280.23 94.75 268.73 84.74 163.71 84.74 152.21 95.75 152.21 132.75 173.21 132.75"/></svg>