<svg id="katman_1" data-name="katman 1" xmlns="http://www.w3.org/2000/svg" viewBox="0 0 425 425"><defs><style>.cls-1{fill:#2a4173;}.cls-2{fill:#2b4271;stroke:#2b4271;stroke-miterlimit:10;}</style></defs><path class="cls-1" d="M212.5,419.71C97.69,419.71,4.29,326.31,4.29,211.5S97.69,3.29,212.5,3.29,420.71,96.69,420.71,211.5,327.31,419.71,212.5,419.71Zm0-402.63C105.3,17.08,18.08,104.3,18.08,211.5S105.3,405.92,212.5,405.92,406.92,318.71,406.92,211.5,319.7,17.08,212.5,17.08Z"/><path class="cls-2" d="M298.83,122.47l6.14,7c.37-.44.75-.87,1.09-1.32,4.89-6.39,16.57-8,23.16-1.12,5.15,5.4,7.25,11.77,5.24,19.19-.23.87-.49,1.73-.79,2.82a7.17,7.17,0,0,0,1.49.14c8.15-1.19,15.61.84,22.61,4.91a18.13,18.13,0,0,1,6.13,5.75c1.28,1.93,2.52,3.9,3.73,5.88a55.41,55.41,0,0,0,10.44,12.5,23.22,23.22,0,0,0,5.33,3.94c.86.42,1.85.93,1.79,2.41a3.09,3.09,0,0,1-3.7.69c-4-1.89-8.23-1.82-12.47-1.42a69.63,69.63,0,0,0-13.92,2.77c-2.89.9-5.86,1.54-8.79,2.3l-3.36.9c.25.66.43,1.21.66,1.74.87,1.94,1.88,3.82,2.59,5.8a33.57,33.57,0,0,1,1.62,6.13,15,15,0,0,1-3,11.68,25.76,25.76,0,0,0-2.37,3.84c-4.11,8.1-8.28,16.16-13.42,23.67a151.33,151.33,0,0,1-15,18.59,71.56,71.56,0,0,1-24.67,17.14c-11.44,4.82-23.37,6.83-35.66,7.28a86.94,86.94,0,0,1-19.26-1.54c-2.68-.5-5.37-.94-8.06-1.38-.88-.15-1.78-.21-2.8-.32-.3.57-.55,1.11-.86,1.6-2.45,3.76-5.72,5.91-10.41,5.27-3.89-.54-7.81-.94-11.69-1.61q-9.54-1.63-19-3.75a70.44,70.44,0,0,1-14.79-5.22c-1.37-.65-2.71-1.36-4.1-2a49.17,49.17,0,0,1-12.3-8.17c-1.56-1.35-2.89-2.83-3.11-5-.11-1.07-.86-1.49-1.71-1.92a144.65,144.65,0,0,1-15-8.53,122.54,122.54,0,0,1-22.37-19.36,69.45,69.45,0,0,1-7.61-10.17,157.23,157.23,0,0,1-15.5-31.43c-.63-1.81-1.24-3.63-1.85-5.45-4-11.61-4.58-23.51-2.93-35.56a53.1,53.1,0,0,1,2.84-11.76c1.26-3.29,2.51-6.6,3.72-9.92a21.86,21.86,0,0,0,.93-3.18,21.71,21.71,0,0,1,5.52-10.6,44.89,44.89,0,0,1,10.89-8.6,82.85,82.85,0,0,1,30-9.76,142.36,142.36,0,0,1,28.07-.81,188.61,188.61,0,0,1,21.35,2.36,183.58,183.58,0,0,1,20,4.73,113.56,113.56,0,0,1,17.11,6,5.32,5.32,0,0,0,1.73.52c7.89.77,15.42,3.07,22.94,5.41.19,0,.4.06.85.13,4.57-2.57,9.61-3.62,14.94-2a19,19,0,0,1,11.9,9.68l7.69-4.22-1.61-1.42c-6.46-5.65-9.51-12.65-8.28-21.27.43-3,1.08-6,1.66-8.93a52.73,52.73,0,0,0,.86-9.63,91.48,91.48,0,0,0-.78-15.69c-.26-1.6.2-2.59,1.15-2.75,1.24-.22,1.81.58,2.31,1.53.67,1.24,1.39,2.46,2.11,3.68a31.72,31.72,0,0,0,5.85,7.3c3,2.79,6.07,5.62,9.25,8.25a43.07,43.07,0,0,1,8.77,10,26.57,26.57,0,0,1,4.05,13.45c.28,6.41-2.11,11.82-5.83,16.8C299.86,121.14,299.32,121.84,298.83,122.47Zm35.91,100.05a5.78,5.78,0,0,0-1,.2,55.21,55.21,0,0,1-16,3.14,199.67,199.67,0,0,1-46.71-2.51c-7.87-1.29-15.75-2.47-23.6-3.8-5.67-1-11.33-2-16.95-3.19-6.51-1.39-13-2.91-19.46-4.5a220.06,220.06,0,0,1-25.28-7.35c-7.83-2.94-15.72-5.75-23.53-8.78-4.69-1.82-9.37-3.75-13.89-6a213.68,213.68,0,0,1-30-18.18A108.35,108.35,0,0,1,97.08,152,47,47,0,0,1,89,138.54a7.27,7.27,0,0,0-.79-1.19,13.91,13.91,0,0,0-.55,1.39A89.45,89.45,0,0,0,85,152.69,81.28,81.28,0,0,0,89.63,189a162.91,162.91,0,0,0,16.52,32.6,64.92,64.92,0,0,0,10.5,12.47c3,2.74,6,5.44,9.08,8a101.35,101.35,0,0,0,27.63,16c8.72,3.43,17.73,6.12,26.64,9.07a52.66,52.66,0,0,0,5.58,1.33c2.17.46,4.37.78,6.52,1.29,6.48,1.52,12.91,3.31,19.43,4.62,7.91,1.6,15.88,2.88,23.84,4.19,3,.5,6,.83,9,1,5.55.4,11.08-.17,16.61-.56,11.23-.78,21.76-4.07,31.86-8.9a41.08,41.08,0,0,0,8.72-5.43,109.24,109.24,0,0,0,8.32-7.46c9.88-10.22,17.64-22,24.85-34.18C334.78,223,334.74,222.89,334.74,222.52ZM242.21,119c-5.27-1.86-10.14-4.39-15.74-4.49a3.21,3.21,0,0,1-1.16-.3,50.59,50.59,0,0,0-9.68-2.41c-.47-.08-1.17-.26-1.3-.58-.5-1.27-1.61-1.42-2.66-1.71a216.91,216.91,0,0,0-29-6.21,180.66,180.66,0,0,0-38.33-1.22,95.69,95.69,0,0,0-22.56,4.16,71.2,71.2,0,0,0-16.45,7.6,37.14,37.14,0,0,0-8.26,7.05,13.69,13.69,0,0,0-3.5,10.61,20.83,20.83,0,0,0,2,7,41.44,41.44,0,0,0,5.8,8.83A99.81,99.81,0,0,0,117,162.42a197.85,197.85,0,0,0,20.6,13.81,158.19,158.19,0,0,0,25.8,12.58c4.54,1.68,9,3.47,13.56,5.22a196.61,196.61,0,0,0,25.59,8.36c8.74,2.06,17.48,4.15,26.27,6,7.5,1.57,15.06,2.93,22.62,4.15,8.47,1.36,17,2.49,25.46,3.68a203,203,0,0,0,34.4,2,82.79,82.79,0,0,0,13.24-1.27,29.31,29.31,0,0,0,9.64-3.46,19.74,19.74,0,0,0,2.93-2.13,7.62,7.62,0,0,0,2.59-7.07,16.24,16.24,0,0,0-.8-3.54c-.95-2.54-2.08-5-3.08-7.56a6.16,6.16,0,0,0-4.52-3.92,18.68,18.68,0,0,1-11.89-9.17,12.94,12.94,0,0,0-.88-1.27,10.92,10.92,0,0,0-2.7,2.58c3.31,3,4.49,7,5.23,11.09a10,10,0,0,1-.15,3.89c-.51,2.35-1.33,4.59-.88,7.11a3.37,3.37,0,0,1-1.59,3.39c-.53.34-1.47,0-1.39-.59a7.7,7.7,0,0,0-.88-4.37,4.83,4.83,0,0,1-.17-3.27,29.85,29.85,0,0,0,.73-2.93,11.87,11.87,0,0,0,.22-3.3,20.2,20.2,0,0,0-2.31-6.85,6.25,6.25,0,0,0-1.59-1.78,1.94,1.94,0,0,0-1.39-.35c-1.84.41-3.65.94-5.51,1.44,2.23,4,2.14,5.64-.27,6.58-.1-.16-.31-.34-.29-.47a4,4,0,0,0-1.29-3.83,5.7,5.7,0,0,1-1.48-2.93,8.88,8.88,0,0,0-4.13-5.38,10.72,10.72,0,0,0-4.53-1.57,30.22,30.22,0,0,0-8.44.24,16,16,0,0,1-14.35-4.75c-.79-.78-1.61-1.53-2.47-2.23a13,13,0,0,0-10.75-2.9c-1,.17-2,.3-3,.45a20.4,20.4,0,0,1-10.68-1.37,15.63,15.63,0,0,1-3.57-2.22c-.89-.67-1.05-1.61-.59-2.07.64-.63,1.32-.27,2,0,.86.29,1.7.66,2.56.95a8.39,8.39,0,0,0,1.36.17c-.27-1.16-.48-2.12-.71-3.08-1.11-4.53-.78-8.81,2.16-12.66a6,6,0,0,0,.57-1.32c-.71-.37-1.22-.69-1.77-.92a12.44,12.44,0,0,1-6.54-6.44,23.37,23.37,0,0,1-1.78-5.12,4.51,4.51,0,0,0-2.11-3.12c-.59-.38-1.19-.75-1.8-1.09-1.59-.88-3.18-1.74-4.76-2.63a95.58,95.58,0,0,0-11.87-6,19.25,19.25,0,0,0-13.31-.46c-1.63.53-3.27,1-4.88,1.62a7.79,7.79,0,0,1-8.21-1.46A14.6,14.6,0,0,0,180,117.48c-2.51.23-5,.6-7.5,1-2.31.34-4.22-.13-5.36-2.38-.74-1.48-2-1.8-3.54-1.73A23.32,23.32,0,0,0,153.1,117a10.91,10.91,0,0,1-7.6,1.22c-3.36-.65-6.75-1.23-10.09-2a15.2,15.2,0,0,0-10.29,1.25c-4.86,2.33-9.07,5.59-13.31,9a2.5,2.5,0,0,1,0,2.84c-2.11,4.13-3,8.34-.28,12.64a12.65,12.65,0,0,1,1.1,2.8.87.87,0,0,1-.36.73.84.84,0,0,1-.79,0c-.89-1.09-1.7-2.24-2.56-3.36a12.74,12.74,0,0,1-2.46-9.42c.29-2.87,1.24-5.29,4.23-6.5-.81-1.68.28-2.78,1.17-3.84a35.51,35.51,0,0,1,12-9.48,17.52,17.52,0,0,1,13.25-1c2.69.85,5.44,1.55,8.11,2.47a16,16,0,0,0,10.08.25,63.59,63.59,0,0,1,8-1.53,4.14,4.14,0,0,1,4.67,2c1,1.9,2.53,2.07,4.36,1.48a23.78,23.78,0,0,1,2.32-.7c2-.43,3.93-.93,5.92-1.17a14.89,14.89,0,0,1,11.81,3.56l1.38,1.18a5,5,0,0,0,4.81,1c1.65-.48,3.3-.92,4.94-1.42a22.68,22.68,0,0,1,15.14.45c3.67,1.43,7.3,2.93,10.93,4.45,2.69,1.13,5.34,2.34,8.13,3.57.57-1.33,1.1-2.84,1.84-4.24S241.23,120.57,242.21,119Zm97.92,51.57a34.4,34.4,0,0,0,1.53,9.2,19.54,19.54,0,0,1,.59,2c0,.13-.13.38-.27.48s-.44.18-.54.1a5.4,5.4,0,0,1-1.52-1.4,18.4,18.4,0,0,1-1.65-3.88c-.72-2.61-1.26-5.26-1.93-8.11-1.5-.56-3.23-1.12-4.88-1.84a49.2,49.2,0,0,1-5.13-2.58c-1.52-.89-2.92-2-4.65-3.2a48.73,48.73,0,0,1,.6,7.13,53.57,53.57,0,0,1-1.39,7.33,23,23,0,0,0,9.88,9,24.65,24.65,0,0,0,11.45,2.21A52.31,52.31,0,0,0,355.31,185,73.42,73.42,0,0,1,374,181.82a5.66,5.66,0,0,0,1.38-.53,40.06,40.06,0,0,0-7.33-4.2A63.5,63.5,0,0,0,355,173.36a5.74,5.74,0,0,0-1.34.18c1.13,1.46,2,2.71,3,3.82,2.21,2.46,2.24,2.43,2.28,3.54-2.42-.44-5-3-8.4-8.28-3-.68-6.18-1.39-9.32-2.08A4.55,4.55,0,0,0,340.13,170.61Zm-35.27,9.82c.91-.1,1.61-.14,2.3-.25a17.62,17.62,0,0,0,2.06-.48c4.58-1.34,9.37-5.89,7.9-12.82-.64-3-1.11-6.14-1.67-9.21-.09-.5-.26-1-.37-1.47a3.56,3.56,0,0,0-1.65-2.42c-1.9-1.15-3.74-2.39-5.7-3.42a10.26,10.26,0,0,0-3.16-.9c-3.29-.5-6.14.76-8.83,2.45-7.07,4.45-8.17,11.93-6.13,18,.75,2.25,1.92,3.76,4.66,3.94a12.92,12.92,0,0,1,9.27,5.12C303.92,179.39,304.33,179.83,304.86,180.43Zm-23.8-55.55c-.84.32-1.59.53-2.29.86a8.18,8.18,0,0,0-5.08,7.28,42.67,42.67,0,0,0-.16,4.52,17.51,17.51,0,0,0,2.43,8.33,7.21,7.21,0,0,0,2.64,2.84c4.57,2.54,9.17,2.86,13.72,0a24.73,24.73,0,0,1,7.09-3.28l2-.54a13.43,13.43,0,0,0-.37-9.81,18.43,18.43,0,0,0-6.27-8,15.23,15.23,0,0,0-10.22-3c-.13,0-.25.26-.46.49l1.24,1.5c.46-.17.74-.26,1-.38a11.72,11.72,0,0,1,1.1-.47c1.11-.32,1.59-.08,2.12,1.07a8.54,8.54,0,0,1,.3,1,17.21,17.21,0,0,1,2.19.48,1.18,1.18,0,0,1,.41,1.8,5,5,0,0,1-1.42,1.08c-.9.41-1.86.68-2.76,1a18.22,18.22,0,0,1-.62,2.13,1.79,1.79,0,0,1-2.53.85,6.23,6.23,0,0,1-1.58-1.36c-.45-.52-.68-1.26-1.19-1.7a6.78,6.78,0,0,0-1.81-.81c.23-.64.56-1.12.51-1.55-.09-.67-.63-1.31-.63-2A9.6,9.6,0,0,1,281.06,124.88Zm93.39,54.44a7.85,7.85,0,0,0-.76-1.07,84.42,84.42,0,0,1-13.62-15.73,13.64,13.64,0,0,0-4.41-4.07,32,32,0,0,0-13.9-4.7,19.15,19.15,0,0,0-8.63,1c-2.74,1-5.47,2.05-8.2,3.09a3.82,3.82,0,0,0-.77.66,30.38,30.38,0,0,0,8.17,5.39,34.45,34.45,0,0,1,14.4-3.65,17.32,17.32,0,0,1,3.27.36c.32,0,.81.2.75.73,0,.11-.06.27-.1.28a15.91,15.91,0,0,1-2,.38,35.51,35.51,0,0,0-11.7,2.75c-.44.19-1,.38-.79,1.2a57.93,57.93,0,0,0,15.14,5.53,78.34,78.34,0,0,1,16.23,4.7C369.7,177.12,371.87,178.14,374.45,179.32ZM251.72,143.15c1.12-.81,2.32-1.71,3.56-2.57a11.73,11.73,0,0,1,11.51-1.21l2.37.91a59.3,59.3,0,0,1-.09-7,59.69,59.69,0,0,1,1.49-6.89,39.08,39.08,0,0,0-5.41-4.12,18.42,18.42,0,0,0-6.73-2.58A13.67,13.67,0,0,0,244,126.8a8.1,8.1,0,0,0-.82,2.58,14.72,14.72,0,0,0,1.7,9.05c1.32,2.52,3.67,3.64,6.13,4.62A4.25,4.25,0,0,0,251.72,143.15Zm54.42,2.36c5.69,1.79,9.71,6,14,10.26a28,28,0,0,1,5.62-5.31c.31-.26.61-.53.93-.77a8.8,8.8,0,0,0,3.06-4.75c1.58-5.55.15-10.38-3.66-14.54a10,10,0,0,0-7.83-3.31,16.15,16.15,0,0,0-11.67,5.58,45.35,45.35,0,0,1,.7,6.44A44.84,44.84,0,0,1,306.14,145.51ZM275.25,93.76c-1.71,3.54-1.54,8.58.47,12.74l7.41,2.08c1.17.33,2.35.58,3.5,1a.83.83,0,0,1-.14,1.62,28,28,0,0,1-3.3-.15c-.9-.08-1.79-.29-2.7-.37a6.79,6.79,0,0,0-2.81-.22,8.59,8.59,0,0,0,.92,1.38c2.17,2.1,4.37,4.18,6.57,6.24a2.09,2.09,0,0,0,1,.56c1.77.27,3.54.46,5.28.68.12-.28.28-.48.25-.63-.93-4.54-1.78-9.1-2.82-13.61-2.58-11.16-7-21.68-11.63-32.09-.16-.38-.21-1-1-.85.07,3,.27,6.06.17,9.06s-.5,6.19-.79,9.44c1.71,1.31,3.48,2.64,5.21,4s3.91,2,5.36,4.22c-.71.11-1.21.35-1.57.22a20.82,20.82,0,0,1-3.29-1.51C279.32,96.35,277.3,95,275.25,93.76ZM151.53,264.7c-.26.65.13.91.42,1.13a61,61,0,0,0,11,6.9c2.57,1.16,5.14,2.33,7.73,3.44a53.94,53.94,0,0,0,8.21,3.06,277.8,277.8,0,0,0,27.27,5.38c2.2.32,4.39.66,6.59.91a6.09,6.09,0,0,0,6.14-2.88,2.08,2.08,0,0,0-1.75-1.56c-1.38-.3-2.74-.65-4.13-.9a87.45,87.45,0,0,1-16.28-4.56c-1-.39-2.13-.61-3.3-.94-1.73,1.37-3.85,1.35-6,1.18a12.89,12.89,0,0,1-2.37-.46c-2.72-.74-5.47-1.41-8.15-2.29-7.37-2.42-14.71-4.95-22.07-7.42A12.72,12.72,0,0,0,151.53,264.7Zm118.39-97.34a9.21,9.21,0,0,0,4.65-7.68,15.6,15.6,0,0,0,0-4.21c-1.56-7.74-3-9.37-10.18-11.3a8.3,8.3,0,0,0-1.48-.24,6,6,0,0,0-3.22.59,20.87,20.87,0,0,0-7.91,6.83,6.32,6.32,0,0,0-1.16,4,17.07,17.07,0,0,0,2.58,8.26,1.91,1.91,0,0,0,2,1l3-.36a15.47,15.47,0,0,1,9.85,2.11C268.61,166.69,269.23,167,269.92,167.36Zm11.75-92.91c.2.88.22,1.09.29,1.27,2.32,5.69,4.74,11.35,7,17.08A93.14,93.14,0,0,1,294.73,114c.26,1.9.37,3.81.61,5.71a5.56,5.56,0,0,0,.67,1.41,14.18,14.18,0,0,0,1.14-1.32q1.85-2.94,3.63-5.92a20.31,20.31,0,0,0,2.53-12.53,10.9,10.9,0,0,0-1.64-5.27c-.43.5-.78.85-1.05,1.24-.91,1.33-1.75,2.71-2.71,4a8.71,8.71,0,0,1-1.76,1.61.93.93,0,0,1-.82-.08,1,1,0,0,1-.39-.75,2.61,2.61,0,0,1,.28-1.16c.55-1.07,1.21-2.09,1.75-3.17.93-1.87,2.19-3.6,2.75-5.63C295.3,84.85,288.53,80.08,281.67,74.45Zm-2.29,78.66c0,1.8.16,3.39.08,5a19.52,19.52,0,0,1-.65,4.46,18.25,18.25,0,0,1-2,4.34,36.73,36.73,0,0,1-2.93,3.64,11.51,11.51,0,0,0,11.92,3,4.77,4.77,0,0,0-.19-.85,20.63,20.63,0,0,1,.46-17.25,9.08,9.08,0,0,0,.39-1.34Zm8.14-26.17a7.46,7.46,0,0,1-2.4.81c-.59,0-1.16-.68-1.73-1.06-.09-.06-.19-.17-.26-.15a2.94,2.94,0,0,0-1,.4c-.1.07,0,.67.12.75,1.61.82,2.16,2.28,2.47,3.91a.5.5,0,0,0,.11.28c.33.29.68.56,1.24,1,.48-1.74,1.22-3,2.61-3.51C288.25,128.51,287.91,127.8,287.52,126.94Z"/><path class="cls-2" d="M228.79,170.07c2.67,2.49,6.08,2.8,9.05,4.81-.65.17-.91.33-1.11.28-2.25-.55-4.49-1.16-6.74-1.72a9.69,9.69,0,0,1-5.1-3.06c-.13-.16-.27-.3-.41-.45-4.29-4.87-9.72-6.32-15.87-4.85-5.28,1.27-10,0-14.46-2.61a6.05,6.05,0,0,1-1.76-1.62,1.69,1.69,0,0,1,0-1.39,1.2,1.2,0,0,1,1-.47,13.72,13.72,0,0,1,2.32.62c1.24.41,2.45.93,3.71,1.28,1,.29,2.15.39,3.59.63a17.89,17.89,0,0,0-.7-1.82,13.72,13.72,0,0,1-1.7-6.06,11.93,11.93,0,0,1,2.18-7.7c.47-.66,1-1.3,1.49-1.91,5.86-6.88,13.3-6.54,19.13-3.57a21.87,21.87,0,0,1,9.83,9.52,3.05,3.05,0,0,0,1.13,1.32,3.21,3.21,0,0,1,1.69,2.7,47.77,47.77,0,0,1,.42,6.31,7.77,7.77,0,0,1-2.34,5.13,42.35,42.35,0,0,1-3.56,3.25C230.11,169.14,229.54,169.51,228.79,170.07Zm-2.33-2.76c1.18-.82,2.21-1.44,3.13-2.2a8.68,8.68,0,0,0,3.06-6.35,3.15,3.15,0,0,0-.22-1.77c-2-3.14-3.82-6.43-7-8.56-.15-.1-.38-.06-.59-.09-.6.64-.93,1.31-.23,2.1a3.4,3.4,0,0,1,.53.73,1.8,1.8,0,0,1-.06,2,1.66,1.66,0,0,1-1.87.65c-.88-.2-1.73-.48-2.66-.74a17.92,17.92,0,0,1-1.27,1.32c-1.73,1.44-3.47,1.09-4.43-.89-.22-.45-.22-1.1-.56-1.37-2.09-1.72-1.47-3.73-.75-5.79.18-.51.82-.94.27-1.76a9.76,9.76,0,0,0-7.64,6.46c-1.28,3.64.19,6.87,2.56,9.57C215.53,160.48,221.56,161.89,226.46,167.31Zm-3.7-20.62c-1.47.38-2.6.76-3.77.95-1.33.22-2.15-.85-3.12-1.61a5.28,5.28,0,0,0-1.06,3.69c1.27,1.09,1.27,1.09,2.28,3.56a11.17,11.17,0,0,0,1.69-1.16,2.47,2.47,0,0,1,3-.6,3.52,3.52,0,0,0,.89.16C222.17,149.94,222.17,149.94,222.76,146.69Zm-4.49-1.7c.34.7.74,1.09,1.4.4Z"/><path class="cls-2" d="M157.29,180.37a3.49,3.49,0,0,1-2.83-.63,255.68,255.68,0,0,1-26.13-15.19c-3.68-2.48-7.43-4.86-11.05-7.42a49,49,0,0,1-13.21-14.4,33.36,33.36,0,0,1-4.34-11.57,12.17,12.17,0,0,1,1.62-8.71,24.79,24.79,0,0,1,8.44-8.5,59.66,59.66,0,0,1,16.11-6.83A76.43,76.43,0,0,1,152.29,105c8.85.68,17.71,1.32,26.49,2.6a261.56,261.56,0,0,1,34.39,7c2,.59,4,1.41,6,2.08.86.29,1.76.46,2.64.68,4.4,1.12,8.8,2.22,13.2,3.36a4.72,4.72,0,0,1,2.92,1.45,1.43,1.43,0,0,1,.13,1.08.88.88,0,0,1-.74.42,10.57,10.57,0,0,1-2.08-.38q-9.75-2.77-19.49-5.61a3,3,0,0,1-1.59-.79c-.87-1.25-2.19-1.37-3.45-1.64-9.87-2.07-19.78-4-29.75-5.51s-20.19-2.68-30.36-3.33A69.14,69.14,0,0,0,126.05,109a68,68,0,0,0-12.34,5,24.71,24.71,0,0,0-10,8.94,10.83,10.83,0,0,0-1.47,8.41,37.85,37.85,0,0,0,7.15,14.88A54.67,54.67,0,0,0,124,158.74c9.15,5.71,18.48,11.14,27.8,16.56,1.82,1.07,3.56,2.29,5.29,3.5A1,1,0,0,1,157.29,180.37Z"/><path class="cls-2" d="M184.77,191a14.81,14.81,0,0,1,1.9.35c7.61,2.38,15.38,4.18,23.16,5.89,2.56.57,5.16,1,7.73,1.46L229.75,201c4.86.91,9.71,1.85,14.58,2.71,4.57.81,9.15,1.55,13.73,2.28,3.48.55,7,1.09,10.47,1.53,6.4.82,12.8,1.61,19.22,2.32a58.6,58.6,0,0,0,13-.07c2.91-.32,5.84-.4,8.74-.77,3.69-.47,7.38-1,11-1.74a23,23,0,0,0,5.09-1.84,9,9,0,0,0,4.16-3.84,7.73,7.73,0,0,1,1-1.5,1.14,1.14,0,0,1,1-.3,1.18,1.18,0,0,1,.53,1A7.13,7.13,0,0,1,330,205.8a19.1,19.1,0,0,1-8.47,4.48c-1.66.4-3.34.76-5,1-9.37,1.4-18.76,2.84-28.28,2-5.22-.44-10.44-1-15.63-1.72-6.89-1-13.79-1.91-20.61-3.26-8.21-1.62-16.34-3.66-24.51-5.49-5-1.13-10-2.25-15.06-3.32-7.71-1.65-15.29-3.76-22.81-6.08A11.87,11.87,0,0,1,184.77,191Z"/><path class="cls-2" d="M189.57,183.5c-4.24-1.53-8.14-3.34-11.14-6.64-.27-.3-.59-.55-.85-.86a3.47,3.47,0,0,0-3.56-1.06c-.88.18-1.74.48-2.61.71A9.63,9.63,0,0,1,170,176a1.39,1.39,0,0,1-1.48-1.76,4.24,4.24,0,0,1,1.06-1.77,9,9,0,0,1,8.12-2.16,8.13,8.13,0,0,1,2.6,1.46,7.32,7.32,0,0,1,1.29,1.26,24.11,24.11,0,0,0,6.1,4.86c1.3.75,2.55,1.61,3.8,2.44a9.7,9.7,0,0,1,1.2.91,1.55,1.55,0,0,1,.6,1.86,1.58,1.58,0,0,1-1.76.84C190.79,183.82,190.11,183.62,189.57,183.5Z"/><path class="cls-2" d="M229,187.85a4.54,4.54,0,0,1-.65-1.43c0-.17.56-.5.89-.55a.77.77,0,0,1,.73,1C229.82,187.2,229.47,187.41,229,187.85Z"/><path class="cls-2" d="M303.45,158.31c0-.86,0-2,.09-3.05a4.32,4.32,0,0,1,.59-1.69,1.89,1.89,0,0,1,3.25,0,21.49,21.49,0,0,1,1,2.35l1.68-.17a13.21,13.21,0,0,1,2.07-.16,1.52,1.52,0,0,1,1.32,2,7.52,7.52,0,0,1-.5,1.08l-.59,1.26,1.9.76a1.83,1.83,0,0,1,1.33,1.49,1.79,1.79,0,0,1-1.17,1.92l-1.38.59a19,19,0,0,1,.17,2.43,2,2,0,0,1-3.41,1.26,11,11,0,0,1-1.35-2.3c-.38-.79-.27-1.82-1.34-2.43a16.24,16.24,0,0,1-1.58.41,6.87,6.87,0,0,1-2.06.17,1.9,1.9,0,0,1-1.62-2.44A26,26,0,0,1,303.45,158.31Zm2.49.65c-.58,1.16-2,1.69-2,3.24a3.18,3.18,0,0,0,1,0c2.79-1.34,4.08-.67,5.17,2,0,.06.13.09.2.13l2.15-2c-2.27-1.44-2.26-1.44-1.56-3.95a2.92,2.92,0,0,0,0-.78c-2.81.37-2.81.37-5-.9C305.88,157.54,305.91,158.29,305.94,159Z"/><path class="cls-2" d="M250.25,131.15a20.62,20.62,0,0,1-.91,2.55,1.47,1.47,0,0,1-2.5,0,1.61,1.61,0,0,1-.33-.82,4.79,4.79,0,0,0-1.44-3.74c-1.15-1.27-.29-3,1.43-3.39a2.3,2.3,0,0,1,.89-.11,2.29,2.29,0,0,0,2.44-.62,2,2,0,0,1,1.08-.45,1.29,1.29,0,0,1,1.61,1.57,2.87,2.87,0,0,0,.23,2.8c.65,1,.23,1.69-.91,2A12.49,12.49,0,0,1,250.25,131.15Zm-3.77-3.31,2.31,2.18,2.23-.86c-.06-1.09-.11-2.09-.17-3.09-1.16.18-.67,1.71-1.73,1.9C248.36,127.53,247.7,126.4,246.48,127.84Z"/><path class="cls-2" d="M324.3,140.78A17.36,17.36,0,0,1,323,143a1.3,1.3,0,0,1-2.21-.43c-.2-.56-.23-1.18-.39-1.76a1.83,1.83,0,0,0-1.89-1.58c-.5,0-1,.12-1.5.1-1.37,0-1.94-1-1.36-2.28a18,18,0,0,1,1.1-1.82c-.27-.76-.6-1.49-.81-2.26a1.42,1.42,0,0,1,1.4-1.85,3.69,3.69,0,0,1,3.13,1.48c.45.51.17,1.13-.57,1.25a4.59,4.59,0,0,1-.83,0,5.53,5.53,0,0,1-1.12,3.62c1.7.31,3.39.65,4.14,2.78l1.75-1.65c-1.1-1.05-2-2.11-1.06-3.63-1-.18-.77.84-1.42,1.08-.15-.16-.48-.37-.46-.54a3.48,3.48,0,0,1,.4-1.66,3.09,3.09,0,0,1,2.38-1.11c1.23-.1,1.9.61,1.63,1.84a16.41,16.41,0,0,1-.6,1.74c.65.5,1.23.89,1.73,1.36a2,2,0,0,1,.59,2.19c-.29.79-1,.92-1.73.88C325,140.78,324.67,140.79,324.3,140.78Z"/><path class="cls-2" d="M321,136.75c.05.13.11.26.16.4a1.83,1.83,0,0,1-.47,0c-.05,0-.09-.15-.13-.23Z"/><path class="cls-2" d="M258.15,159.92c-.86,0-1.56,0-2.24-.12a1.07,1.07,0,0,1-.93-1.32c.71-2,1.47-3.92,2.3-5.84.26-.61,1.38-.62,1.83-.07s1.05,1.45,1.58,2.19c1.11-.6,1.68-2.14,3.5-1.7.07.37.2.82.25,1.28s0,1,0,1.4a27.24,27.24,0,0,1,2.27,1.64,1.35,1.35,0,0,1-.33,2.26,10,10,0,0,1-1.12.43c-.27.11-.53.26-.85.41a14.39,14.39,0,0,1-.7,1.62,2.2,2.2,0,0,1-3.75.45A22.87,22.87,0,0,1,258.15,159.92Zm3.56,1.46a17.7,17.7,0,0,1,1.09-1.7c.48-.59,1.05-1.11,1.68-1.76-.55-.44-1-1-1.46-1.11-1.4-.18-2.44-1.11-3.7-1.55a3.21,3.21,0,0,0-.91,0c-.39.79-.76,1.55-1.13,2.32,1.61.6,1.61.57,3.39.06a1.16,1.16,0,0,1,1,.33c.17.24.07.72,0,1.07,0,.15-.28.25-.42.39C260.42,160.25,260.42,160.25,261.71,161.38Z"/><path class="cls-2" d="M286.31,129.19l-.16.22-.22-.34c.08,0,.17-.11.24-.1S286.26,129.11,286.31,129.19Z"/><path class="cls-2" d="M217.88,150.13l.46-.43a3,3,0,0,1,.42.53c0,.06-.27.36-.31.34A3.35,3.35,0,0,1,217.88,150.13Z"/><path class="cls-2" d="M155.23,353.4a.77.77,0,0,1-.26-.23l-.15-.16a.59.59,0,0,0-.41-.21.24.24,0,0,0-.2.11.37.37,0,0,0-.09.19.44.44,0,0,0-.25,0,2.24,2.24,0,0,0-.58.25,5.37,5.37,0,0,0-.66.49,6.44,6.44,0,0,1-3.61,1.44,13.51,13.51,0,0,1-3.57-.16l-.51-.09-.22,0a5.53,5.53,0,0,1-2-.8,12,12,0,0,1-3.17-3,6.14,6.14,0,0,1-.77-1.35,1.9,1.9,0,0,0-.21-.4.43.43,0,0,0-.4-.21.54.54,0,0,0,.13-.25l0-.07-.05-.07a1.93,1.93,0,0,0-.56-.51,2.32,2.32,0,0,1-.3-.22l-.06-.05-.46.05-1.11.13a4,4,0,0,0-.55.1.52.52,0,0,0-.31.27l-.07.18a11.64,11.64,0,0,0-.63,1.74,8.12,8.12,0,0,0-.19,1.89,11.32,11.32,0,0,0,.79,4.12,11.7,11.7,0,0,0,2,3.39,7.53,7.53,0,0,0,4.66,2.6,12.6,12.6,0,0,0,2.05.16,16.37,16.37,0,0,0,4.5-.67c.6-.17,1.19-.37,1.69-.54a9.49,9.49,0,0,0,3.65-2.28,6.63,6.63,0,0,0,1.89-3.21c.12-.49.19-1,.26-1.49l.06-.42A.57.57,0,0,0,155.23,353.4Zm-19.77-3.78v.08a2.07,2.07,0,0,0,0,.22,10,10,0,0,0-.13,3,15.4,15.4,0,0,0,1.61,5.11,6.11,6.11,0,0,0,2.13,2.39,12.06,12.06,0,0,0,2.65,1.35c-.28-.05-.55-.1-.8-.17a6.7,6.7,0,0,1-3.62-2.38,11,11,0,0,1-2.46-6.72,7.2,7.2,0,0,1,.58-2.94Zm1.51-.89c-.31,0-.63,0-.94.09h-.09c.26-.05.51-.08.77-.11l.35,0,.05,0Zm.9,1.35.15.36a6,6,0,0,0,.46,1,11.32,11.32,0,0,0,3.46,3.61,7.18,7.18,0,0,0,2.8,1.16l.47.08a16.53,16.53,0,0,0,2.46.28h.54a9.33,9.33,0,0,0,2.1-.24,6.11,6.11,0,0,0,3.25-1.83,1.36,1.36,0,0,1,.24-.24l.2-.21a1.91,1.91,0,0,0,.29-.36l.13.21a.48.48,0,0,0-.25.29l0,0-1.39,2.58a3.07,3.07,0,0,1-1.14,1.26l-.22.16,0,.05a1.86,1.86,0,0,1-1.22.43,2.2,2.2,0,0,0-1.31.37,5.89,5.89,0,0,1-1.62.68,3.43,3.43,0,0,1-2.29-.09,6.19,6.19,0,0,0-1.75-.45,4,4,0,0,1-2.32-1,10.69,10.69,0,0,0-1.81-1.28,2.78,2.78,0,0,1-.41-.29,1.44,1.44,0,0,1-.58-.86c-.08-.36-.17-.73-.27-1.09s-.27-1-.41-1.44a1.33,1.33,0,0,1-.06-1,.78.78,0,0,0,0-.6A4.17,4.17,0,0,0,137,351l-.1-.19a.3.3,0,0,0-.21-.12l-.18,0-.05.16a.37.37,0,0,0,0,.2,1.23,1.23,0,0,0,.11.34,1.73,1.73,0,0,1,.13,1.09,1.71,1.71,0,0,0,.08.81,23.11,23.11,0,0,1,.6,2.42,2.75,2.75,0,0,0,1.45,1.93,12.1,12.1,0,0,1,2,1.33,4.09,4.09,0,0,0,2.28.93,6.11,6.11,0,0,1,1.86.46,3.64,3.64,0,0,0,1.3.3h.16a5.79,5.79,0,0,0,2.59-.66l.34-.19a1.56,1.56,0,0,1,.89-.28h.05a2.28,2.28,0,0,0,1.48-.62l.11-.09c.18-.16.36-.32.55-.51a3.57,3.57,0,0,0,.55-.67c.53-.91,1-1.82,1.54-2.73l.12-.21a6.31,6.31,0,0,1-2.32,4.1,8.48,8.48,0,0,1-3.43,1.82,15.09,15.09,0,0,1-3.22.51,9.74,9.74,0,0,1-5.49-1.47,5.76,5.76,0,0,1-2.48-2.71,15.4,15.4,0,0,1-1.2-3.64,8.85,8.85,0,0,1,0-2.91l.1-.62.29,0,.91-.18.17-.05a.41.41,0,0,0,0,.22A.87.87,0,0,0,137.87,350.08Z"/><path class="cls-2" d="M163.7,368.6l.16.39c.19.46.38.94.61,1.39a6.68,6.68,0,0,0,2.6,2.66,9.42,9.42,0,0,0,4.1,1.34c.52.05,1.14.1,1.76.12a16,16,0,0,0,4.53-.43,12.84,12.84,0,0,0,2-.64,7.55,7.55,0,0,0,3.9-3.65,11.81,11.81,0,0,0,1.14-3.76,11.48,11.48,0,0,0-.22-4.19,8.26,8.26,0,0,0-.64-1.79,12.84,12.84,0,0,0-1-1.54l-.12-.16a.5.5,0,0,0-.36-.18,3.32,3.32,0,0,0-.56,0l-1.11.13-.46.06-.05.07a3.11,3.11,0,0,1-.23.28,2,2,0,0,0-.43.63l0,.08,0,.07a.78.78,0,0,0,.19.21.46.46,0,0,0-.34.29,2.33,2.33,0,0,0-.1.44,6.88,6.88,0,0,1-.42,1.5,12.13,12.13,0,0,1-2.37,3.64,5.65,5.65,0,0,1-1.75,1.26l-.21.09-.47.21a13.08,13.08,0,0,1-3.43,1,6.4,6.4,0,0,1-3.85-.54,4.65,4.65,0,0,0-.76-.31,2.17,2.17,0,0,0-.62-.1.34.34,0,0,0-.23.08.47.47,0,0,0-.14-.17.29.29,0,0,0-.22-.06.6.6,0,0,0-.35.31c0,.05-.07.12-.11.18a.73.73,0,0,1-.19.29A.57.57,0,0,0,163.7,368.6Zm18.55-9.27a7.14,7.14,0,0,1,1.27,2.71,11,11,0,0,1-.78,7.11,6.68,6.68,0,0,1-3,3.19l-.73.36a12.73,12.73,0,0,0,2.25-1.95,6.18,6.18,0,0,0,1.5-2.83,15.49,15.49,0,0,0,.33-5.35,10,10,0,0,0-.83-2.85l-.09-.21,0-.07Zm-1.88-.37,0-.06.35,0c.25,0,.51-.06.77-.07h-.09c-.31,0-.63.08-.93.13Zm-.42,1.12a.47.47,0,0,0-.1-.2H180l.92-.05.3,0,.24.58a8.92,8.92,0,0,1,.68,2.83,16.32,16.32,0,0,1-.3,3.83,5.81,5.81,0,0,1-1.75,3.22,9.77,9.77,0,0,1-5,2.74,15.18,15.18,0,0,1-3.25.28,8.52,8.52,0,0,1-3.77-.95,6.29,6.29,0,0,1-3.23-3.42l.16.17c.71.77,1.42,1.53,2.15,2.28a3.26,3.26,0,0,0,.7.52,6.11,6.11,0,0,0,.65.36l.13.06a2.27,2.27,0,0,0,1.59.26l0,0a1.62,1.62,0,0,1,.92.06l.38.11a5.92,5.92,0,0,0,2.68,0l.15-.05a3.51,3.51,0,0,0,1.19-.6,6.4,6.4,0,0,1,1.69-.89,4.12,4.12,0,0,0,2-1.45,11.65,11.65,0,0,1,1.58-1.76,2.72,2.72,0,0,0,.94-2.22,22.62,22.62,0,0,1,0-2.49,1.63,1.63,0,0,0-.12-.81,1.73,1.73,0,0,1-.13-1.08,1.42,1.42,0,0,0,0-.37.31.31,0,0,0-.09-.18l-.09-.14-.16.06c-.07,0-.15.08-.17.16l-.06.21a4.34,4.34,0,0,0-.17.69.78.78,0,0,0,.15.58,1.39,1.39,0,0,1,.18,1c0,.49,0,1-.05,1.49,0,.38,0,.75,0,1.13a1.45,1.45,0,0,1-.35,1,3,3,0,0,1-.33.38,11.07,11.07,0,0,0-1.46,1.68,4,4,0,0,1-2,1.51,6,6,0,0,0-1.59.86,3.45,3.45,0,0,1-2.21.63,5.72,5.72,0,0,1-1.74-.27,2.19,2.19,0,0,0-1.36-.05,1.81,1.81,0,0,1-1.28-.12l-.06,0-.26-.11a3,3,0,0,1-1.4-.95c-.66-.72-1.31-1.45-2-2.17l0-.05a.44.44,0,0,0-.32-.21,2.25,2.25,0,0,0,.08-.24,2.48,2.48,0,0,0,.36.28l.26.15.29.18a6.09,6.09,0,0,0,3.59,1,9.14,9.14,0,0,0,2.09-.27l.53-.14a15.78,15.78,0,0,0,2.32-.87l.43-.18a7.21,7.21,0,0,0,2.45-1.8,11.44,11.44,0,0,0,2.49-4.33,7.53,7.53,0,0,0,.22-1.05,2.71,2.71,0,0,1,.06-.38A1.23,1.23,0,0,0,180,360.08Z"/><path class="cls-2" d="M257.57,321.55c0-.28-.07-.56-.11-.85a1.34,1.34,0,0,1,.65-1.37c.26-.18.56-.32.81-.51a7.09,7.09,0,0,0,.95-.86c.26-.31.18-.6-.18-.79s-.9-.44-1.35-.65a7.08,7.08,0,0,1-.68-.32,1.16,1.16,0,0,1-.61-1.45c.06-.28.16-.55.24-.82a1,1,0,0,0-.36-1.15c-.35-.3-.73-.57-1.08-.88-.59-.52-1.2-1-1.74-1.59a3.64,3.64,0,0,1-.77-4.07,1.65,1.65,0,0,1,1.78-1.24,13.81,13.81,0,0,1,1.82.14,10.55,10.55,0,0,0,3.41-.05,10.57,10.57,0,0,1,1.59-.15,2.47,2.47,0,0,1,2.14,1c.19.26.39.51.57.78a6,6,0,0,0,4.28,2.57c.67.09,1.35.2,2,.35a2,2,0,0,1,1.79,2.27v.21a2.71,2.71,0,0,0,.53,1.82,5.16,5.16,0,0,1,.4.63,1.41,1.41,0,0,1-.62,2.15,6,6,0,0,1-.78.35c-.4.16-.82.28-1.21.45a2.2,2.2,0,0,0-.81.49,5,5,0,0,1-1.76,1.19c-.62.29-1.24.55-1.85.86a12,12,0,0,0-4.33,3.75c-.07.1-.22.2,0,.39l1.13-.52c1.82-.91,3.64-1.83,5.47-2.73a23.32,23.32,0,0,0,6-4A11,11,0,0,1,278,315a5.89,5.89,0,0,0,.64-.37,2.14,2.14,0,0,0-.35-1.35,12.37,12.37,0,0,1-.58-1.15.85.85,0,0,1,.21-1.08,2,2,0,0,0,.77-1.57,9.43,9.43,0,0,1,.29-1.36,1.81,1.81,0,0,1,1.83-1.37,3.64,3.64,0,0,1,.74,0,8.87,8.87,0,0,1,1.27.22,2.14,2.14,0,0,0,2-.49c.38-.32.75-.66,1.11-1,.78-.79,1.52-1.61,2.32-2.38,1-1,2-1.89,3.1-2.8a10.72,10.72,0,0,1,2.53-1.6,4.81,4.81,0,0,1,1.85-.5,1.77,1.77,0,0,1,1.95,1.92,5.11,5.11,0,0,1-.53,2.06,15.73,15.73,0,0,1-2.91,4.34c-1,1-2,1.95-3,2.94-.14.13-.4.21-.27.56.85-.27,1.7-.53,2.54-.83,1.47-.54,2.94-1.12,4.41-1.67.64-.24,1.28-.46,1.93-.64a4.2,4.2,0,0,1,1.27-.14,1.42,1.42,0,0,1,1.3,1.91,1.93,1.93,0,0,1-.64,1,5.29,5.29,0,0,1-.87.62c-1,.54-2.1,1.07-3.16,1.59-.54.27-1.11.5-1.65.77a1.47,1.47,0,0,0-.87,1,3.64,3.64,0,0,0,.38.45c.43.37.89.72,1.32,1.1a4.57,4.57,0,0,1,1.13,1.41,1.77,1.77,0,0,1-.52,2.38,8.29,8.29,0,0,1-1.08.7,18.26,18.26,0,0,1-6.17,2.09,45,45,0,0,0-6.57,1.52c-5,1.5-9.91,3-14.8,4.75-1.82.63-3.69,1.13-5.54,1.67-1,.29-1.93.53-2.9.8a3.82,3.82,0,0,0-.59.28c.24.67.47,1.27.67,1.87s.37,1.22.57,1.88c.23,0,.44-.07.65-.08a19.9,19.9,0,0,1,2.56-.06,43.11,43.11,0,0,1,7,1.2c1.73.44,3.45,1,5.15,1.5q6.14,2,12.41,3.38a14,14,0,0,0,3.07.41,2.81,2.81,0,0,0-.34-.5c-.45-.39-.93-.78-1.39-1.16a6.75,6.75,0,0,1-.59-.47.7.7,0,0,1,.18-1.16,5.83,5.83,0,0,1,.7-.25A4.72,4.72,0,0,0,291,337a9.87,9.87,0,0,1-1.18-.51.91.91,0,0,1-.2-1.53,3.53,3.53,0,0,1,.86-.63c.64-.32,1.3-.59,2-.89a2.55,2.55,0,0,0,.4-.31,10,10,0,0,1-1-.55,1.2,1.2,0,0,1-.42-1.69,3.55,3.55,0,0,1,.75-.89c.58-.48,1.2-.9,1.79-1.36,1-.74,1.93-1.48,2.86-2.26a11.47,11.47,0,0,0,2.2-2.61,2.38,2.38,0,0,0,.18-.49c-.9.31-1.67.6-2.41.93a17.92,17.92,0,0,0-8.3,6.69,6.85,6.85,0,0,1-1.08,1.32,2.88,2.88,0,0,1-3.55.49,7.75,7.75,0,0,1-.9-.59,4,4,0,0,0-1.32-.68,4.9,4.9,0,0,1-1-.54c-.24-.14-.45-.34-.69-.5a.76.76,0,0,0-1.2.15c-.23.27-.43.57-.64.86a2,2,0,0,1-1.77.83,7.63,7.63,0,0,1-1.58-.23,21.3,21.3,0,0,0-6.7-.55c-1,.07-1.92.16-2.89.22-.46,0-.92,0-1.39,0a1.79,1.79,0,0,1-.51-.11.35.35,0,0,1-.12-.54,1.28,1.28,0,0,1,.44-.3,7.32,7.32,0,0,1,1.15-.23c1.24-.12,2.48-.25,3.73-.34a21.12,21.12,0,0,1,6.29.42c.38.08.77.13,1.16.2a1,1,0,0,0,1.11-.47,7.64,7.64,0,0,1,.65-.85,2.15,2.15,0,0,1,2.82-.35,4.22,4.22,0,0,0,.62.42,2.35,2.35,0,0,0,.89.33,2.78,2.78,0,0,1,1.57.59,5.8,5.8,0,0,0,.82.5,1,1,0,0,0,1.55-.42c.29-.45.56-.91.81-1.39a9.76,9.76,0,0,1,2.12-2.67c3-2.76,6.6-4.21,10.36-5.42a2.27,2.27,0,0,1,.63-.12,2.29,2.29,0,0,1,.64,0,1.27,1.27,0,0,1,1.09,1.64,6,6,0,0,1-.6,1.48,18.37,18.37,0,0,1-5,5.4c-.65.5-1.34.95-2,1.44a5.16,5.16,0,0,0-.48.47l.86.37a5.24,5.24,0,0,1,.94.49,1.06,1.06,0,0,1,0,1.8,3.72,3.72,0,0,1-.78.37c-.8.3-1.62.57-2.42.86-.22.08-.5.08-.64.43.26.09.51.19.77.27.44.14.89.25,1.33.4a.78.78,0,0,1,.57.71c0,.28-.17.55-.56.68a4.84,4.84,0,0,1-.83.22c-.42.07-.85.11-1.27.18-.19,0-.38.1-.64.17.52.43,1,.77,1.38,1.17a4.43,4.43,0,0,1,.82,1.11.75.75,0,0,1-.53,1.08,4.26,4.26,0,0,1-1.07.08,27.58,27.58,0,0,1-5.71-.88c-3.79-.89-7.53-2-11.25-3.16a65.55,65.55,0,0,0-9.39-2.17,23.12,23.12,0,0,0-2.88-.22,1.51,1.51,0,0,0-1,.15,24.67,24.67,0,0,1-.78,2.6c-.46,1.08-1,2.13-1.57,3.16a11.07,11.07,0,0,1-3.77,4,21.15,21.15,0,0,1-9.14,3.45c-2.56.29-5.12.56-7.68.79-3.21.28-6.43.23-9.64.19q-14.46-.23-28.92-.53c-5.36-.11-10.71-.29-16.07-.35a173.25,173.25,0,0,1-20.62-1.32,32.32,32.32,0,0,1-6.39-1.36,15.33,15.33,0,0,1-2.36-1,6.36,6.36,0,0,1-1.55-1.13,1.78,1.78,0,0,1-.13-2.52,5.17,5.17,0,0,1,.91-.9c.55-.4,1.12-.77,1.7-1.12a20.34,20.34,0,0,1,4.23-1.83c2.42-.74,4.85-1.49,7.31-2.1,6.45-1.61,12.88-3.28,19.28-5.1,5.6-1.59,11.25-3,16.88-4.51,2.94-.79,5.89-1.49,8.88-2,4.43-.82,8.86-1.62,13.28-2.45,4-.76,8-1.35,12.09-1.73a36.85,36.85,0,0,1,5.46-.11c1,.06,2.07.05,3.1.08a20.59,20.59,0,0,1,5.19.61,1.35,1.35,0,0,1,1.5-.18,8.77,8.77,0,0,1,4.16,2.9l.81,1A4,4,0,0,0,257.57,321.55ZM154.69,343.64a14.15,14.15,0,0,0,4.16,1.38,90.27,90.27,0,0,0,11.6,1.29c4.42.29,8.84.41,13.27.39,5.86,0,11.71.26,17.57.4,10.82.24,21.63.54,32.46.49a89.85,89.85,0,0,0,12.58-1.07,18.08,18.08,0,0,0,8-3.49,11.08,11.08,0,0,0,3.11-3.91,14,14,0,0,0,1.15-2.77,4.31,4.31,0,0,0-.13-2.94c-.89-2.18-1.68-4.4-2.39-6.66a8.18,8.18,0,0,0-2.53-3.78c-.67-.59-1.37-1.14-2.09-1.74a2.46,2.46,0,0,1-.58.37,2.28,2.28,0,0,1-.64,0h-1l-1.71,0-2.57,0c-.6,0-1.21,0-1.82,0a30.64,30.64,0,0,0-5.66.21c-5.75.69-11.43,1.78-17.11,2.92-.23,0-.46.11-.77.19.22.4.42.74.59,1.08s.3.65.45,1a5.52,5.52,0,0,1,.49,2.29,3.69,3.69,0,0,1-.15.94.4.4,0,0,1-.7.09,3.64,3.64,0,0,1-.37-.77c-.33-1-.64-2-1-3-.15-.47-.29-.94-.44-1.46l-.87.13a152.58,152.58,0,0,0-15.8,3.51c-5,1.39-10,2.61-15,4-3.72,1-7.46,1.95-11.24,2.73-.28.06-.55.14-.91.23.23.31.42.54.59.8a5.34,5.34,0,0,1,.39.75c.14.3.25.6.36.9s.19.54.28.81l.29.92a7.48,7.48,0,0,1,.29,3,6.43,6.43,0,0,1-.34,1.34.53.53,0,0,1-.59.36.51.51,0,0,1-.4-.44c0-.21-.07-.43-.1-.64-.13-1-.23-2-.41-3s-.44-2-.69-3c-.13-.51-.33-1-.5-1.5-.06,0-.13-.07-.19-.06-4,.85-7.9,1.67-11.78,2.82-1.2.36-2.38.75-3.56,1.17a15.2,15.2,0,0,0-3.43,1.75,3.19,3.19,0,0,0-1.2,1.19A1.82,1.82,0,0,0,154.69,343.64ZM295,300a12.05,12.05,0,0,0-2,1.1c-1,.78-2,1.62-2.93,2.49s-1.61,1.63-2.42,2.43c-.56.55-1.13,1.1-1.74,1.59a3.77,3.77,0,0,1-3.3.87,10.62,10.62,0,0,0-1.38-.17,1.29,1.29,0,0,0-.4.06,1.67,1.67,0,0,0-.38,1.11,4.06,4.06,0,0,1-.94,2.36,8.64,8.64,0,0,1,.33.81,6.4,6.4,0,0,1,.36,1.33,2.18,2.18,0,0,1-1.11,2.27c-.21.13-.43.25-.65.37a10.57,10.57,0,0,0-2.36,1.66,25,25,0,0,1-6.1,4.13c-2.45,1.25-4.92,2.47-7.37,3.71-.77.39-1.51.82-2.25,1.25a1.82,1.82,0,0,1-1.46.31,4.73,4.73,0,0,0,.37,1.41,2.08,2.08,0,0,0,.45-.13,24.49,24.49,0,0,1,3.57-1.45c2.26-.78,4.52-1.59,6.77-2.39,1.58-.56,3.16-1.15,4.75-1.67,2.89-.95,5.79-1.85,8.68-2.78a26,26,0,0,1,6.6-1.3,15.12,15.12,0,0,0,6-1.77,1.34,1.34,0,0,0,.27-.17,1.26,1.26,0,0,0,.13-.17,2,2,0,0,0-.73-1l-1.39-1.18a2,2,0,0,1-.24-3.09,5.46,5.46,0,0,1,1.25-1c.51-.31,1.09-.53,1.63-.8L299.6,309c-.2-.24-.35-.08-.49,0-1.41.52-2.8,1.08-4.22,1.55-1.87.63-3.75,1.2-5.62,1.79a3,3,0,0,1-.84.15,1,1,0,0,1-1-1.48,3.35,3.35,0,0,1,.65-1c.58-.62,1.19-1.23,1.81-1.82.93-.88,1.9-1.73,2.82-2.63a14.06,14.06,0,0,0,2.62-3.5,4.63,4.63,0,0,0,.65-2A.93.93,0,0,0,295,300Zm-39.72,9.15a13.82,13.82,0,0,0,1.19,1.23c.42.39.86.76,1.3,1.11a2.5,2.5,0,0,1,.92,2.86c0,.1-.06.21-.08.31s0,.14,0,.26c.16.27.48.35.76.49.45.21.92.41,1.34.66a1.57,1.57,0,0,1,.76,1.92,3.15,3.15,0,0,1-1.18,1.62c-.42.33-.86.62-1.31.94a10,10,0,0,1,.13,2.88c-.22.89-.31,1.82-.6,2.73a1.52,1.52,0,0,0,.25-.26c.71-1.12,1.37-2.26,2.12-3.34a13.37,13.37,0,0,1,5.81-4.76c.45-.2.91-.41,1.37-.59a3.92,3.92,0,0,0,1.09-.66,5.88,5.88,0,0,1,1.38-.79c.48-.23,1-.39,1.52-.59a14.22,14.22,0,0,1-.84-1.79,12.92,12.92,0,0,1-.27-1.81,7.75,7.75,0,0,0-1.64-.42c-.87-.21-1.74-.4-2.58-.69a6.17,6.17,0,0,1-2.68-1.91q-.56-.64-1.05-1.35a1.28,1.28,0,0,0-1.29-.58c-.32,0-.64,0-1,.09a13.81,13.81,0,0,1-4.16,0c-.45-.06-.91-.08-1.44-.13A2.1,2.1,0,0,0,255.26,309.19Z"/><path class="cls-2" d="M204.72,346c.4,0,.76.08,1.11.09,1,0,2,.11,3,.11a19,19,0,0,0,2.13-.14c3-.36,6-.81,9-1.1,7.24-.7,14.5-1.25,21.77-1.7,1.92-.12,3.85-.29,5.76-.5a16.86,16.86,0,0,0,2.72-.57,6,6,0,0,0,3.26-2.32,3.66,3.66,0,0,0,.79-2.18,1.88,1.88,0,0,0-.07-.53.4.4,0,0,0-.68-.15,1.79,1.79,0,0,0-.33.54,5.18,5.18,0,0,1-3.38,3.06,19.81,19.81,0,0,1-2.39.58c-3.58.7-7.2,1.1-10.82,1.46-5.51.55-11,1.15-16.53,1.53a49.82,49.82,0,0,1-8.55,0,19.79,19.79,0,0,0-5.54.33,5.9,5.9,0,0,0-.83.2,2.39,2.39,0,0,0-.58.28c-.2.15-.4.37-.29.63S204.59,345.92,204.72,346Z"/><path class="cls-2" d="M229.16,337.09c.09-.7.2-1.3.23-1.9a13.26,13.26,0,0,0-1-5.87c-.34-.82-.69-1.65-1.05-2.46a7,7,0,0,0-.58-1,1.71,1.71,0,0,0-.45-.44.53.53,0,0,0-.6,0,.48.48,0,0,0-.23.55,5,5,0,0,0,.16.51,52.57,52.57,0,0,1,1.6,6.78,17.65,17.65,0,0,1,.33,4,2.71,2.71,0,0,0,.09.85.47.47,0,0,0,.78.18C228.73,337.9,229,337.45,229.16,337.09Z"/><path class="cls-2" d="M208,340.58c0-.64.07-1.28,0-1.91a16,16,0,0,0-1.24-5.28c-.45-1.05-.94-2.08-1.44-3.11a4.6,4.6,0,0,0-.59-.87.47.47,0,0,0-.59-.1.44.44,0,0,0-.28.52c.07.31.14.63.24.93a52.82,52.82,0,0,1,2.2,9.78,3.38,3.38,0,0,0,.14.63.6.6,0,0,0,.54.44.7.7,0,0,0,.63-.34c.05-.09.11-.19.15-.28s.08-.28.12-.41Z"/><path class="cls-2" d="M197.44,344.66a2.71,2.71,0,0,0-1.18-.36,47.62,47.62,0,0,0-7.53-.8c-1.64-.06-3.27-.12-4.91-.16a6.35,6.35,0,0,0-1.06.11.42.42,0,0,0-.33.48.64.64,0,0,0,.3.4,2.86,2.86,0,0,0,.82.23,18.1,18.1,0,0,0,3.29.25c1.89-.05,3.77-.08,5.66-.06,1.1,0,2.2.16,3.3.22a7.85,7.85,0,0,0,1.28-.07C197.18,344.89,197.28,344.77,197.44,344.66Z"/><path class="cls-2" d="M243.57,323.91c-.42-.16-.8.09-.77.43a5.22,5.22,0,0,0,.22.93c.33,1.1.69,2.18,1,3.28a12.18,12.18,0,0,1,.55,3.69,1.5,1.5,0,0,0,0,.22.39.39,0,0,0,.32.37.78.78,0,0,0,.5-.09.87.87,0,0,0,.29-.43,3,3,0,0,0,.15-.84,13.42,13.42,0,0,0-1.09-6,8.3,8.3,0,0,0-.79-1.26A1.56,1.56,0,0,0,243.57,323.91Z"/><path class="cls-2" d="M191.37,338.9a6.33,6.33,0,0,0,.16-2.36,28.35,28.35,0,0,0-.7-3,2.9,2.9,0,0,0-.63-1,.49.49,0,0,0-.75.05.75.75,0,0,0-.1.5,45.17,45.17,0,0,1,.75,5.16,5.48,5.48,0,0,0,.21.93.61.61,0,0,0,.38.32.47.47,0,0,0,.53-.27A2.53,2.53,0,0,0,191.37,338.9Z"/><path class="cls-2" d="M241.18,328.31a.54.54,0,0,0,.61-.33,1.31,1.31,0,0,0,.1-.72,9.44,9.44,0,0,0-1.5-3.4,2.45,2.45,0,0,0-.47-.44.59.59,0,0,0-.69-.12c-.18.09-.24.39-.15.68s.15.4.24.6c.23.48.48,1,.7,1.44a4.74,4.74,0,0,1,.67,1.79A.57.57,0,0,0,241.18,328.31Z"/><path class="cls-2" d="M217.74,330.37a2.35,2.35,0,0,0,.06-.46,7.34,7.34,0,0,0-.44-2.41,1.46,1.46,0,0,0-.47-.55.41.41,0,0,0-.63.32c.08,1,.2,2,.32,3a.79.79,0,0,0,.11.29.57.57,0,0,0,.5.35C217.42,330.91,217.63,330.73,217.74,330.37Z"/><path class="cls-2" d="M202.32,335.35a2.65,2.65,0,0,0-.14.68c.06,1.17.14,2.35.24,3.52a2.28,2.28,0,0,0,.22.7.37.37,0,0,0,.56,0,1.82,1.82,0,0,0,.23-.69,15.83,15.83,0,0,0-.53-3.8A.49.49,0,0,0,202.32,335.35Z"/><path class="cls-2" d="M165.94,339.14a1.39,1.39,0,0,0-.06.4c.12.73.25,1.47.4,2.2a2.08,2.08,0,0,0,.21.59.54.54,0,0,0,1,0,1,1,0,0,0,.15-.6,6.16,6.16,0,0,0-.72-2.22A.72.72,0,0,0,165.94,339.14Z"/><path class="cls-2" d="M185.93,336.89a4.63,4.63,0,0,0,0,.51c.11.92.22,1.83.35,2.74a.45.45,0,0,0,.45.39.48.48,0,0,0,.46-.36,1.06,1.06,0,0,0,.09-.42,6.07,6.07,0,0,0-.45-2.38A.69.69,0,0,0,185.93,336.89Z"/></svg>