<svg id="katman_1" data-name="katman 1" xmlns="http://www.w3.org/2000/svg" viewBox="0 0 425 425"><defs><style>.cls-1,.cls-2{fill:#2a4173;}.cls-2{stroke:#2a4173;}.cls-2,.cls-5{stroke-miterlimit:10;}.cls-3{fill:#fff;}.cls-4{opacity:0.13;}.cls-5{fill:#2b4271;stroke:#2b4271;}</style></defs><path class="cls-1" d="M212.5,419.71C97.69,419.71,4.29,326.31,4.29,211.5S97.69,3.29,212.5,3.29,420.71,96.69,420.71,211.5,327.31,419.71,212.5,419.71Zm0-402.63C105.3,17.08,18.08,104.3,18.08,211.5S105.3,405.92,212.5,405.92,406.92,318.71,406.92,211.5,319.7,17.08,212.5,17.08Z"/><path class="cls-2" d="M188.78,333.82h-.2c-16.62-1.33-33.81-2.71-50-7.78-18.36-5.76-32.54-15.8-40-28.28-8.64-14.56-7.95-31.16-7.29-47.21.45-10.78.91-21.93-1.5-32.26a2.51,2.51,0,1,1,4.89-1.14c2.56,11,2.09,22.49,1.62,33.61-.66,16-1.29,31.16,6.59,44.44,6.78,11.42,20,20.67,37.14,26.05,15.65,4.9,32.56,6.26,48.9,7.57a2.51,2.51,0,0,1-.2,5Z"/><path class="cls-1" d="M225.32,325.13a78.91,78.91,0,0,0-29.54-1c-4,.63-8.36,1.9-10.06,5.14s.13,7.2,3.22,9.41,7.17,3,11.11,3.45c8.85,1,18.32.47,25.91-3.7,1.93-1.06,3.83-2.5,4.32-4.48C231,331.1,231.61,327.26,225.32,325.13Z"/><path class="cls-1" d="M207.47,345.1a69.2,69.2,0,0,1-7.7-.45c-4-.45-8.6-1.27-12.28-3.9-4.4-3.14-6.12-8.56-4-12.61,1.76-3.36,5.65-5.47,11.89-6.45a81.59,81.59,0,0,1,30.48,1l.25.07c8.83,3,7.15,9.64,6.6,11.83-.6,2.36-2.41,4.34-5.56,6.07C221.78,343.62,215.18,345.1,207.47,345.1Zm.51-19.38a76.15,76.15,0,0,0-11.81.92c-4.5.71-7.27,2-8.23,3.83-1.06,2,.42,4.74,2.46,6.2,2.75,2,6.57,2.62,9.93,3,10,1.13,18.24,0,24.42-3.41,2.28-1.25,2.94-2.26,3.1-2.89.68-2.68.88-4.4-3.22-5.82A75.92,75.92,0,0,0,208,325.72Z"/><path class="cls-2" d="M94.49,178.38c1.85-36.73,26.56-73.52,59.31-90.27S226.39,68.27,261.58,79c53,16.13,69.85,54.49,81,86.1,2.76,7.83,3.58,19.24-4.33,21.77s-14.4-6.56-17.09-14.29c-15-43.07-40-74.52-102.49-74.52-55.33,0-90.07,27.9-99.25,71.32-1.16,5.48-1.81,11.19-4.45,16.12s-8,9-13.51,8S94.15,185,94.49,178.38Z"/><path class="cls-2" d="M103.12,196.15A11.66,11.66,0,0,1,101,196c-7.26-1.27-9.4-10.33-9-17.7h0c1.87-37.08,26.82-75.07,60.68-92.39,32.75-16.74,73.75-20.22,109.65-9.29,57.95,17.63,74,63.19,82.63,87.67,2,5.76,3.22,13.9.46,19.45a10.61,10.61,0,0,1-6.39,5.54c-9.09,2.91-16.86-6.18-20.23-15.85-12.55-36-34.27-72.84-100.11-72.84-52.21,0-87.49,25.27-96.8,69.33-.24,1.11-.45,2.23-.66,3.35-.87,4.51-1.76,9.18-4,13.44C114.59,191.47,109.26,196.15,103.12,196.15ZM219.3,75.3c-22.47,0-44.92,5.1-64.36,15C122.6,106.88,98.77,143.13,97,178.51h0c-.28,5.56,1.13,11.85,4.89,12.51,4.37.77,8.77-2.8,10.87-6.72,1.92-3.58,2.7-7.68,3.53-12,.22-1.15.44-2.31.68-3.45,9.85-46.58,46.92-73.3,101.71-73.3,69,0,91.71,38.52,104.85,76.2,2.08,6,7.72,14.73,14,12.73a5.62,5.62,0,0,0,3.43-3c2.06-4.16.91-11-.7-15.56C328.67,133.19,312.08,97,260.85,81.38A143,143,0,0,0,219.3,75.3ZM94.49,178.38h0Z"/><path class="cls-2" d="M87.23,175.12a63.41,63.41,0,0,0-25.44,34.35c-4.17,13.92-4.92,30.13-1.17,44.18C63.38,264,79,292.23,100.82,286.73c17.85-4.5,12.85-29.47,13.47-38.66q1.23-18.36,2.48-36.73C117,207.42,114.1,160.22,87.23,175.12Z"/><path class="cls-2" d="M95.13,290c-20.51,0-34.27-25.67-36.93-35.67-3.73-14-3.3-30.57,1.18-45.54A66.44,66.44,0,0,1,85.84,173l.17-.1c7.19-4,13.56-4.29,18.92-.88,14.06,8.93,14.36,39.17,14.34,39.46l-2.48,36.73c-.11,1.58,0,3.76.06,6.28.4,11.4,1.07,30.48-15.42,34.64A25.91,25.91,0,0,1,95.13,290Zm-6.6-112.69a61.35,61.35,0,0,0-24.34,32.91C60,224.3,59.55,239.9,63,253c2.06,7.7,14.32,31.92,32.16,31.93a20.59,20.59,0,0,0,5-.63c11.6-2.93,12.12-15.67,11.62-29.6-.09-2.66-.17-5,0-6.8l2.48-36.73c.17-2.54-1.42-28.15-12-34.89C98.52,173.92,94,174.24,88.53,177.27Z"/><path class="cls-2" d="M337.66,175.12a63.48,63.48,0,0,1,25.45,34.35c4.16,13.92,4.91,30.13,1.17,44.18-2.77,10.35-18.37,38.58-40.2,33.08-17.86-4.5-12.85-29.47-13.47-38.66q-1.25-18.36-2.48-36.73C307.87,207.42,310.8,160.22,337.66,175.12Z"/><path class="cls-2" d="M329.76,290a26,26,0,0,1-6.3-.8C307,285,307.64,265.92,308.05,254.52c.09-2.52.16-4.7.06-6.28l-2.48-36.73c0-.29.28-30.53,14.34-39.46,5.36-3.41,11.72-3.11,18.91.88l.17.1a66.39,66.39,0,0,1,26.46,35.72c4.48,15,4.91,31.57,1.19,45.54C364,264.29,350.27,290,329.76,290ZM328,174.72a9.78,9.78,0,0,0-5.37,1.56c-10.61,6.74-12.2,32.35-12,34.89l2.48,36.73c.12,1.84,0,4.14-.05,6.8-.49,13.93,0,26.67,11.63,29.6,20.54,5.17,34.92-22.9,37.16-31.3,3.49-13.1,3.08-28.7-1.15-42.82a61.25,61.25,0,0,0-24.34-32.91A17.54,17.54,0,0,0,328,174.72Z"/><path class="cls-3" d="M95.09,275.59a.78.78,0,0,1-.22,0,.84.84,0,0,1-.59-1,172.63,172.63,0,0,0-.79-91.66.82.82,0,0,1,.57-1,.84.84,0,0,1,1,.57A174.31,174.31,0,0,1,95.89,275,.83.83,0,0,1,95.09,275.59Z"/><path class="cls-3" d="M331.88,276.26a.83.83,0,0,1-.81-.61c-8.27-30-5.34-62.71-2.76-91.55a.85.85,0,0,1,.91-.75.83.83,0,0,1,.76.9c-2.57,28.7-5.49,61.23,2.7,90.95a.82.82,0,0,1-.58,1A.83.83,0,0,1,331.88,276.26Z"/><g class="cls-4"><path d="M354.54,258c-5.94,6.37-9.16,10-14.49,12.75a25.69,25.69,0,0,1-12.54,1.65l-.17,0a15.85,15.85,0,0,1-2.85-.72l-.27-.1c-1.94-.93-1.29-1.63-5.7-3.73-7.09-1.88-11.19,7.83-4.89,11.58,6.15,5.6,15,6.33,22.81,4.59a34,34,0,0,0,18.06-9.8c2.65-2.71,5.48-5.27,7.89-8.21a6.47,6.47,0,0,0,2.06-4.5C364.65,256.38,357.54,253.81,354.54,258Z"/></g><g class="cls-4"><path d="M112.87,271.35a6.14,6.14,0,0,0-7.29-3.58c-4.17,1.8-1.88,1.67-5.86,3.54a24.25,24.25,0,0,1-5.11,1.3l-.62.08a50.77,50.77,0,0,1-5.58.18c-5.22-.3-5.94-.66-10.81-3C75,268.8,72.73,266.7,70,266.23c-5.86-1.06-8.72,7.4-3.55,10.27,10.83,6.65,24.3,11.19,36.79,6.67C107.83,281.27,115.53,277.49,112.87,271.35Z"/></g><path class="cls-2" d="M224.88,331.79c-1.56-.48-3.11.08-4.62.48-5.64,1.33-4.22,1.35-9.31,1.4-5.42-.07-10.8-.78-16.19-1.32-1.63-.08-3.41-.69-4.93.15-5.19,1.93-3.51,10.05,2,9.93,11,1.17,22.3,3.13,33-.58C229.91,340.54,229.9,333.13,224.88,331.79Z"/><path class="cls-5" d="M273.79,253.33l4.44-8.94-6.1-5.95.93-8.22,7.26-4.44-2.34-9.7-8.5-.64-4.57-6.89,2.71-8.08-8-5.92-6.92,5-7.94-2.34-3.11-7.92-10,.62-2.1,8.25L222,201.44l-7.48-4.07-7.22,6.88,3.69,7.68-3.68,7.41L198.93,221l-1.11,9.91,7.76,3.51,1.94,8-5.3,6.66,5.52,8.31,8.19-2.3,6.66,4.91.22,8.51,9.57,2.82,4.8-7,8.26-.52,5.63,6.38,9.15-4-.85-8.47,6-5.71Zm-25.33-2.27-15.37,1-12.4-9.15-3.62-15,6.86-13.8L238,207.94l14.78,4.35,8.52,12.84-1.72,15.31Z"/><path class="cls-5" d="M250.26,215.65l-12.12-3.57-11.59,5-5.63,11.33,3,12.29,10.18,7.5,12.62-.79,9.15-8.71,1.42-12.57Zm-5.5,27.4-9.33.59-7.53-5.55-2.2-9.1,4.16-8.37,8.58-3.74,9,2.64,5.17,7.79-1,9.3Z"/><path class="cls-5" d="M189.67,206l.79-11.36L183,186l-11.37-.79L163,192.73l-.78,11.37,7.48,8.59,11.36.78Zm-10.1,3-7.73-.54-5.09-5.84.53-7.74,5.85-5.09,7.73.54,5.09,5.84-.54,7.74Z"/><path class="cls-5" d="M158.55,219.75l-1,7.67,8.08,4,5.44-5.5,7.15.46,4.69,6.16,8.52-2.9,0-7.74,5.38-4.72,7.67,1,4-8.08-5.5-5.44.47-7.15,6.15-4.69-2.9-8.52-7.73,0L194.14,179l1-7.67-8.07-4-5.45,5.5-7.14-.47-4.69-6.15-8.52,2.9,0,7.73L156,181.57l-7.67-1-4,8.07,5.49,5.45-.46,7.15-6.16,4.68,2.9,8.52,7.74,0Zm1.21-28.64,10.69-9.31,14.15,1,9.32,10.7-1,14.15-10.7,9.31-14.15-1-9.31-10.69Z"/><path class="cls-5" d="M234.43,181.41l4.22-5.79L235,170.11l1-5.21,5.36-3.85-1.9-6.91-6.57-.59-3.48-4,.33-6.59-6.58-2.83-4.56,4.77-5.29.23-4.95-4.36L202,144.15l.89,6.54L199.78,155l-6.5,1.15-1.29,7,5.66,3.38,1.4,5.11-3.15,5.8,4.7,5.4,6.18-2.32,4.86,2.1,2.57,6.07,7.16-.3,2-6.28,4.67-2.5Zm-16.89-2.32L205.63,174l-3.43-12.5L209.83,151l12.94-.57,8.52,9.77L229,173Z"/><path class="cls-5" d="M221.59,153.2l-10.35.45-6.1,8.38,2.75,10,9.52,4.09,9.13-4.9L228.4,161ZM217,171.47,211.3,169l-1.63-5.93,3.63-5,6.15-.27,4,4.64-1.1,6.06Z"/></svg>