<svg id="katman_1" data-name="katman 1" xmlns="http://www.w3.org/2000/svg" viewBox="0 0 425 425"><defs><style>.cls-1{fill:#2a4173;}</style></defs><path class="cls-1" d="M212.5,419.71C97.69,419.71,4.29,326.31,4.29,211.5S97.69,3.29,212.5,3.29,420.71,96.69,420.71,211.5,327.31,419.71,212.5,419.71Zm0-402.63C105.3,17.08,18.08,104.3,18.08,211.5S105.3,405.92,212.5,405.92,406.92,318.71,406.92,211.5,319.7,17.08,212.5,17.08Z"/><path class="cls-1" d="M254,78.11a89.15,89.15,0,0,0-65.26,150L176.8,242c-7.71-1.77-16.76,1.08-23.12,8.17L98.76,311.28c-8.81,9.81-9.14,23.91-.73,31.48s22.42,5.75,31.24-4.08l54.91-61.1c7.13-7.93,8.61-18.61,4.5-26.43l11.14-13A89.23,89.23,0,1,0,254,78.11Zm0,168.94a79.68,79.68,0,1,1,79.68-79.68A79.69,79.69,0,0,1,254,247.05Z"/><path class="cls-1" d="M306.12,145.2c-15.29-23.56-36.27-39.33-65.15-32.12-12.32,3.07-24.61,10.72-33.7,19.54-1,1,1,5,0,6A84.77,84.77,0,0,1,241,119.07c28.2-8.76,50.62,9.73,65.15,32.12C305.23,149.82,307,146.63,306.12,145.2Z"/></svg>