<svg id="katman_1" data-name="katman 1" xmlns="http://www.w3.org/2000/svg" viewBox="0 0 425 425"><defs><style>.cls-1{fill:#2a4173;}.cls-2{fill:#fff;}.cls-3{fill:#2b4271;}</style></defs><path class="cls-1" d="M212.5,419.71C97.69,419.71,4.29,326.31,4.29,211.5S97.69,3.29,212.5,3.29,420.71,96.69,420.71,211.5,327.31,419.71,212.5,419.71Zm0-402.63C105.3,17.08,18.08,104.3,18.08,211.5S105.3,405.92,212.5,405.92,406.92,318.71,406.92,211.5,319.7,17.08,212.5,17.08Z"/><rect class="cls-2" x="121.5" y="193" width="65.63" height="8.43"/><rect class="cls-2" x="121.5" y="211.29" width="110.61" height="8.43"/><rect class="cls-2" x="121.5" y="229.57" width="110.61" height="8.43"/><path class="cls-3" d="M102.28,169.68c-.06-1.32-.09-2.65-.09-4a78.8,78.8,0,0,1,147.1-39.3c7.48-5.47,16.55-8,26.25-8a47,47,0,0,1,47.27,47.28,47.83,47.83,0,0,1-3.15,17,63,63,0,0,1-12.6,124.79H125.82a70.94,70.94,0,0,1-23.54-137.85Z"/></svg>