<svg id="katman_1" data-name="katman 1" xmlns="http://www.w3.org/2000/svg" viewBox="0 0 425 425"><defs><style>.cls-1{fill:#2a4173;}.cls-2{fill:#2b4271;stroke:#2b4271;stroke-miterlimit:10;}</style></defs><path class="cls-1" d="M212.5,419.71C97.69,419.71,4.29,326.31,4.29,211.5S97.69,3.29,212.5,3.29,420.71,96.69,420.71,211.5,327.31,419.71,212.5,419.71Zm0-402.63C105.3,17.08,18.08,104.3,18.08,211.5S105.3,405.92,212.5,405.92,406.92,318.71,406.92,211.5,319.7,17.08,212.5,17.08Z"/><path class="cls-2" d="M197.19,139.63h30.66a15.33,15.33,0,0,0,15.33-15.33h0V93.63A15.33,15.33,0,0,0,227.85,78.3H197.19a15.33,15.33,0,0,0-15.33,15.33h0v30.66a15.32,15.32,0,0,0,15.3,15.34ZM327.5,109h-69v23a23,23,0,0,1-23,23h-46a23,23,0,0,1-23-23V109h-69a23,23,0,0,0-23,23V300.6a23,23,0,0,0,23,23h230a23,23,0,0,0,23-23V132a23,23,0,0,0-23-23Zm-115,76.66a30.66,30.66,0,1,1-30.66,30.66,30.66,30.66,0,0,1,30.66-30.66h0Zm46,107.32h-92a7.67,7.67,0,0,1-7.67-7.65v0a23,23,0,0,1,23-23h61.32a23,23,0,0,1,23,23,7.69,7.69,0,0,1-7.64,7.67Z"/></svg>