<svg id="katman_1" data-name="katman 1" xmlns="http://www.w3.org/2000/svg" viewBox="0 0 425 425"><defs><style>.cls-1,.cls-2{fill:#2a4173;}.cls-2{stroke:#2a4173;stroke-miterlimit:10;}</style></defs><path class="cls-1" d="M212.5,419.71C97.69,419.71,4.29,326.31,4.29,211.5S97.69,3.29,212.5,3.29,420.71,96.69,420.71,211.5,327.31,419.71,212.5,419.71Zm0-402.63C105.3,17.08,18.08,104.3,18.08,211.5S105.3,405.92,212.5,405.92,406.92,318.71,406.92,211.5,319.7,17.08,212.5,17.08Z"/><path class="cls-2" d="M348.16,274.77c-6.1-7.2-17.71-8.75-26-3.42L266.61,307h-56c-4.06,0-7-2.93-7-6.1,0-3.54,3.36-6.11,7-6.11h36.33c7,0,14.28-4.39,15.5-10.75,1.51-7.72-5.63-15.1-14.69-15.1H173.06a60.89,60.89,0,0,0-34.42,10.6l-21.59,15.25H91.34c-4.06,0-7,2.94-7,6.48v38.07c0,3.55,3.37,6.46,7,6.46H252a53.64,53.64,0,0,0,28.65-8.19l62.73-40.22C352.47,292.07,354.24,282,348.16,274.77Z"/><path class="cls-2" d="M330,119.71,224.37,81.9a23.6,23.6,0,0,0-15.82,0L103.2,119.71a9.21,9.21,0,0,0,0,17.26l22.42,8a51.49,51.49,0,0,0-9.17,20.16,11.94,11.94,0,0,0-7.29,11,11.72,11.72,0,0,0,4.46,9.1l-9.29,55.66a6,6,0,0,0,4.93,6.88,5,5,0,0,0,.94.08H132a6,6,0,0,0,6-6,5.4,5.4,0,0,0-.08-1l-9.28-55.66a12.25,12.25,0,0,0,4.46-9.1,11.75,11.75,0,0,0-4.75-9.31,39.72,39.72,0,0,1,9.32-17.57l71.21,25.5a23.6,23.6,0,0,0,15.82,0L330.25,137a9.15,9.15,0,0,0,6-8.63A9,9,0,0,0,330,119.71ZM228.37,186a32.25,32.25,0,0,1-11.62,2.1A35.52,35.52,0,0,1,204.8,186l-54.25-19.41L145,220c0,15.43,31.8,27.88,71.74,27.88,39.27,0,71.73-12.48,71.73-27.88L283,166.59Z"/></svg>