<svg id="katman_1" data-name="katman 1" xmlns="http://www.w3.org/2000/svg" viewBox="0 0 425 425"><defs><style>.cls-1,.cls-2{fill:#2a4173;}.cls-2{stroke:#2a4173;stroke-miterlimit:10;}</style></defs><path class="cls-1" d="M212.5,419.71C97.69,419.71,4.29,326.31,4.29,211.5S97.69,3.29,212.5,3.29,420.71,96.69,420.71,211.5,327.31,419.71,212.5,419.71Zm0-402.63C105.3,17.08,18.08,104.3,18.08,211.5S105.3,405.92,212.5,405.92,406.92,318.71,406.92,211.5,319.7,17.08,212.5,17.08Z"/><path class="cls-2" d="M143.23,103.55c-18-.36-38.85,4.53-60.58,14.1a15.32,15.32,0,0,0-9,14V304.06a7.68,7.68,0,0,0,10.82,7.06c60.88-28.5,105.94,5.3,107.87,6.75a7.62,7.62,0,0,0,4.7,1.59c6,0,7.71-5.48,7.71-7.7V126.69a7.7,7.7,0,0,0-3.27-6.3C200.59,119.72,178.13,104.19,143.23,103.55Zm199.11,14.1c-21.74-9.54-42.65-14.27-60.59-14.1-34.91.63-56.92,16.17-58.27,16.83a7.69,7.69,0,0,0-3.28,6.31V311.34c0,2.53,1.69,8.12,7.72,8.12a7.68,7.68,0,0,0,4.71-1.6c1.89-1.45,47-35.26,107.87-6.75a7.68,7.68,0,0,0,10.82-7.06V131.69C350.87,125.69,347.83,120.07,342.34,117.65Z"/></svg>