<svg id="katman_1" data-name="katman 1" xmlns="http://www.w3.org/2000/svg" viewBox="0 0 425 425"><defs><style>.cls-1,.cls-2{fill:#2a4173;}.cls-2{stroke:#2a4173;stroke-miterlimit:10;stroke-width:7px;}</style></defs><path class="cls-1" d="M212.5,419.71C97.69,419.71,4.29,326.31,4.29,211.5S97.69,3.29,212.5,3.29,420.71,96.69,420.71,211.5,327.31,419.71,212.5,419.71Zm0-402.63C105.3,17.08,18.08,104.3,18.08,211.5S105.3,405.92,212.5,405.92,406.92,318.71,406.92,211.5,319.7,17.08,212.5,17.08Z"/><path class="cls-2" d="M236.73,236c0,15.34.14,30.68,0,46-.13,10.94-1.85,21.31,12.59,26.7,4.35,1.62,8,14.1,6.39,20.21s-9.52,14.09-15.5,14.85a180.42,180.42,0,0,1-48.47-.13c-6.2-.9-15-10-15.66-16.06-.74-6.9,4.56-17.2,10.5-21.32,6.29-4.37,8.53-7.71,8.45-14.81-.3-27.42-.23-54.84-.05-82.26.05-6.87-.35-11.8-8.57-14.83-9.81-3.61-13.4-12.82-11-23s9.5-15.63,20.18-15.8c6.51-.1,13-.3,19.52,0,14,.66,21.27,7.75,21.55,21.87.37,19.52.09,39,.09,58.56Z"/><path class="cls-2" d="M236.73,95.85c0,16.4-6.08,25.56-18.16,26.69-11.89,1.1-19.6-4.65-22.79-16-4.78-17,.8-32.6,12.94-37.25C224.91,63.1,236.8,74.38,236.73,95.85Z"/></svg>