<svg id="katman_1" data-name="katman 1" xmlns="http://www.w3.org/2000/svg" viewBox="0 0 425 425"><defs><style>.cls-1,.cls-2{fill:#2a4173;}.cls-2{stroke:#2a4173;stroke-miterlimit:10;stroke-width:3px;}</style></defs><path class="cls-1" d="M212.5,419.71C97.69,419.71,4.29,326.31,4.29,211.5S97.69,3.29,212.5,3.29,420.71,96.69,420.71,211.5,327.31,419.71,212.5,419.71Zm0-402.63C105.3,17.08,18.08,104.3,18.08,211.5S105.3,405.92,212.5,405.92,406.92,318.71,406.92,211.5,319.7,17.08,212.5,17.08Z"/><path class="cls-1" d="M265.45,307.42c-.28,1.19-.6,2.36-1,3.52-.16.49-.32,1-.5,1.47-.11.31-.23.6-.34.9s-.3.75-.05.16a39.1,39.1,0,0,1-3.13,5.89c-.52.81-1.08,1.6-1.66,2.38s0,0,.1-.11c-.18.21-.35.43-.52.64-.35.42-.7.83-1.06,1.24a43.62,43.62,0,0,1-4,3.93l-1,.87c-.37.29-1,.79-.24.2-.74.56-1.5,1.11-2.27,1.64-1.28.86-2.6,1.67-4,2.41-1.16.65-2.36,1.24-3.57,1.79l-.72.32c-1,.46.94-.37.13-.05l-1.45.56a30.72,30.72,0,0,1-3.12,1,4.48,4.48,0,0,0-3.23,4.93c.28,2.06,2.19,4.09,4.42,3.9a32.46,32.46,0,0,1,4.93,0l1.09.1.58.06c.86.08-.31-.05-.31-.05.18-.23,2.48.43,2.81.51.87.19,1.74.43,2.6.7l1.31.46.11,0c-.61-.24.3.14.42.19a20.65,20.65,0,0,1,2.48,1.38c.25.16,1.28,1,.54.36A17.28,17.28,0,0,1,256.2,350a6.63,6.63,0,0,1,1.46,1.92c.12.21.22.42.33.63-.08-.14-.3-.88-.06-.11.15.47.23,1,.41,1.46s0-.82,0-.21c0,.22,0,.44.05.66,0,.39,0,.76,0,1.15,0,.8,0-.08.05-.23-.05.22-.08.43-.13.64-.11.54-.3,1-.46,1.56.29-.93,0,0-.23.41s-.45.74-.69,1.11-.52.47.1-.13c-.15.15-.29.33-.43.49-.34.36-.73.67-1.09,1s.66-.35.12-.1a5.35,5.35,0,0,0-.56.36c-.15.08-1.36.72-.82.46s-.11,0-.26.08l-.66.21-.68.16c-.3.07-1,0,0,0-.45,0-.91,0-1.36,0H200.39c-7.85,0-15.7,0-23.55,0H176a13.67,13.67,0,0,1-3.51-.42c-.68-.17-1.36-.37-2-.6l-.78-.3c.49.19.59.27.05,0a23.5,23.5,0,0,1-2.33-1.35l-.42-.31c.75.56.22.18.08,0-.44-.43-.87-.85-1.29-1.29-.15-.15-.44-.66,0,0-.14-.22-.3-.42-.43-.64a11.17,11.17,0,0,1-.76-1.4c.37.8-.21-.72-.26-.91s-.13-.58-.2-.87c-.22-.84,0,.53,0,0s0-.84,0-1.26c0-1.1-.25.78,0-.24a10.27,10.27,0,0,0,.29-1.05c.07-.54-.45.8-.15.34.12-.18.19-.39.3-.58s.54-.87.56-.86-.78.87-.23.32c.12-.12.23-.25.34-.37s.48-.46.73-.69c.84-.77-.59.35.18-.13.55-.35,1.09-.7,1.68-1l.84-.42c.85-.4-1,.36.07,0a26,26,0,0,1,2.85-.88c.4-.1.79-.19,1.19-.25,1.85-.28,3.39-2.54,3.31-4.34a4.74,4.74,0,0,0-3.31-4.34c-.77-.28-1.54-.59-2.3-.91s1.18.51.42.18l-.64-.27-1.47-.66q-1.72-.78-3.42-1.62-4.38-2.18-8.57-4.7c-1.64-1-3.26-2-4.85-3.1-.83-.56-1.64-1.13-2.45-1.71a20.36,20.36,0,0,0-2.46-1.83c.56.28.66.52.12.09l-.62-.48c-.41-.33-.82-.66-1.22-1q-1.29-1-2.52-2.16-2.44-2.18-4.71-4.54-1.18-1.26-2.31-2.55a31.53,31.53,0,0,0-2.13-2.59c.46.43.49.64,0,.05l-.44-.58c-.35-.49-.71-1-1-1.48-.64-.93-1.26-1.88-1.85-2.85a53,53,0,0,1-3.25-6.2c-.21-.49-.12-1,0,0a3.7,3.7,0,0,0-.28-.69c-.23-.58-.45-1.17-.66-1.76-.39-1.11-.75-2.24-1.06-3.38s-.61-2.41-.84-3.64c-.11-.56-.2-1.11-.29-1.68l-.06-.39c-.12-.76,0,.36.06.41a6.15,6.15,0,0,1-.13-1.05,49.75,49.75,0,0,1-.18-7.72c0-.67.08-1.34.14-2,0-.34.07-.68.11-1,0-.14,0-.29,0-.43.09-.85-.12.74,0,.16.22-1.41.45-2.81.75-4.2a65.56,65.56,0,0,1,2.62-8.81c.29-.77.62-1.53.9-2.29.18-.48-.09.21-.1.25l.28-.67.6-1.33q1.11-2.42,2.37-4.76a101.36,101.36,0,0,1,6-9.76c.52-.75,1.05-1.5,1.59-2.24.27-.37.54-.73.82-1.09.11-.16.23-.31.35-.46-.39.5-.11.14.12-.15q1.64-2.07,3.39-4a81.55,81.55,0,0,1,7.28-7.24q1.83-1.6,3.75-3.1c-.61.48-.15.11.17-.13l1-.71c.69-.5,1.38-1,2.08-1.46a82.05,82.05,0,0,1,8-4.78q2.08-1.1,4.23-2.07l1.91-.84c-1.09.47,0,0,.26-.1l1.19-.47c2.79-1.09,5.65-2,8.54-2.84s5.63-1.42,8.49-1.95c1.41-.26,2.83-.49,4.25-.69a2.65,2.65,0,0,1,.61-.09s-1,.12-.44.06l1.06-.13,2.11-.23a125.88,125.88,0,0,1,16.93-.52q4,.15,8,.51c1.29.11,2.58.25,3.86.39l1.9.24.47.06.6.08a175.83,175.83,0,0,1,25.44,5.62c4.35,1.31,8.66,2.76,12.87,4.47.15,0,.29.13.44.18s-1.43-.61-.9-.39c1.79.78,4,.89,5.45-.7a4.77,4.77,0,0,0,.7-5.45c.93,2.2.28.65.09.13-.28-.77-.54-1.55-.77-2.34-.35-1.15-.65-2.32-.91-3.49q-.24-1-.42-2.1c-.07-.39-.14-.78-.2-1.17l-.06-.45c-.14-.84.14,1.24,0,.19a48,48,0,0,1-.33-5.22c0-.86,0-1.72.08-2.58,0-.44.06-.87.11-1.31a3.42,3.42,0,0,1,.09-.79c-.38,1.1-.09.55,0,.13a32.64,32.64,0,0,1,1.46-5.76c.08-.23.17-.45.25-.67.36-1,.16,0,0,0a7.75,7.75,0,0,0,.61-1.32,29.59,29.59,0,0,1,1.65-2.84c.21-.32,1.35-1.81.57-.84.4-.5.8-1,1.23-1.46a28.29,28.29,0,0,1,2.9-2.79l.54-.44c.39-.31.37-.3-.07,0l.59-.43c.55-.4,1.12-.77,1.7-1.14a42.13,42.13,0,0,1,4.39-2.37,4.42,4.42,0,0,0,2.23-3.88,4.68,4.68,0,0,0-2.23-3.89c-.8-.57-1.58-1.17-2.36-1.77-.4-.3,1.12.88.25.19l-.61-.47L283,164q-1.79-1.44-3.53-2.93a153.32,153.32,0,0,1-17.27-17.11q-1.05-1.23-2.07-2.49l-1-1.28c-.69-.88.58.78-.09-.12l-.59-.78c-1.4-1.88-2.74-3.8-4-5.78s-2.38-4-3.42-6c-.47-.94-.91-1.9-1.34-2.87s.36.94,0-.08c-.08-.19-.16-.38-.23-.58-.23-.58-.45-1.16-.66-1.75a43,43,0,0,1-1.71-6.32c-.06-.31-.06-1.43-.26-1.63.05,0,.12,1.14.05.31,0-.3-.07-.59-.09-.89a29.51,29.51,0,0,1-.12-3.26c0-1,.1-2,.19-3s-.19,1.06,0,0c0-.19.07-.39.1-.59.11-.59.23-1.18.38-1.76s.34-1.29.55-1.92.49-1.29.74-1.93c.11-.29-.57,1.3-.14.34l.3-.67c.25-.55.51-1.1.79-1.64.62-1.22,1.3-2.41,2-3.57.43-.68.88-1.35,1.35-2a5.34,5.34,0,0,1,.68-.93s-.69.86-.28.36l.6-.73a32.82,32.82,0,0,1,3.62-3.74c.32-.29.65-.56,1-.84.95-.79-.67.45.34-.25.8-.56,1.61-1.12,2.47-1.61s1.72-.87,2.58-1.31c.57-.29-1.07.38-.16.07l.81-.31c.55-.19,1.11-.37,1.67-.53a24.82,24.82,0,0,1,3-.66c.1,0,1.1-.09.33-.06s.26,0,.35,0c.65-.06,1.31-.1,2-.12a33.32,33.32,0,0,1,3.46.1l1.08.11c.86.09.07,0-.08,0,.76.12,1.52.25,2.27.41a28.51,28.51,0,0,1,3,.79c.44.15.87.33,1.31.48s.55,0-.37-.16a4.57,4.57,0,0,1,.93.42A33,33,0,0,1,288.05,88c.76.52-.64-.54-.18-.14l.52.42c.34.28.68.57,1,.87.75.66,1.46,1.36,2.15,2.08s1.33,1.43,1.95,2.18c.33.4.69.8,1,1.22-.05-.08-.63-.85-.18-.23.2.28.41.54.61.82a61.39,61.39,0,0,1,3.46,5.37q1.62,2.81,3,5.75c.45,1,.88,1.91,1.3,2.88.09.21.51,1.23,0,.09.1.25.21.5.31.74.24.6.48,1.19.71,1.79a136.46,136.46,0,0,1,7,26.07c.16,1,.32,1.93.47,2.89.07.48.13.95.2,1.42,0,.29.22,1.3,0-.08.05.28.08.56.11.83.23,1.85.43,3.69.58,5.54a78.44,78.44,0,0,1,.26,9.45c0,.58-.06,1.16-.11,1.73,0,.27,0,.53-.08.8-.12,1.23.17-1.12,0-.17-.38,2.44.58,4.77,3.14,5.53,1.95.58,3.87,1.3,5.78,2,.94.37,1.88.74,2.82,1.13.2.08,1.17.49.32.13l.35.15,1.77.78c2.54,1.14,5,2.35,7.5,3.65q4.26,2.25,8.31,4.84,2.09,1.34,4.1,2.78c.69.49,1.36,1,2,1.49,1,.75-.51-.41.31.25.38.29.75.59,1.11.88a75,75,0,0,1,7.66,7.14c.58.64,1.16,1.29,1.72,1.95l.83,1,.45.57c.56.68-.56-.76,0,0,1,1.4,2,2.82,2.94,4.3a46.94,46.94,0,0,1,2.55,4.74,6.64,6.64,0,0,1,.54,1.2s-.43-1.06-.11-.26l.21.55q.54,1.38,1,2.79a41.11,41.11,0,0,1,1.27,5.26c0,.18.31,1.63.16.92s.08.71.1,1c.1,1,.16,2,.19,3a43.47,43.47,0,0,1-.26,6,3.4,3.4,0,0,1-.08.63c.29-.94.09-.58,0-.26-.08.51-.16,1-.26,1.51-.17.87-.37,1.74-.6,2.59s-.48,1.63-.77,2.42c-.13.39-.3.76-.44,1.15-.21.59.5-1,.09-.21-.12.24-.22.48-.33.72a27.69,27.69,0,0,1-2.33,4c-.11.17-.88,1.19-.38.54s-.31.38-.42.5c-.5.59-1,1.15-1.56,1.7s-1,.94-1.5,1.38c-.27.24-.55.46-.83.69-.54.45.1.21.25-.19-.05.14-.46.34-.57.42a32.55,32.55,0,0,1-3.64,2.27c-.63.34-1.27.66-1.93,1l-.87.39c-.79.36.86-.34.3-.13l-.67.27a48.66,48.66,0,0,1-8.44,2.41c-.71.14-1.42.27-2.14.38l-1.06.17c-1,.14,1.14-.14-.22,0s-2.89.31-4.34.41a95.74,95.74,0,0,1-15.24-.32c-1-.1-2-.21-2.95-.33l-.57-.07.45.06-1.17-.17c-1-.15-2-.33-2.95-.51l-.38-.08a4.6,4.6,0,0,0-5.08,2.07,164.23,164.23,0,0,0-8.6,20.44c-4.77,13.46-8.3,27.81-8.31,42.16a58.92,58.92,0,0,0,5,24.88,4.49,4.49,0,0,0,3.89,2.23l.72,0,.82.08c1.23.12-1.14-.21,0,0,.91.17,1.8.34,2.69.59q.75.21,1.5.48c.19.07.52.29.71.27,0,0-1.08-.5-.46-.19l.4.19a16.9,16.9,0,0,1,1.51.82c.23.14.45.3.68.45.89.59-.41-.4,0,0s.86.82,1.28,1.26c.66.68-.42-.68,0,0,.18.29.38.56.55.85a9.12,9.12,0,0,1,.48.92s-.4-1.1,0,.05a9.44,9.44,0,0,1,.5,2.1c-.09,0-.08-1-.06-.27,0,.21,0,.43,0,.64,0,.39,0,.79,0,1.18s-.22,1-.09,1.25c0,0,.2-.92.11-.78a.73.73,0,0,0-.09.32c0,.07-.07.16-.09.23-.14.62.52-1,.28-.65s-.26.54-.41.78-.18.28-.26.42c-.43.73-.11-.09.25-.28-.32.17-.64.75-.91,1l-.52.48c-.76.7.57-.36.06,0s-1,.69-1.58,1c-.28.15-.58.28-.86.43-.59.3.24-.05.27-.11s-.49.19-.57.22a23.18,23.18,0,0,1-2.43.7c-.42.1-.85.18-1.28.26l-.78.12c.46-.07.37,0,0,0-2.27.2-4.54.19-6.82.17-4.58,0-9.15-.12-13.73-.23q-9.21-.23-18.42-.6a4.53,4.53,0,0,0-4.5,4.5,4.59,4.59,0,0,0,4.5,4.5c5.7.24,11.4.42,17.1.57,4.87.12,9.73.22,14.6.26,4.7,0,9.54.06,14-1.51,4.72-1.66,9.39-5,10.83-10a16.43,16.43,0,0,0-.65-9.56,16.64,16.64,0,0,0-6.64-8.16,24.69,24.69,0,0,0-12.75-3.69l3.89,2.22c-.1-.2-.56-1.22-.33-.71s-.23-.57-.3-.74c-.31-.8-.59-1.61-.86-2.43a49.27,49.27,0,0,1-1.31-5.05c-.16-.8-.31-1.61-.43-2.42,0-.27-.2-1.52-.07-.38,0-.47-.11-.94-.16-1.41-.18-1.73-.29-3.46-.34-5.2a84,84,0,0,1,.45-10.75c.08-.85.18-1.7.29-2.55,0-.1.1-.71,0-.14s0-.16,0-.31c.07-.48.14-1,.22-1.45.27-1.75.59-3.48.94-5.22a155.42,155.42,0,0,1,5.34-19.42q1.41-4.11,3-8.14c.45-1.15.92-2.29,1.39-3.43l.14-.33c.28-.66-.16.41-.18.43a4.6,4.6,0,0,0,.31-.72c.21-.5.42-1,.64-1.47,1-2.21,2-4.41,3.06-6.55l-5.08,2.07a94.68,94.68,0,0,0,21.77,1.88c12.67-.29,26.63-3.12,35.79-12.57,11.54-11.91,11.8-30.85,5.46-45.34-6-13.74-18.35-24-31-31.49a133.11,133.11,0,0,0-16.34-8,77.39,77.39,0,0,0-8.61-3.21l-.42-.13,3.14,5.54c1-6.71.45-13.59-.42-20.29a148.78,148.78,0,0,0-6.11-27.51c-5.46-16.51-15.31-36.51-34.19-40.1a35.61,35.61,0,0,0-16.36.42,32.71,32.71,0,0,0-12.08,6.59,42.34,42.34,0,0,0-11.3,15.75,35.29,35.29,0,0,0-2.29,19.52c1.44,9.46,6.33,18.32,11.91,26A149.22,149.22,0,0,0,282,174.51l.65.47v-7.77c-9.73,4.55-17.3,12.85-19.6,23.49a47.1,47.1,0,0,0,1,22.56,46,46,0,0,0,1.85,5.25l6.16-6.16c-3.31-1.43-6.71-2.65-10.13-3.77a175.77,175.77,0,0,0-23.57-6,152.13,152.13,0,0,0-33.2-2.61,105.21,105.21,0,0,0-35.71,7.28,87.72,87.72,0,0,0-33.13,23.6c-9.53,11-17.49,24.57-20.48,38.95a54.82,54.82,0,0,0,3.29,33.35c3.8,8.75,10,16.41,17.07,22.75a108.18,108.18,0,0,0,20.4,14.28,111.29,111.29,0,0,0,13.14,6.14l.59.22v-8.68c-5.16.8-10.7,3.69-13.46,8.22-2.66,4.37-2.11,9.8.11,14.22,2.32,4.64,7,7.73,11.82,9.24,3.91,1.22,7.94,1.1,12,1.1h66.91c3.89,0,7.54,0,11.16-1.81a15.64,15.64,0,0,0,3.46-25.42c-5.82-5.67-14.57-7.57-22.47-7.45-.51,0-1,0-1.54.06l1.2,8.84a45.38,45.38,0,0,0,10.26-4.2,50.27,50.27,0,0,0,17.62-15.48,44.77,44.77,0,0,0,6.76-15.37,4.5,4.5,0,0,0-8.68-2.4Z"/><path class="cls-1" d="M238.15,264.46c1,.31,2.08.7,3.1,1.11l.72.29c.62.25-1.19-.51-.56-.24l.4.18c.63.27,1.26.56,1.88.86,1.34.64,2.66,1.34,3.94,2.08a53,53,0,0,1,4.5,2.9c.09.07,1.07.84,1.09.81s-.95-.75-.18-.13l.55.44q1.2,1,2.34,2a44.35,44.35,0,0,1,4.06,4.39c.59.73-.64-.86-.08-.1l.46.63c.3.42.59.85.88,1.29a34.06,34.06,0,0,1,1.74,3c.29.56.57,1.13.83,1.71s.08.88,0-.06a5.72,5.72,0,0,0,.4,1,30.8,30.8,0,0,1,1.16,3.84c.17.68.3,1.36.42,2.05a3.76,3.76,0,0,1,.15.9c-.09-.69-.11-.79,0-.28l.06.62a40.09,40.09,0,0,1,.18,4.52,4.54,4.54,0,0,0,4.5,4.5,4.59,4.59,0,0,0,4.5-4.5,39.71,39.71,0,0,0-11.44-28.52,57,57,0,0,0-19.07-12.52,37.72,37.72,0,0,0-4.08-1.51,4.5,4.5,0,1,0-2.39,8.68Z"/><path class="cls-1" d="M303.57,158.08s-4-33-10.5-49.13-34.85-19.53-36.53,2.94,36.53,50.81,36.53,50.81-9-13.86-3.55-16.17S303.57,158.08,303.57,158.08Z"/><path class="cls-1" d="M308.07,158.08c-1.3-10.77-3.07-21.54-5.42-32.13-.81-3.67-1.7-7.33-2.76-10.93a54.56,54.56,0,0,0-3.68-10c-3-5.76-8.44-9.85-14.44-12.06a24.44,24.44,0,0,0-18.17.41c-6,2.65-10,8.55-11.11,14.91-2.49,14.35,6.76,27.4,15.78,37.6a154,154,0,0,0,22.12,20.35l.41.31a4.5,4.5,0,0,0,5.46-.7,4.59,4.59,0,0,0,.7-5.45,48.34,48.34,0,0,1-2.46-4.31c-.3-.59-.6-1.19-.87-1.8-.09-.19-.61-1.34-.27-.57s.07.14,0,0-.18-.45-.26-.68a18.37,18.37,0,0,1-.6-1.91c-.09-.32-.15-.64-.22-1-.22-.93.07,1.23,0,0,0-.28,0-.57,0-.85,0-.53-.28,1.23,0,.34s-.52.93-.12.26c.26-.43-.85,1-.38.48.28-.29.76-.49-.42.3.79-.53-.8.31-.28.09.9-.39-1.07,0-.23,0s-1.23-.36-.19,0l.37.1c.65.15.12.44-.32-.16.25.34,1.27.69,1.64.95a2.26,2.26,0,0,0,.48.35c-.06,0-.87-.72-.34-.25.32.28.64.55.95.84a34,34,0,0,1,3.16,3.42,5.41,5.41,0,0,1,.77,1c-.37-.79-.51-.67-.28-.35l.41.54c.39.53.77,1.06,1.14,1.6s.73,1.06,1.07,1.61a4.5,4.5,0,1,0,7.77-4.54,61.07,61.07,0,0,0-4.2-5.8c-2.23-2.78-4.91-5.69-8.21-7.19a9.07,9.07,0,0,0-6.64-.66,7.29,7.29,0,0,0-4.83,5.07c-1,3.89.6,7.92,2.17,11.42a48.88,48.88,0,0,0,3.44,6.32l6.16-6.16c-.13-.09-.27-.19-.39-.29l-.44-.33.16.12c-1.33-1.05-2.63-2.11-3.93-3.2-4.18-3.52-8.21-7.22-12-11.14-2.25-2.32-4.42-4.71-6.48-7.2-.5-.6-1-1.21-1.48-1.82l-.36-.47c-.37-.47.52.7.17.22l-.8-1.06c-1-1.32-1.91-2.67-2.8-4.06s-1.68-2.72-2.43-4.14c-.35-.64-.68-1.3-1-2-.16-.33-.31-.65-.45-1-.51-1.15.29.74-.17-.41a32,32,0,0,1-1.33-4c-.17-.69-.32-1.38-.44-2.07,0-.17-.05-.33-.08-.49-.08-.43.16-.42.06.47a6.59,6.59,0,0,0-.11-1.08c0-.64-.06-1.28-.05-1.92a11.86,11.86,0,0,0,.17-2.27c.13.11-.16,1,0,.32,0-.19.07-.38.1-.57.08-.41.17-.82.27-1.22a19.79,19.79,0,0,1,.66-2.15c.42-1.1-.31.56,0-.08.15-.29.28-.59.43-.87.34-.63.74-1.2,1.13-1.79s-.74.85,0,0c.2-.23.39-.45.6-.66s.41-.42.63-.61c.38-.35,1.29-.77.09-.13.5-.26.95-.66,1.44-1l.75-.41c.19-.09,1.24-.56.44-.22s.2-.06.36-.12.62-.2.93-.29a15.64,15.64,0,0,1,1.8-.41l.43-.07c.55-.11-1.1.11-.54.07.29,0,.58-.06.87-.08q.94-.06,1.89,0c.61,0,1.2.08,1.8.13s-1.22-.2,0,0l1,.2a28.37,28.37,0,0,1,3.74,1.15c.69.25-1-.49,0,0l.84.4c.62.32,1.23.66,1.82,1,.16.1,1.58.92,1.54,1.05s-.92-.75-.36-.27l.37.3c.26.22.53.45.78.69a18.41,18.41,0,0,1,1.32,1.33c.23.26.45.53.68.8s.08.42-.27-.36a3.82,3.82,0,0,0,.35.47,18.59,18.59,0,0,1,1,1.59c.32.55.53,1.3.9,1.8-.5-.67-.32-.81-.17-.39.06.16.13.32.19.49.13.33.26.67.38,1,.29.79.57,1.59.83,2.39,1.11,3.35,2,6.77,2.85,10.2,1.68,6.94,3,14,4.14,21,.46,2.77.88,5.53,1.27,8.3.08.5.15,1,.22,1.51l.09.67c0,.23.16,1.17,0,.16s0,.2.06.49.08.57.11.85.06.42.08.63c.29,2.33,1.87,4.62,4.5,4.5C305.77,162.48,308.38,160.58,308.07,158.08Z"/><path class="cls-1" d="M324.88,164.54c7.85-26.72-.29-67.14-9.11-76.11s-20.66,0-20.66,0,22,21.67,21.44,73.06Z"/><path class="cls-1" d="M329.22,165.73c4.71-16.18,4-33.94,1.16-50.39a93.32,93.32,0,0,0-5.46-20c-2.63-6.36-6.13-12.16-13-14.56-6.18-2.16-13.92-.13-19.06,3.74a4.72,4.72,0,0,0-2.15,3.29,4.43,4.43,0,0,0,1.24,3.78,25.6,25.6,0,0,1,2.15,2.49c.68.84-.69-.92-.12-.17l.55.75c.44.6.86,1.2,1.27,1.8,1,1.49,2,3,2.85,4.57q1.67,2.93,3.1,6c.25.52.49,1,.73,1.57.13.29.26.59.38.88s.57,1.33.26.58.14.36.2.5l.39,1c.27.7.54,1.39.8,2.09a117.13,117.13,0,0,1,5.3,19.37c.4,2.15.74,4.3,1,6.46-.15-1.05.07.6.11.88.07.57.13,1.15.2,1.73.13,1.18.24,2.36.34,3.55.46,5.29.63,10.59.57,15.9a4.63,4.63,0,0,0,3.31,4.34l8.32,3a4.53,4.53,0,0,0,5.54-3.15,4.61,4.61,0,0,0-3.15-5.53l-8.32-3,3.3,4.34c.17-16.26-1.77-32.81-7.14-48.22-2.94-8.43-6.8-16.77-12.22-23.91a38.14,38.14,0,0,0-3.39-4.11l-.91,7.07a21.59,21.59,0,0,1,3.82-2.19c1-.5-.65.23.07,0l1-.36a20.72,20.72,0,0,1,2.31-.62L305,89c.82-.18-.28.08-.32,0a5.62,5.62,0,0,0,1.19-.1q.62,0,1.23,0l.62,0c.84,0-.64-.17-.11,0,.79.24,1.58.39,2.36.67-1-.37.2.13.49.3l.61.37c.1.06.92.66.46.31s.21.19.3.27.4.37.6.56l.46.48c.15.16.28.33.43.5.65.73-.6-.87-.13-.16.61.9,1.19,1.8,1.71,2.76a12.76,12.76,0,0,1,1.6,3.33s-.44-1.07-.17-.38l.15.35c.13.32.25.65.38,1q.4,1.08.78,2.16c.51,1.47,1,3,1.4,4.45.94,3.33,1.71,6.71,2.35,10.11.34,1.83.65,3.67.91,5.51.05.34.21,1.61.08.58.06.48.13,1,.18,1.43.12,1,.23,1.93.32,2.89q.6,6,.65,12a108.24,108.24,0,0,1-.65,13.23c-.06.54-.13,1.07-.2,1.61.14-1.09-.07.43-.11.75-.17,1-.35,2.09-.55,3.13-.4,2.07-.9,4.13-1.49,6.16a4.56,4.56,0,0,0,3.14,5.54A4.61,4.61,0,0,0,329.22,165.73Z"/><circle class="cls-2" cx="324.69" cy="189.36" r="5.88"/><path class="cls-2" d="M373.71,216.62s3.79-2.69,4.83,3.61-1.9,8.61-4.83,8.4"/><path class="cls-1" d="M89.24,223.16c-20.8,5.76-7.9,30.75-7.9,30.75s-25.5,11.88-12.57,29.16c17.89,23.93,51.86-15.73,51.86-15.73S118,215.19,89.24,223.16Z"/><path class="cls-1" d="M88,218.82a21.17,21.17,0,0,0-10.62,6.35,18.84,18.84,0,0,0-4.21,9.38,34.79,34.79,0,0,0,2.37,17.28,44,44,0,0,0,1.87,4.36L79.07,250c-10.64,5-22.13,16.67-17.38,29.36,3.13,8.38,10.4,14.76,19.38,15.74,7.18.79,14.48-2.2,20.53-5.78a90,90,0,0,0,16.16-12.55c1.55-1.49,3.07-3,4.54-4.6,1.28-1.38,2.83-2.84,2.83-4.86a60.81,60.81,0,0,0-.91-8.51,94.93,94.93,0,0,0-3.6-16.15c-2-6.25-4.84-12.41-9.29-17.33a22,22,0,0,0-17.5-7.48,29.16,29.16,0,0,0-5.79.95,4.5,4.5,0,0,0,2.4,8.68c.66-.18,1.33-.34,2-.47.18,0,1.34-.19.43-.09s.31,0,.52,0a21.42,21.42,0,0,1,3.67,0c.54.05-1.13-.21-.61-.08.13,0,.27,0,.4.07l.76.16a15.94,15.94,0,0,1,1.67.48c.23.08.47.19.71.27.52.16-1.14-.54-.47-.2l.35.16a16,16,0,0,1,1.41.76c.46.27.89.58,1.33.88.82.58-.58-.49-.16-.12.24.21.5.4.73.61a23.5,23.5,0,0,1,2.31,2.37l.5.61c.44.51-.7-.95-.09-.12.35.49.71,1,1,1.49.64,1,1.24,2,1.79,3s1.07,2.14,1.56,3.23-.31-.77,0-.09l.36.89c.22.57.44,1.13.64,1.7.83,2.29,1.52,4.63,2.12,7,.56,2.19,1,4.41,1.44,6.63.18,1,.34,2,.49,3,.07.43.13.86.19,1.29l.09.62c-.27-1.76-.1-.73,0-.31.26,2,.49,4.08.59,6.12l1.32-3.18a94,94,0,0,1-7.94,8q-2,1.77-4,3.44l-1.08.87c-.33.26-1.2,1.2-.2.17a18.24,18.24,0,0,1-2.51,1.85,58.46,58.46,0,0,1-9.83,5.72c-.88.4.15.09.2-.08a2.84,2.84,0,0,1-.66.27l-1.1.4a28.55,28.55,0,0,1-2.86.87,14.6,14.6,0,0,0-2.42.48c.87-.4.93-.11.32-.05l-.65.06c-.44,0-.87.05-1.31.06-.85,0-1.74-.18-2.58-.14,1.42-.06.45.05-.07-.05a14.4,14.4,0,0,1-1.47-.38c-.41-.12-.82-.28-1.23-.43-.78-.26.87.43.36.16-.16-.09-.33-.16-.5-.24a22.87,22.87,0,0,1-2.55-1.56c-.71-.48.67.59.24.18-.14-.13-.31-.26-.47-.39-.38-.33-.75-.68-1.1-1s-.73-.76-1.08-1.16c-.18-.21-.35-.43-.52-.64-.57-.68.6.88,0,0a24.21,24.21,0,0,1-2-3.28c-.41-.87.13-.25,0,0a4,4,0,0,0-.2-.53,16.09,16.09,0,0,1-.52-1.8,6.36,6.36,0,0,0-.14-.76c.38,1.1.07.7,0,.21s0-.81,0-1.22a6.4,6.4,0,0,0,.09-1.41c.24.25-.22,1.18,0,.27.07-.3.12-.6.2-.9s.21-.74.34-1.1a4.29,4.29,0,0,0,.24-.64c.14.16-.52,1.09-.08.24a22.51,22.51,0,0,1,1.35-2.39c.13-.19.26-.38.4-.56a3.18,3.18,0,0,1,.27-.37c.27-.37.18-.25-.29.36,0,0,.94-1.11,1-1.21a28.74,28.74,0,0,1,2.06-2.07c.69-.62,1.46-1.16,2.14-1.79-1.18,1.09,0,0,.38-.26l.94-.66a36.19,36.19,0,0,1,4.93-2.87c2.28-1.07,2.64-4.16,1.61-6.16l-.3-.63-.33-.72-.2-.45c0-.13.53,1.28.32.74l-.15-.36a42.39,42.39,0,0,1-1.94-6c-.13-.56-.25-1.13-.36-1.69-.06-.31-.12-.62-.17-.92l-.06-.42c-.14-.82.13,1.13,0,.36a27.84,27.84,0,0,1-.18-4c0-.32,0-.64.06-1,0-.14,0-.28,0-.43,0-.82-.17,1-.06.45s.24-1.35.42-2c.08-.28.16-.55.25-.83s.13-.33.19-.5c.22-.64.25.05-.17.37.37-.28.67-1.32.93-1.75.1-.15.21-.3.31-.46.51-.8-.47.52-.16.19s.5-.59.77-.87.63-.61,1-.9a1.69,1.69,0,0,1,.37-.31c-.51.1-.71.52-.09.1a16.45,16.45,0,0,1,2.34-1.34c.22-.1.88-.19.26-.13s.1,0,.3-.1c.6-.22,1.2-.41,1.82-.58a4.5,4.5,0,1,0-2.4-8.68Z"/><path class="cls-1" d="M91.11,185.72l-11.84,7.49-2.22,1.4-.41.26c-.44.27-.9.53-1.37.77-.2.11-.41.2-.62.31-.91.47.69-.23-.19.08a22.17,22.17,0,0,1-2.91.87l-.82.16c-.68.15,1.14-.09,0,0-.55,0-1.1.09-1.65.11s-1,0-1.49,0l-.82-.06c-.31,0-.73.1.22,0a9.88,9.88,0,0,1-3.19-.74l-.62-.22c-.26-.09-1.21-.28-.15,0a7,7,0,0,1-1.48-.73c-.49-.27-1-.55-1.42-.86l-.68-.47c-.27-.2-.19-.13.24.2l-.39-.32a20.76,20.76,0,0,1-2.51-2.54c-.53-.62,0,0,.06.09l-.6-.86c-1-1.45-2.17-2.53-4.07-2.53l3.88,2.23c-.37-.6-.72-1.2-1-1.83-.18-.38-.39-.92-.11-.18-.16-.43-.32-.85-.46-1.28a18.71,18.71,0,0,1-.53-2,3.71,3.71,0,0,0-.18-1s.08.9,0,.38c0-.22,0-.44-.06-.66a16.37,16.37,0,0,1-.06-2c0-.33,0-.66,0-1,0-.16,0-.33,0-.49,0-.61-.06-.05,0,.22a12.07,12.07,0,0,1,1.07-4.13c.29-.81-.32.64.06-.14.15-.29.29-.59.44-.88a18,18,0,0,1,1.1-1.85c.15-.23.89-1.14.19-.3.21-.26.42-.52.65-.78A17.55,17.55,0,0,1,58.82,171l.79-.67c.38-.33-.19.15-.23.17l.43-.31c.24-.17.49-.33.74-.49l.12-.07c1.86-1.19,3.73-2.36,5.59-3.54l12.41-7.85,17.41-11,20.4-12.9,21.46-13.57,20.56-13,17.63-11.14,12.94-8.19c2.07-1.3,4.16-2.58,6.21-3.92l.27-.17a4.58,4.58,0,0,0,1.61-6.16s-.54-1-.24-.38-.09-.37-.1-.42c-.24-.63-.1.12,0,.22-.07-.08,0-.52,0-.65-.1-.93-.26.52,0,.06.08-.15.07-.72.21-.79-.11.06-.42.74-.07.17.26-.42.48-.74,0-.19.18-.21.41-.39.58-.61.37-.48-.86.51,0,0l.21-.14,1.71-1.08,1.69-1.07.43-.27.32-.19c.84-.53-.77.15.17-.08a2.94,2.94,0,0,1,.65-.16l-.54.07.49,0c.62.11.56-.33-.06-.07a3.15,3.15,0,0,1,.64.14c.78.14,0-.09-.16-.11.25,0,.48.35.72.38l.14.09q-.69-.58-.12-.09c.18.19.79,1,.2.1,1.82,2.66,3.45,5.45,5.17,8.17,5.25,8.3,10.64,16.52,15.74,24.9.14.23.56,1,.32.49s.08.37.1.42c.3.81.08-.81,0,.11,0,.11,0,.62,0,.66.1-.61.12-.74,0-.39a4,4,0,0,1-.11.47c-.13.79.1,0,.12-.15a3.45,3.45,0,0,1-.47.86c.42-.8.23-.27,0,0a4,4,0,0,1-.36.35c.42-.31.5-.37.23-.18-.44.24-.85.54-1.26.8-1.18.75-2.34,1.52-3.56,2.2.84-.47.28-.13,0,0l-.48.11c.6-.06.72-.08.38-.06-.16,0-.73.13-.82,0,.6.1.73.12.39,0a4.15,4.15,0,0,1-.48-.11c-.78-.14,0,.1.16.12a3.28,3.28,0,0,1-.86-.47c.8.42.27.23,0,0-.82-.78.22.46-.27-.28a4.58,4.58,0,0,0-6.16-1.61l-24.56,15.52L167.85,137.2l-21.52,13.61-34.25,21.65c-6.88,4.35-13.81,8.63-20.64,13-.11.08-.22.14-.33.21a4.5,4.5,0,1,0,4.54,7.78l17.27-10.93,33.92-21.44,24.49-15.49,16.34-10.32,28.1-17.77.57-.36-6.16-1.62a11.11,11.11,0,0,0,15.54,3.22c1.15-.73,2.32-1.43,3.45-2.18a11,11,0,0,0,5-7.32,12.32,12.32,0,0,0-2.16-8.84l-3.59-5.68L217.61,77.68,213.38,71a23.81,23.81,0,0,0-3-4.19A11,11,0,0,0,200,63.92a19.64,19.64,0,0,0-5.5,2.87c-2.11,1.34-4.18,2.72-5.37,5a11.11,11.11,0,0,0,.27,10.87L191,76.53l-4.38,2.77-11.78,7.44L157.71,97.58l-20.57,13-21.75,13.76-21,13.27-18.2,11.51-13.37,8.45q-3.26,2.06-6.5,4.12a24.36,24.36,0,0,0-11,26A24.81,24.81,0,0,0,47,192.43c1,2.22,2.42,4.68,5.21,4.68l-3.89-2.23A24.3,24.3,0,0,0,74.6,205.43c5.59-1.4,10.55-5.3,15.36-8.34l5.69-3.59a4.5,4.5,0,0,0-4.54-7.78Z"/><path class="cls-1" d="M125.25,154.5,78.67,184a6.68,6.68,0,0,1-9.22-2.08h0a6.7,6.7,0,0,1,2.08-9.23L184.4,101.28l17.18,5Z"/><path class="cls-1" d="M123,150.61l-13.15,8.32L86.5,173.68l-8,5.08-1.85,1.17a7,7,0,0,0-.65.39c-.48.35.72-.15.15,0a3.68,3.68,0,0,0-.47.15,2.28,2.28,0,0,1-.64.13s.91,0,.39-.08a2.36,2.36,0,0,0-.65,0c-.56.09.48,0,.4.07a2.89,2.89,0,0,1-1.23-.34s.94.55.2.05a2.08,2.08,0,0,0-.42-.26c-.38-.11.16.11.26.22-.14-.15-.33-.33-.48-.46s-.4-.63.06.13c-.09-.14-.19-.28-.28-.43s-.16-.31-.25-.45c.49.72.11.36,0,0a4.27,4.27,0,0,0-.13-.48c-.25-.92.07.25,0,.23s0-1.49,0-.68c0,.62.12-.39.19-.66s.29-.52,0-.06.15-.18.22-.32.5-.47-.13.12c.12-.11.22-.25.34-.36s.25-.22.36-.34c-.54.58-.37.26-.09.09l0,0,.22-.14,2.9-1.83,13.7-8.66,20.91-13.22,24.16-15.28,23.15-14.64,18.2-11.5c3.06-1.94,6.17-3.83,9.2-5.82l.41-.26-3.47.46,17.17,5-1.07-8.22-7.62,4.81-18.18,11.5-22.09,14-19,12c-3.09,2-6.24,3.85-9.29,5.87l-.13.08a4.5,4.5,0,0,0,4.54,7.77l7.62-4.81,18.18-11.5,22.09-14,19-12c3.09-2,6.26-3.82,9.29-5.87l.13-.08a4.56,4.56,0,0,0-1.08-8.23l-11.05-3.19-5.62-1.63a5.15,5.15,0,0,0-4.13.42c-3.34,2-6.56,4.14-9.82,6.21l-20.82,13.16L125,133.54,98.74,150.12,78.38,163c-3,1.91-6.08,3.77-9.06,5.73a11.19,11.19,0,0,0,2.05,20.1,11.22,11.22,0,0,0,9.7-1.07c.65-.39,1.29-.81,1.94-1.22l22.38-14.15,21-13.25,1.18-.75a4.5,4.5,0,1,0-4.54-7.77Z"/></svg>