<svg id="katman_1" data-name="katman 1" xmlns="http://www.w3.org/2000/svg" viewBox="0 0 425 425"><defs><style>.cls-1{fill:#2a4173;}.cls-2,.cls-3{fill:none;stroke:#2a4173;stroke-miterlimit:10;}.cls-2{stroke-width:18px;}.cls-3{stroke-width:12px;}</style></defs><path class="cls-1" d="M212.5,419.71C97.69,419.71,4.29,326.31,4.29,211.5S97.69,3.29,212.5,3.29,420.71,96.69,420.71,211.5,327.31,419.71,212.5,419.71Zm0-402.63C105.3,17.08,18.08,104.3,18.08,211.5S105.3,405.92,212.5,405.92,406.92,318.71,406.92,211.5,319.7,17.08,212.5,17.08Z"/><polyline class="cls-2" points="225.85 106.95 247.38 90.59 345.57 230.12 222.12 334.11"/><path class="cls-2" d="M331.79,256l22.39,27.57L181.06,349.84,70.82,192.22s27.56-65.46,118-123.17L294.75,216.34l-115,124.88"/><line class="cls-3" x1="125.08" y1="204.28" x2="190.54" y2="138.82"/><line class="cls-3" x1="147.04" y1="232.27" x2="212.5" y2="166.81"/><line class="cls-3" x1="168.57" y1="265" x2="234.03" y2="199.54"/></svg>