<svg id="katman_1" data-name="katman 1" xmlns="http://www.w3.org/2000/svg" viewBox="0 0 425 425"><defs><style>.cls-1,.cls-2{fill:#2a4173;}.cls-2{stroke:#2a4173;stroke-miterlimit:10;}</style></defs><path class="cls-1" d="M212.5,419.71C97.69,419.71,4.29,326.31,4.29,211.5S97.69,3.29,212.5,3.29,420.71,96.69,420.71,211.5,327.31,419.71,212.5,419.71Zm0-402.63C105.3,17.08,18.08,104.3,18.08,211.5S105.3,405.92,212.5,405.92,406.92,318.71,406.92,211.5,319.7,17.08,212.5,17.08Z"/><path class="cls-2" d="M333.86,123.83H227.46L192,88.36H103.32A26.61,26.61,0,0,0,76.72,115V159.3H360.46v-8.87A26.6,26.6,0,0,0,333.86,123.83ZM76.72,310a26.61,26.61,0,0,0,26.6,26.6H333.86a26.61,26.61,0,0,0,26.6-26.6V177H76.72Z"/></svg>