<svg id="katman_1" data-name="katman 1" xmlns="http://www.w3.org/2000/svg" viewBox="0 0 425 425"><defs><style>.cls-1{fill:#2a4173;}.cls-2{fill:#2b4271;}</style></defs><path class="cls-1" d="M212.5,419.71C97.69,419.71,4.29,326.31,4.29,211.5S97.69,3.29,212.5,3.29,420.71,96.69,420.71,211.5,327.31,419.71,212.5,419.71Zm0-402.63C105.3,17.08,18.08,104.3,18.08,211.5S105.3,405.92,212.5,405.92,406.92,318.71,406.92,211.5,319.7,17.08,212.5,17.08Z"/><path class="cls-2" d="M156.54,174.19H338.82V147.85a26.35,26.35,0,0,0-26.34-26.34H224.69L189.57,86.39H101.78a26.34,26.34,0,0,0-26.34,26.34v180.2l49.68-99.37A35,35,0,0,1,156.54,174.19Zm216.9,17.55H156.54a17.51,17.51,0,0,0-15.7,9.72L75.44,332.21H320.76a17.57,17.57,0,0,0,15.71-9.7l52.67-105.35C395.44,205.46,386.94,191.74,373.44,191.74Z"/></svg>