<svg id="katman_1" data-name="katman 1" xmlns="http://www.w3.org/2000/svg" viewBox="0 0 425 425"><defs><style>.cls-1{fill:#2a4173;}.cls-2{fill:#2b4271;stroke:#2b4271;stroke-miterlimit:10;}</style></defs><path class="cls-1" d="M212.5,419.71C97.69,419.71,4.29,326.31,4.29,211.5S97.69,3.29,212.5,3.29,420.71,96.69,420.71,211.5,327.31,419.71,212.5,419.71Zm0-402.63C105.3,17.08,18.08,104.3,18.08,211.5S105.3,405.92,212.5,405.92,406.92,318.71,406.92,211.5,319.7,17.08,212.5,17.08Z"/><path class="cls-2" d="M283.35,274.84A70,70,0,0,0,177.84,194l26.29,9A14,14,0,1,1,195,229.61l-59.72-20.54a14,14,0,0,1-8.71-17.84l20.54-59.73a14,14,0,1,1,26.55,9.13l-10,29.13A98.09,98.09,0,0,1,309.89,284l-2.88,8.4Z"/><path class="cls-2" d="M329.08,343.13,273.27,284S184.63,376,114.05,229.87c0,0-26.27,114.44,107.51,113.26,0,0,36.93-1.64,48.42-14.78l16.42,16Z"/><circle class="cls-2" cx="172.51" cy="80.93" r="22.16"/></svg>