<svg id="katman_1" data-name="katman 1" xmlns="http://www.w3.org/2000/svg" viewBox="0 0 425 425"><defs><style>.cls-1,.cls-2{fill:#2a4173;}.cls-2{stroke:#2a4173;stroke-miterlimit:10;}</style></defs><path class="cls-1" d="M212.5,419.71C97.69,419.71,4.29,326.31,4.29,211.5S97.69,3.29,212.5,3.29,420.71,96.69,420.71,211.5,327.31,419.71,212.5,419.71Zm0-402.63C105.3,17.08,18.08,104.3,18.08,211.5S105.3,405.92,212.5,405.92,406.92,318.71,406.92,211.5,319.7,17.08,212.5,17.08Z"/><path class="cls-2" d="M256.7,200.79l-63.64-19.62a14.17,14.17,0,1,0-8.39,27.06l27.83,10.11H94.86c-6.86,0-13.15,4.63-14.44,11.37a14.18,14.18,0,0,0,13.9,17H170a4.73,4.73,0,0,1,0,9.45H76c-6.86,0-13.15,4.64-14.44,11.37a14.19,14.19,0,0,0,13.91,17H170a4.73,4.73,0,0,1,0,9.45H94.86c-6.86,0-13.15,4.63-14.44,11.37a14.18,14.18,0,0,0,13.9,17H170a4.73,4.73,0,0,1,0,9.46h-56.2c-6.86,0-13.14,4.63-14.44,11.36a14.2,14.2,0,0,0,13.91,17h122.9A70.91,70.91,0,0,0,307,289.24V270.32C307,238.78,286.42,210.89,256.7,200.79Zm-79-37.11a33,33,0,0,1,11.21-2.06,33.56,33.56,0,0,1,9.75,1.46l9.52,2.94-12.4-39.15c-2.07-6.5-8.33-11.11-15.19-10.32a14.2,14.2,0,0,0-12,18.39ZM349.05,143A14.2,14.2,0,0,0,335,157.28l-1.23,29.56L298.28,74.7c-2.06-6.55-8.38-11.15-15.19-10.35a14.19,14.19,0,0,0-12,18.38l22.78,72.15a4.73,4.73,0,1,1-9,2.85L256.53,68.09c-2.07-6.54-8.38-11.14-15.2-10.34a14.19,14.19,0,0,0-12,18.38L255,157.55a4.73,4.73,0,0,1-9,2.85L226.16,97.53c-2.08-6.59-8.4-11.19-15.2-10.4a14.2,14.2,0,0,0-12,18.38l20.18,63.87,43.55,13.45C300,195.47,326,230.63,326,270.28v16.49a73.16,73.16,0,0,0,37.81-63v-66.6C363.65,149.26,356.85,143,349.05,143Z"/></svg>