<svg id="katman_1" data-name="katman 1" xmlns="http://www.w3.org/2000/svg" viewBox="0 0 425 425"><defs><style>.cls-1{fill:#2a4173;}.cls-2{fill:#2b4271;}</style></defs><path class="cls-1" d="M212.5,419.71C97.69,419.71,4.29,326.31,4.29,211.5S97.69,3.29,212.5,3.29,420.71,96.69,420.71,211.5,327.31,419.71,212.5,419.71Zm0-402.63C105.3,17.08,18.08,104.3,18.08,211.5S105.3,405.92,212.5,405.92,406.92,318.71,406.92,211.5,319.7,17.08,212.5,17.08Z"/><path class="cls-2" d="M336.89,259.92V100a26.66,26.66,0,0,0-26.66-26.65H141.42a53.3,53.3,0,0,0-53.31,53.3v177.7a53.3,53.3,0,0,0,53.31,53.3h177.7c9.81,0,17.77-7.95,17.77-17.26A17.52,17.52,0,0,0,328,325.34V280.16A28.26,28.26,0,0,0,336.89,259.92ZM167.58,144.42H274.19a9,9,0,0,1,9.39,8.89,8.91,8.91,0,0,1-8.89,8.88H167.58c-4.39,0-8.39-4-8.39-8.88S163.19,144.42,167.58,144.42Zm0,35.54H274.19a9,9,0,0,1,9.39,8.89,8.91,8.91,0,0,1-8.89,8.88H167.58c-4.39,0-8.39-4-8.39-8.88S163.19,180,167.58,180ZM301.35,322.12H141.42a17.77,17.77,0,1,1,0-35.54H301.35Z"/></svg>