<svg id="katman_1" data-name="katman 1" xmlns="http://www.w3.org/2000/svg" viewBox="0 0 425 425"><defs><style>.cls-1,.cls-3{fill:#2a4173;}.cls-2{fill:#fff;}.cls-3{stroke:#2a4173;stroke-miterlimit:10;}</style></defs><path class="cls-1" d="M212.5,419.71C97.69,419.71,4.29,326.31,4.29,211.5S97.69,3.29,212.5,3.29,420.71,96.69,420.71,211.5,327.31,419.71,212.5,419.71Zm0-402.63C105.3,17.08,18.08,104.3,18.08,211.5S105.3,405.92,212.5,405.92,406.92,318.71,406.92,211.5,319.7,17.08,212.5,17.08Z"/><circle class="cls-2" cx="219.71" cy="116.45" r="13.28"/><polygon class="cls-3" points="102.17 165.4 321.39 165.4 337.31 144.78 337.31 123.8 216.12 65.91 205.99 65.91 87.33 123.43 87.33 144.78 102.17 165.4"/><rect class="cls-3" x="114.46" y="181.31" width="33.28" height="101.65"/><rect class="cls-3" x="166.56" y="181.31" width="33.28" height="101.65"/><rect class="cls-3" x="225.16" y="181.31" width="33.28" height="101.65"/><rect class="cls-3" x="275.81" y="181.31" width="33.28" height="101.65"/><polygon class="cls-3" points="311.8 280.98 113.38 282.97 86.97 301.6 86.97 321.68 86.97 327.1 338.03 327.1 338.03 300.69 311.8 280.98"/><circle class="cls-3" cx="212.5" cy="119.09" r="14.47"/></svg>