<svg id="katman_1" data-name="katman 1" xmlns="http://www.w3.org/2000/svg" viewBox="0 0 425 425"><defs><style>.cls-1{fill:#2a4173;}.cls-2,.cls-3{fill:none;stroke:#2a4173;stroke-miterlimit:10;}.cls-2{stroke-width:9px;}.cls-3{stroke-width:7px;}</style></defs><path class="cls-1" d="M212.5,419.71C97.69,419.71,4.29,326.31,4.29,211.5S97.69,3.29,212.5,3.29,420.71,96.69,420.71,211.5,327.31,419.71,212.5,419.71Zm0-402.63C105.3,17.08,18.08,104.3,18.08,211.5S105.3,405.92,212.5,405.92,406.92,318.71,406.92,211.5,319.7,17.08,212.5,17.08Z"/><polyline class="cls-2" points="192.04 122.18 163.51 155.51 148.55 138"/><polyline class="cls-2" points="192.04 175.03 163.51 208.35 148.55 190.84"/><polyline class="cls-2" points="192.04 222 163.51 255.33 148.55 237.82"/><polyline class="cls-2" points="192.04 268.98 163.51 302.3 148.55 284.79"/><rect class="cls-2" x="216.9" y="138.84" width="62.12" height="8.43"/><rect class="cls-2" x="216.9" y="234.45" width="62.12" height="8.43"/><line class="cls-3" x1="216.9" y1="293.18" x2="279.02" y2="293.18"/><line class="cls-3" x1="216.9" y1="194.54" x2="279.02" y2="194.54"/><polygon class="cls-2" points="118.89 82.85 151.55 82.85 313.14 82.85 313.14 91.9 319.18 91.9 319.18 342.52 311.13 342.52 311.13 347.55 118.89 347.55 118.89 82.85"/></svg>