<svg id="katman_1" data-name="katman 1" xmlns="http://www.w3.org/2000/svg" viewBox="0 0 425 425"><defs><style>.cls-1{fill:#2a4173;}.cls-2{fill:#fff;}.cls-3{fill:#2b4271;stroke:#2b4271;stroke-miterlimit:10;}</style></defs><path class="cls-1" d="M212.5,419.71C97.69,419.71,4.29,326.31,4.29,211.5S97.69,3.29,212.5,3.29,420.71,96.69,420.71,211.5,327.31,419.71,212.5,419.71Zm0-402.63C105.3,17.08,18.08,104.3,18.08,211.5S105.3,405.92,212.5,405.92,406.92,318.71,406.92,211.5,319.7,17.08,212.5,17.08Z"/><circle class="cls-2" cx="219.71" cy="116.45" r="13.28"/><path class="cls-3" d="M107.59,110.59v-8.74a8.74,8.74,0,0,1,8.75-8.74h35a8.76,8.76,0,0,1,8.74,8.74v8.74h17.48L205.12,96.8a35,35,0,0,1,15.63-3.69h96.66a35,35,0,0,1,35,35V302.92a35,35,0,0,1-35,35H107.59a35,35,0,0,1-35-35V145.56A35,35,0,0,1,107.59,110.59Zm85.57,31.26a34.6,34.6,0,0,1-15.63,3.71H107.59v35h62.73a74.41,74.41,0,0,1,84.36,0h62.73V128.08H220.75Zm19.34,51.79a48.09,48.09,0,1,0,48.08,48.09A48.09,48.09,0,0,0,212.5,193.64Z"/></svg>