<svg id="katman_1" data-name="katman 1" xmlns="http://www.w3.org/2000/svg" viewBox="0 0 425 425"><defs><style>.cls-1{fill:#2a4173;}.cls-2{fill:#2b4271;}</style></defs><path class="cls-1" d="M212.5,419.71C97.69,419.71,4.29,326.31,4.29,211.5S97.69,3.29,212.5,3.29,420.71,96.69,420.71,211.5,327.31,419.71,212.5,419.71Zm0-402.63C105.3,17.08,18.08,104.3,18.08,211.5S105.3,405.92,212.5,405.92,406.92,318.71,406.92,211.5,319.7,17.08,212.5,17.08Z"/><path class="cls-2" d="M136.79,121.38a75.71,75.71,0,1,1,75.71,75.7A75.71,75.71,0,0,1,136.79,121.38Zm18.93,143.31a33.13,33.13,0,1,0,18.93,0V226a107.09,107.09,0,0,1,10.82-.54h54.06c3.67,0,6.74.18,10.82.54v33.77A37.89,37.89,0,0,0,222,296.45v23.66a9.49,9.49,0,0,0,9.47,9.46h9.46a9.47,9.47,0,0,0,0-18.93V296.45a18.93,18.93,0,1,1,37.85,0v14.19a9.47,9.47,0,0,0,0,18.93h9.47a9.49,9.49,0,0,0,9.46-9.46V296.45a37.89,37.89,0,0,0-28.39-36.67v-30C312.51,242.57,345,283,345,330.93a17.56,17.56,0,0,1-17.56,17.56H97.59A17.56,17.56,0,0,1,80,330.93a105.5,105.5,0,0,1,75.7-101.2ZM151,296.45a14.2,14.2,0,1,1,14.19,14.19A14.16,14.16,0,0,1,151,296.45Z"/></svg>