<svg id="katman_1" data-name="katman 1" xmlns="http://www.w3.org/2000/svg" viewBox="0 0 425 425"><defs><style>.cls-1,.cls-2{fill:#2a4173;}.cls-2{stroke:#2a4173;stroke-miterlimit:10;}</style></defs><path class="cls-1" d="M212.5,419.71C97.69,419.71,4.29,326.31,4.29,211.5S97.69,3.29,212.5,3.29,420.71,96.69,420.71,211.5,327.31,419.71,212.5,419.71Zm0-402.63C105.3,17.08,18.08,104.3,18.08,211.5S105.3,405.92,212.5,405.92,406.92,318.71,406.92,211.5,319.7,17.08,212.5,17.08Z"/><path class="cls-2" d="M287.12,127.3V76.77H228.18A25.26,25.26,0,0,0,202.92,102V253.6a25.26,25.26,0,0,0,25.26,25.26h101a25.26,25.26,0,0,0,25.26-25.26V144.14h-50A17,17,0,0,1,287.12,127.3ZM304,76.77V127.3h50.52ZM186.08,262V144.14H110.3A25.26,25.26,0,0,0,85,169.4V321a25.27,25.27,0,0,0,25.27,25.27h101A25.26,25.26,0,0,0,236.6,321V295.7H219.76A33.71,33.71,0,0,1,186.08,262Z"/></svg>