<svg id="katman_1" data-name="katman 1" xmlns="http://www.w3.org/2000/svg" viewBox="0 0 425 425"><defs><style>.cls-1{fill:#2b4271;}</style></defs><path class="cls-1" d="M210.53,420C95.55,420,2,326.48,2,211.5S95.55,3,210.53,3,419.06,96.52,419.06,211.5,325.51,420,210.53,420Zm0-403.25c-107.37,0-194.72,87.35-194.72,194.72s87.35,194.72,194.72,194.72S405.25,318.87,405.25,211.5,317.9,16.78,210.53,16.78Z"/><circle class="cls-1" cx="321.49" cy="170.59" r="31.4"/><circle class="cls-1" cx="101.35" cy="170.59" r="31.4"/><path class="cls-1" d="M321.49,223.34a56.64,56.64,0,0,0-37.07,13.75,98,98,0,0,1,23,43.16h71A56.91,56.91,0,0,0,321.49,223.34Z"/><path class="cls-1" d="M211.42,226.17a77.37,77.37,0,0,0-77.37,77.38H288.79A77.37,77.37,0,0,0,211.42,226.17Z"/><path class="cls-1" d="M101.35,223.34a56.91,56.91,0,0,0-56.91,56.91h71a97.87,97.87,0,0,1,23-43.16A56.65,56.65,0,0,0,101.35,223.34Z"/><circle class="cls-1" cx="211.42" cy="162.14" r="42.69"/></svg>