<svg id="katman_1" data-name="katman 1" xmlns="http://www.w3.org/2000/svg" viewBox="0 0 425 425"><defs><style>.cls-1{fill:#2a4173;}</style></defs><path class="cls-1" d="M212.5,419.71C97.69,419.71,4.29,326.31,4.29,211.5S97.69,3.29,212.5,3.29,420.71,96.69,420.71,211.5,327.31,419.71,212.5,419.71Zm0-402.63C105.3,17.08,18.08,104.3,18.08,211.5S105.3,405.92,212.5,405.92,406.92,318.71,406.92,211.5,319.7,17.08,212.5,17.08Z"/><path class="cls-1" d="M105.38,327.83h73.36c3.8,0,6.89-3.73,6.89-8.33V260.81h58.26V319.5c0,4.6,3.08,8.33,6.87,8.33h73.38c3.79,0,6.87-3.73,6.87-8.33V107.82c0-4.61-3.08-8.33-6.87-8.33H250.76c-3.79,0-6.87,3.72-6.87,8.33v64.24H185.63V107.82c0-4.61-3.09-8.33-6.89-8.33H105.38c-3.8,0-6.88,3.72-6.88,8.33V319.5C98.5,324.1,101.58,327.83,105.38,327.83Zm6.87-211.68h59.62v64.24c0,4.6,3.08,8.34,6.87,8.34h72c3.8,0,6.88-3.74,6.88-8.34V116.15h59.61v195H257.64V252.47c0-4.6-3.08-8.33-6.88-8.33h-72c-3.79,0-6.87,3.73-6.87,8.33v58.69H112.25Z"/></svg>