<svg id="katman_1" data-name="katman 1" xmlns="http://www.w3.org/2000/svg" viewBox="0 0 425 425"><defs><style>.cls-1{fill:#2a4173;}.cls-2{fill:#2b4271;stroke:#2b4271;stroke-miterlimit:10;}</style></defs><path class="cls-1" d="M212.5,419.71C97.69,419.71,4.29,326.31,4.29,211.5S97.69,3.29,212.5,3.29,420.71,96.69,420.71,211.5,327.31,419.71,212.5,419.71Zm0-402.63C105.3,17.08,18.08,104.3,18.08,211.5S105.3,405.92,212.5,405.92,406.92,318.71,406.92,211.5,319.7,17.08,212.5,17.08Z"/><polygon class="cls-2" points="71.38 138.49 144.73 106.6 144.73 288.83 76.84 309.79 71.38 303.87 71.38 138.49"/><polygon class="cls-2" points="165.23 102.04 165.23 283.36 254.07 309.79 254.07 128.01 165.23 102.04"/><polygon class="cls-2" points="275.02 309.79 275.02 126.64 340.17 102.04 346.55 106.6 346.55 278.81 275.02 309.79"/></svg>