<svg id="katman_1" data-name="katman 1" xmlns="http://www.w3.org/2000/svg" viewBox="0 0 425 425"><defs><style>.cls-1{fill:#2a4173;}.cls-2{fill:#2b4271;stroke:#2b4271;stroke-miterlimit:10;}</style></defs><path class="cls-1" d="M212.5,419.71C97.69,419.71,4.29,326.31,4.29,211.5S97.69,3.29,212.5,3.29,420.71,96.69,420.71,211.5,327.31,419.71,212.5,419.71Zm0-402.63C105.3,17.08,18.08,104.3,18.08,211.5S105.3,405.92,212.5,405.92,406.92,318.71,406.92,211.5,319.7,17.08,212.5,17.08Z"/><path class="cls-2" d="M227.57,176.46a12.66,12.66,0,0,0-16,19.6,24.79,24.79,0,0,1,0,38.85,12.65,12.65,0,0,0,16,19.59,50.12,50.12,0,0,0,0-78Zm31.87-39.4a12.64,12.64,0,0,0-16,19.56,74.82,74.82,0,0,1,0,116.85,12.64,12.64,0,1,0,16,19.55,99.3,99.3,0,0,0,37.36-78C296.8,184.47,283.2,157,259.44,137.06Zm32.3-39a12.65,12.65,0,1,0-16,19.56,125.87,125.87,0,0,1,0,195.2,12.65,12.65,0,0,0,16,19.56c35.36-28.52,55.64-71.29,55.64-117.39S327.09,127.07,291.74,98.1Zm-134.4,74.52a13.08,13.08,0,0,0,13-7.9l17.78-44.46c2.24-5.72-.35-12.7-5-15.47L147.56,82.58a12.65,12.65,0,0,0-15.71,1.78c-72.3,72.3-72.29,190,0,262.27a12.59,12.59,0,0,0,15.67,1.79l35.55-22.22a12.72,12.72,0,0,0,5.06-15.44l-17.77-44.42a12.6,12.6,0,0,0-13-7.88l-28.05,2.79a141.83,141.83,0,0,1,0-91.42Z"/></svg>