<svg id="katman_1" data-name="katman 1" xmlns="http://www.w3.org/2000/svg" viewBox="0 0 425 425"><defs><style>.cls-1{fill:#2a4173;}.cls-2{fill:#2b4271;stroke:#2b4271;stroke-miterlimit:10;}</style></defs><path class="cls-1" d="M212.5,419.71C97.69,419.71,4.29,326.31,4.29,211.5S97.69,3.29,212.5,3.29,420.71,96.69,420.71,211.5,327.31,419.71,212.5,419.71Zm0-402.63C105.3,17.08,18.08,104.3,18.08,211.5S105.3,405.92,212.5,405.92,406.92,318.71,406.92,211.5,319.7,17.08,212.5,17.08Z"/><path class="cls-2" d="M258,190.27a56.36,56.36,0,0,1,40.1,16.59l10.49,10.49c21.43-9.5,38.16-28.54,43.71-51.76a78.07,78.07,0,0,0,.12-36.63,7.78,7.78,0,0,0-13-3.54l-36.9,36.9H262v-40l36.9-36.9a7.78,7.78,0,0,0-3.54-13,78.07,78.07,0,0,0-36.63.12c-29.62,7.08-52.7,32.25-57.42,62.34a70.32,70.32,0,0,0-.87,13.08l44.33,44.38A40.77,40.77,0,0,1,258,190.27Zm28,29.19A39.74,39.74,0,0,0,240.22,212l-57.59-57.15V121.66L114.56,70.25l-34.28,33.8,51.42,68.07h33.23l57.14,57.1A39.74,39.74,0,0,0,229.52,275l62.67,62.72a20,20,0,0,0,28.23,0l28.25-28.26a20,20,0,0,0,0-28.23Zm-83.61,15.22L170.64,203,90.89,282.77A36.14,36.14,0,1,0,142,333.88l63.79-63.79A57,57,0,0,1,202.34,234.68Zm-87.78,88.37a12.86,12.86,0,1,1,12.86-12.86A12.85,12.85,0,0,1,114.56,323.05Z"/></svg>