<svg id="katman_1" data-name="katman 1" xmlns="http://www.w3.org/2000/svg" viewBox="0 0 425 425"><defs><style>.cls-1,.cls-2{fill:#2a4173;}.cls-2{stroke:#2a4173;stroke-miterlimit:10;}</style></defs><path class="cls-1" d="M212.5,419.71C97.69,419.71,4.29,326.31,4.29,211.5S97.69,3.29,212.5,3.29,420.71,96.69,420.71,211.5,327.31,419.71,212.5,419.71Zm0-402.63C105.3,17.08,18.08,104.3,18.08,211.5S105.3,405.92,212.5,405.92,406.92,318.71,406.92,211.5,319.7,17.08,212.5,17.08Z"/><path class="cls-2" d="M182.64,72.73c3.58.56,7.2,1,10.74,1.68,19,4,30.47,15.78,34.67,34.53,3.61,16.16,4.65,32.53.84,48.79-4.17,17.77-13.11,32.62-29.37,41.83-17.11,9.7-34.22,8.67-50.37-2.38-14.23-9.75-22.43-23.84-25.71-40.5-3.88-19.66-3.06-39.24,4.51-58,5-12.31,14.58-19.85,27.32-23.22,4.77-1.26,9.72-1.83,14.59-2.71Z"/><path class="cls-2" d="M180.29,345.31c-25-.2-45.87-1.55-66.25-7-12.15-3.22-23.78-7.66-33.78-15.57-1-.77-1.86-1.64-2.8-2.45a13.14,13.14,0,0,1-5-11.56c.84-14.51.63-29.08,3.17-43.46,2-11.5,5.53-22.35,13.8-31.1C95.21,228.09,102.3,224,110,220.84c11.2-4.59,23-7.21,34.82-9.36a3.34,3.34,0,0,1,2.47.84c6.81,6.3,15,9.2,24.08,10,9.26.79,18.25-.26,26.52-4.82,2.61-1.44,4.87-3.51,7.35-5.19a3.93,3.93,0,0,1,2.49-.8c12.12,2.23,24.14,4.87,35.56,9.67,11,4.61,20.31,11.19,26.25,21.84a62.72,62.72,0,0,1,7.72,25.23c1.26,14.56,1.89,29.18,2.59,43.78a8.14,8.14,0,0,1-1.83,5c-6.24,7.76-14.74,12.36-23.73,16.07-16.73,6.9-34.35,9.83-52.27,11.15C193.44,344.83,184.83,345.09,180.29,345.31Z"/><rect class="cls-2" x="262.07" y="136.17" width="116.86" height="11.57" rx="3.87"/><rect class="cls-2" x="262.07" y="160.15" width="116.86" height="11.57" rx="3.87"/><rect class="cls-2" x="262.07" y="184.13" width="116.86" height="11.57" rx="3.87"/></svg>