<svg id="katman_1" data-name="katman 1" xmlns="http://www.w3.org/2000/svg" viewBox="0 0 425 425"><defs><style>.cls-1,.cls-2{fill:#2a4173;}.cls-2{stroke:#2a4173;stroke-miterlimit:10;}.cls-3{fill:#fff;}</style></defs><path class="cls-1" d="M212.5,419.71C97.69,419.71,4.29,326.31,4.29,211.5S97.69,3.29,212.5,3.29,420.71,96.69,420.71,211.5,327.31,419.71,212.5,419.71Zm0-402.63C105.3,17.08,18.08,104.3,18.08,211.5S105.3,405.92,212.5,405.92,406.92,318.71,406.92,211.5,319.7,17.08,212.5,17.08Z"/><polygon class="cls-2" points="107.9 213.39 113.8 242.91 133.09 223.63 152.38 242.91 158.28 213.39 187.8 207.49 168.51 188.2 187.8 168.91 158.28 163.01 152.38 133.49 133.09 152.78 113.8 133.49 107.9 163.01 78.38 168.91 97.67 188.2 78.38 207.49 107.9 213.39"/><polygon class="cls-3" points="127.12 204.48 112.03 189.39 117.46 183.97 127.12 193.62 151.51 169.23 156.94 174.66 127.12 204.48"/><polygon class="cls-2" points="278.8 152.78 349.3 154.71 227.75 357.39 159.55 355.47 159.55 352.39 278.8 152.78"/><polygon class="cls-2" points="95.84 258.95 166.84 258.95 193.53 297.24 159.55 355.47 95.84 258.95"/></svg>