<svg id="katman_1" data-name="katman 1" xmlns="http://www.w3.org/2000/svg" viewBox="0 0 425 425"><defs><style>.cls-1,.cls-5{fill:#2a4173;}.cls-2{fill:#fff;}.cls-3{fill:#2b4271;stroke:#2b4271;}.cls-3,.cls-5{stroke-miterlimit:10;}.cls-4{fill:#fefefe;}.cls-5{stroke:#2a4173;}</style></defs><path class="cls-1" d="M212.5,419.71C97.69,419.71,4.29,326.31,4.29,211.5S97.69,3.29,212.5,3.29,420.71,96.69,420.71,211.5,327.31,419.71,212.5,419.71Zm0-402.63C105.3,17.08,18.08,104.3,18.08,211.5S105.3,405.92,212.5,405.92,406.92,318.71,406.92,211.5,319.7,17.08,212.5,17.08Z"/><circle class="cls-2" cx="219.71" cy="116.45" r="13.28"/><path class="cls-3" d="M210.53,91.82c2.66.41,5.34.71,8,1.25,14.13,2.94,22.62,11.71,25.73,25.62,2.68,12,3.45,24.14.62,36.21-3.09,13.2-9.72,24.22-21.79,31-12.7,7.2-25.41,6.43-37.35-1.77-10.6-7.23-16.68-17.7-19.08-30.06-2.91-14.59-2.31-29.12,3.32-43.05,3.67-9.14,10.82-14.73,20.27-17.23,3.54-.94,7.21-1.35,10.82-2Z"/><path class="cls-3" d="M208.79,294.12c-18.58-.15-34-1.15-49.17-5.17-9-2.38-17.64-5.68-25.07-11.55-.72-.57-1.39-1.22-2.08-1.82a9.73,9.73,0,0,1-3.71-8.58c.62-10.76.47-21.58,2.35-32.3,1.51-8.54,4.1-16.6,10.24-23.09a42.71,42.71,0,0,1,15.26-9.92c8.32-3.41,17-5.35,25.84-6.94a2.53,2.53,0,0,1,1.84.61c5.05,4.69,11.1,6.84,17.86,7.41s13.56-.19,19.69-3.57c1.94-1.07,3.61-2.61,5.46-3.85a2.93,2.93,0,0,1,1.85-.6c9,1.65,17.9,3.61,26.38,7.18,8.14,3.43,15.08,8.3,19.48,16.2a46.41,46.41,0,0,1,5.74,18.74c.93,10.8,1.4,21.65,1.92,32.48a6.1,6.1,0,0,1-1.36,3.7c-4.63,5.76-10.94,9.16-17.61,11.92-12.42,5.12-25.49,7.29-38.79,8.27C218.55,293.77,212.16,294,208.79,294.12Z"/><rect class="cls-4" x="151.72" y="248.71" width="9.21" height="42.92"/><rect class="cls-4" x="254.02" y="248.71" width="9.21" height="42.92"/><rect class="cls-3" x="61.05" y="273" width="287.2" height="23.48"/><polygon class="cls-3" points="84.05 306.36 325.74 306.36 325.74 362.53 97.75 362.53 86 350.79 84.05 306.36"/><path class="cls-5" d="M318.85,151.67a3,3,0,0,0-.88,2.14v11.68h11.68a3,3,0,0,0,2.13-.89L361.19,135l-12.72-12.72Zm51.7-32.78-6-6a4.74,4.74,0,0,0-6.75,0l-5.11,5.1,12.73,12.73,5.11-5.11A4.75,4.75,0,0,0,370.55,118.89ZM312,87.5v24h24Zm0,84a8.09,8.09,0,0,1-7.1-4.48,2.06,2.06,0,0,0-1.9-1.22,2,2,0,0,0-1.87,1.15l-1.46,2.88a3.15,3.15,0,0,1-2.67,1.67h-.21a3,3,0,0,1-2.62-2.06L291,160l-2,6a8.11,8.11,0,0,1-7.68,5.53H279a3,3,0,0,1,0-6h2.33a2.1,2.1,0,0,0,2-1.43l3.42-10.24a4.49,4.49,0,0,1,8.53,0l2.6,7.8c3.7-3,10.15-1.82,12.37,2.65a2.24,2.24,0,0,0,1.76,1.19V152.55a6,6,0,0,1,1.77-4.25L336,126.22V117.5H312a6,6,0,0,1-6-6v-24H273a9,9,0,0,0-9,9v78a9,9,0,0,0,9,9h54a9,9,0,0,0,9-9v-3Z"/></svg>