<svg id="katman_1" data-name="katman 1" xmlns="http://www.w3.org/2000/svg" viewBox="0 0 425 425"><defs><style>.cls-1{fill:#2a4173;}.cls-2{fill:#2b4271;stroke:#2b4271;stroke-miterlimit:10;}.cls-3{fill:#fff;}</style></defs><path class="cls-1" d="M212.5,419.71C97.69,419.71,4.29,326.31,4.29,211.5S97.69,3.29,212.5,3.29,420.71,96.69,420.71,211.5,327.31,419.71,212.5,419.71Zm0-402.63C105.3,17.08,18.08,104.3,18.08,211.5S105.3,405.92,212.5,405.92,406.92,318.71,406.92,211.5,319.7,17.08,212.5,17.08Z"/><path class="cls-2" d="M215.55,376.13c-26.44-.22-48.47-1.64-70-7.36-12.83-3.39-25.12-8.09-35.7-16.45-1-.81-2-1.73-3-2.59a13.83,13.83,0,0,1-5.27-12.21c.88-15.32.66-30.73,3.35-46,2.14-12.15,5.83-23.62,14.57-32.86a60.64,60.64,0,0,1,21.73-14.13c11.84-4.85,24.25-7.61,36.78-9.88a3.57,3.57,0,0,1,2.62.87c7.18,6.67,15.8,9.73,25.43,10.55,9.79.85,19.3-.27,28-5.08,2.76-1.53,5.15-3.71,7.78-5.48a4.15,4.15,0,0,1,2.63-.86c12.8,2.35,25.49,5.14,37.56,10.23,11.58,4.87,21.47,11.81,27.73,23.06A66,66,0,0,1,318,294.62c1.33,15.38,2,30.83,2.74,46.25a8.53,8.53,0,0,1-1.94,5.25c-6.6,8.21-15.58,13.05-25.07,17-17.68,7.3-36.29,10.39-55.23,11.78C229.45,375.63,220.35,375.88,215.55,376.13Z"/><path class="cls-2" d="M280.62,159.09s29.79,13.2,63.73-10.19c0,0,13.95-4.52,17.35,25.65,0,0,7.16,36.2-1.51,47.89,0,0-8.3,12.45-21.87,12.45H310s-8.67-18.86-40.73-21.5C269.3,213.39,285.52,188.88,280.62,159.09Z"/><path class="cls-2" d="M141.28,159.09s-29.8,13.2-63.74-10.19c0,0-14-4.52-17.35,25.65,0,0-7.16,36.2,1.51,47.89,0,0,8.3,12.45,21.87,12.45h28.29s8.67-18.86,40.73-21.5C152.59,213.39,136.37,188.88,141.28,159.09Z"/><ellipse class="cls-2" cx="118.85" cy="106.1" rx="39.42" ry="42.8"/><ellipse class="cls-2" cx="300.69" cy="106.1" rx="39.42" ry="42.8"/><ellipse class="cls-2" cx="210.74" cy="171.42" rx="60.15" ry="65.32"/><path class="cls-3" d="M181.7,281h72.07v48.05h12V278a9,9,0,0,0-9-9H178.7a9,9,0,0,0-9,9v51.05h12Zm93.08,53.88H160.68a3,3,0,0,0-3,3v3a12,12,0,0,0,12,12h96.09a12,12,0,0,0,12-12v-3A3.13,3.13,0,0,0,274.78,334.91Z"/><rect class="cls-2" x="208.07" y="340.57" width="19.64" height="3.35" rx="1.68"/><path class="cls-3" d="M327.05,172.3a3.78,3.78,0,0,1,3.78,3.78v7.57a3.79,3.79,0,0,1-3.78,3.79h-3.79V190h20.19a2.53,2.53,0,0,1,0,5h-7.57v2.52h3.79a3.78,3.78,0,0,1,3.78,3.78v7.57a3.79,3.79,0,0,1-3.78,3.79H327.05a3.79,3.79,0,0,1-3.79-3.79v-7.57a3.79,3.79,0,0,1,3.79-3.78h3.78V195H310.65v2.52h3.78a3.79,3.79,0,0,1,3.79,3.78v7.57a3.79,3.79,0,0,1-3.79,3.79H301.82a3.79,3.79,0,0,1-3.79-3.79v-7.57a3.79,3.79,0,0,1,3.79-3.78h3.78V195H298a2.53,2.53,0,0,1,0-5h20.19v-2.52h-3.79a3.79,3.79,0,0,1-3.78-3.79v-7.57a3.78,3.78,0,0,1,3.78-3.78Zm-11.36,5v5h10.1v-5Zm-2.52,30.28v-5H303.08v5Zm15.14-5v5H338.4v-5Z"/><path class="cls-3" d="M75.13,179.26a3.31,3.31,0,0,1,3.31-3.3h6.61a3.3,3.3,0,0,1,3.3,3.3h9.92a3.3,3.3,0,0,1,3.3-3.3h6.61a3.31,3.31,0,0,1,3.31,3.3h1.65a6.62,6.62,0,0,1,6.61,6.61V209a6.61,6.61,0,0,1-6.61,6.61H73.48A6.61,6.61,0,0,1,66.87,209V185.87a6.62,6.62,0,0,1,6.61-6.61Zm31.4,9.92a1.66,1.66,0,0,0-3.31,0v3.3h-3.3a1.66,1.66,0,0,0,0,3.31h3.3v3.3a1.66,1.66,0,1,0,3.31,0v-3.3h3.3a1.66,1.66,0,1,0,0-3.31h-3.3Zm-29.75,6.61H86.7a1.66,1.66,0,0,0,0-3.31H76.78a1.66,1.66,0,0,0,0,3.31Z"/></svg>