<svg id="katman_1" data-name="katman 1" xmlns="http://www.w3.org/2000/svg" viewBox="0 0 425 425"><defs><style>.cls-1{fill:#2a4173;}</style></defs><path class="cls-1" d="M212.5,419.71C97.69,419.71,4.29,326.31,4.29,211.5S97.69,3.29,212.5,3.29,420.71,96.69,420.71,211.5,327.31,419.71,212.5,419.71Zm0-402.63C105.3,17.08,18.08,104.3,18.08,211.5S105.3,405.92,212.5,405.92,406.92,318.71,406.92,211.5,319.7,17.08,212.5,17.08Z"/><path class="cls-1" d="M91.71,214.85s107.56,54.74,116.2-83.55c0,0,20.17,144.54-86.43,248.73C121.48,380,182,248.47,91.71,214.85Z"/><circle class="cls-1" cx="150.57" cy="186.59" r="20.72"/><path class="cls-1" d="M333.26,214.85S225.7,269.59,217.06,131.3c0,0-20.17,144.54,86.43,248.73C303.49,380,243,248.47,333.26,214.85Z"/><circle class="cls-1" cx="270.97" cy="186.59" r="20.72"/><path class="cls-1" d="M259.73,79.45a47.25,47.25,0,1,1-47.24-47.24A47.24,47.24,0,0,1,259.73,79.45Zm-85,7.22,5.86,1.18a4.43,4.43,0,0,0,4-1.22l2.84-2.84A4.35,4.35,0,0,1,194.57,85l1.71,3.41A4.92,4.92,0,0,0,201,91.09a4,4,0,0,0,4-5.22l-1.09-3.67a4.42,4.42,0,0,1,4.24-5.7h.43a7.61,7.61,0,0,0,6.14-3.29l2-3a4.44,4.44,0,0,0-.15-5.11l-3-4a4.43,4.43,0,0,1,2.47-7l3.14-.94a3.87,3.87,0,0,0,3-2.49l3-7.55a38.54,38.54,0,0,0-51.26,36.23,38.11,38.11,0,0,0,.84,7.22Zm73.58,1-2.91.83a2.91,2.91,0,0,1-3.23-1.23l-.37-.57a6.21,6.21,0,0,0-5.1-3,6,6,0,0,0-5.09,3l-1.12,1.75a1.69,1.69,0,0,1-1,.83l-6.84,3.87a7.74,7.74,0,0,0-3.14,9.47l1.18,2.29a7.25,7.25,0,0,0,9.15,3.89l.63-.33a6.47,6.47,0,0,1,5.54.92l.27.21A38.44,38.44,0,0,0,250,87.51a4.93,4.93,0,0,0-1.66.13ZM194.05,100,200,101.5a2.95,2.95,0,1,0,1.44-5.72l-5.91-1.47a2.95,2.95,0,1,0-1.44,5.72Zm14.84-7.27a2.95,2.95,0,1,0,5.72,1.43l1.48-5.9a3,3,0,0,0-5.73-1.44ZM224.61,54.5l-3,5.9a3,3,0,0,0,5.28,2.66l2.95-5.9a3,3,0,1,0-5.28-2.66Z"/></svg>