<svg id="katman_1" data-name="katman 1" xmlns="http://www.w3.org/2000/svg" viewBox="0 0 425 425"><defs><style>.cls-1{fill:#2a4173;}.cls-2{fill:#fff;}.cls-3,.cls-4{fill:none;stroke-miterlimit:10;}.cls-3{stroke:#fff;stroke-width:10px;}.cls-4{stroke:#2b4271;stroke-width:5px;}</style></defs><path class="cls-1" d="M212.5,419.71C97.69,419.71,4.29,326.31,4.29,211.5S97.69,3.29,212.5,3.29,420.71,96.69,420.71,211.5,327.31,419.71,212.5,419.71Zm0-402.63C105.3,17.08,18.08,104.3,18.08,211.5S105.3,405.92,212.5,405.92,406.92,318.71,406.92,211.5,319.7,17.08,212.5,17.08Z"/><circle class="cls-2" cx="204.74" cy="212.29" r="63.8"/><circle class="cls-1" cx="204.74" cy="212.29" r="44.4"/><path class="cls-3" d="M204.74,223A30.91,30.91,0,0,0,173.83,254"/><path class="cls-3" d="M235.66,254A30.91,30.91,0,0,0,204.74,223"/><circle class="cls-3" cx="204.74" cy="201.38" r="17.06"/><path class="cls-1" d="M134.72,208.27a70,70,0,0,0,115.35,56.55l10.47,9.86c-1.66,6,.25,13.19,5.59,18.43l46,45.26c7.38,7.26,18.43,8,24.67,1.7s5.31-17.39-2.09-24.66l-46-45.25c-6-5.88-14.29-7.42-20.57-4.48l-9.81-9.2a70.07,70.07,0,1,0-123.62-48.21Zm132.54,6a62.58,62.58,0,1,1-59.68-65.35A62.57,62.57,0,0,1,267.26,214.29Z"/><rect class="cls-4" x="148.73" y="279.77" width="10.72"/><rect class="cls-4" x="123.17" y="279.77" width="10.72"/><rect class="cls-4" x="277.4" y="171.59" width="10.72" transform="translate(454.35 -111.17) rotate(90)"/><rect class="cls-4" x="277.4" y="146.03" width="10.72" transform="translate(428.79 -136.73) rotate(90)"/><rect class="cls-4" x="92" y="242.82" width="10.72" transform="translate(340.18 145.46) rotate(90)"/><rect class="cls-4" x="92" y="217.26" width="10.72" transform="translate(314.62 119.9) rotate(90)"/><rect class="cls-4" x="92" y="195.11" width="10.72" transform="translate(292.47 97.75) rotate(90)"/><rect class="cls-4" x="92" y="169.55" width="10.72" transform="translate(266.91 72.19) rotate(90)"/><rect class="cls-4" x="92" y="148.49" width="10.72" transform="translate(245.85 51.13) rotate(90)"/><rect class="cls-4" x="118.33" y="110.87" width="10.72" transform="translate(247.38 221.74) rotate(-180)"/><rect class="cls-4" x="143.88" y="110.87" width="10.72" transform="translate(298.49 221.74) rotate(-180)"/><rect class="cls-4" x="226.39" y="110.87" width="10.72" transform="translate(463.5 221.74) rotate(-180)"/><rect class="cls-4" x="251.94" y="110.87" width="10.72" transform="translate(514.61 221.74) rotate(-180)"/><rect class="cls-4" x="166.04" y="110.87" width="10.72" transform="translate(342.8 221.74) rotate(-180)"/><rect class="cls-4" x="190.9" y="110.87" width="10.72" transform="translate(392.52 221.74) rotate(-180)"/><rect class="cls-4" x="211.26" y="110.87" width="10.72" transform="translate(433.24 221.74) rotate(-180)"/><path class="cls-1" d="M97.36,288.59a21,21,0,0,0-21,21h42A21,21,0,0,0,97.36,288.59Z"/><circle class="cls-1" cx="97.36" cy="271.2" r="11.59"/><path class="cls-1" d="M97.36,117a21,21,0,0,0-21,21h42A21,21,0,0,0,97.36,117Z"/><circle class="cls-1" cx="97.36" cy="99.64" r="11.59"/><path class="cls-1" d="M282.76,117a21,21,0,0,0-21,21h42A21,21,0,0,0,282.76,117Z"/><circle class="cls-1" cx="282.76" cy="99.64" r="11.59"/></svg>