<svg id="katman_1" data-name="katman 1" xmlns="http://www.w3.org/2000/svg" viewBox="0 0 425 425"><defs><style>.cls-1,.cls-2{fill:#2a4173;}.cls-2{stroke:#2a4173;stroke-miterlimit:10;}</style></defs><path class="cls-1" d="M212.5,419.71C97.69,419.71,4.29,326.31,4.29,211.5S97.69,3.29,212.5,3.29,420.71,96.69,420.71,211.5,327.31,419.71,212.5,419.71Zm0-402.63C105.3,17.08,18.08,104.3,18.08,211.5S105.3,405.92,212.5,405.92,406.92,318.71,406.92,211.5,319.7,17.08,212.5,17.08Z"/><path class="cls-2" d="M370.74,147.67,230.54,97.48a31.27,31.27,0,0,0-21,0L69.7,147.67a12.22,12.22,0,0,0,0,22.9l29.76,10.67A68.37,68.37,0,0,0,87.29,208a15.88,15.88,0,0,0-9.68,14.61,15.59,15.59,0,0,0,5.92,12.08L71.21,308.57A7.94,7.94,0,0,0,79,317.81h28.87a7.94,7.94,0,0,0,7.83-9.24l-12.32-73.89a16.26,16.26,0,0,0,5.92-12.08,15.62,15.62,0,0,0-6.3-12.35,52.65,52.65,0,0,1,12.36-23.32l94.52,33.84a31.27,31.27,0,0,0,21,0l140.2-50.19a12.14,12.14,0,0,0,8-11.46A12,12,0,0,0,370.74,147.67Zm-134.89,88a42.7,42.7,0,0,1-15.42,2.78,47,47,0,0,1-15.87-2.76l-72-25.76-7.34,70.82c0,20.48,42.2,37,95.22,37,52.12,0,95.21-16.56,95.21-37l-7.33-70.86Z"/></svg>