<svg id="katman_1" data-name="katman 1" xmlns="http://www.w3.org/2000/svg" viewBox="0 0 425 425"><defs><style>.cls-1{fill:#2a4173;}.cls-2,.cls-3,.cls-4,.cls-6{fill:none;stroke-miterlimit:10;}.cls-2,.cls-3,.cls-4{stroke:#2a4173;}.cls-2{stroke-width:9px;}.cls-3{stroke-width:6px;}.cls-4{stroke-width:4px;}.cls-5{fill:#294075;}.cls-6{stroke:#294075;stroke-width:5px;}</style></defs><path class="cls-1" d="M212.5,419.71C97.69,419.71,4.29,326.31,4.29,211.5S97.69,3.29,212.5,3.29,420.71,96.69,420.71,211.5,327.31,419.71,212.5,419.71Zm0-402.63C105.3,17.08,18.08,104.3,18.08,211.5S105.3,405.92,212.5,405.92,406.92,318.71,406.92,211.5,319.7,17.08,212.5,17.08Z"/><rect class="cls-2" x="82.9" y="100.22" width="257.58" height="238.03" rx="12"/><rect class="cls-3" x="119.19" y="77.18" width="23.38" height="45.37" rx="9.45"/><rect class="cls-3" x="171.19" y="77.18" width="23.38" height="45.37" rx="9.45"/><rect class="cls-3" x="223.55" y="77.18" width="23.38" height="45.37" rx="9.45"/><rect class="cls-3" x="276.54" y="77.18" width="23.38" height="45.37" rx="9.45"/><line class="cls-4" x1="82.9" y1="140.85" x2="340.48" y2="140.85"/><path class="cls-5" d="M130.69,267.24l13.84-4c.14.44.28.89.41,1.34a78,78,0,0,0,5.35,12L139.5,284.7a81.79,81.79,0,0,1-7.85-14.86C131.34,269,131,268.1,130.69,267.24Z"/><path class="cls-5" d="M187.32,308.47a69.36,69.36,0,0,1-13.09-6.56l-5.75,9.27a80,80,0,0,0,16.87,6.65Z"/><path class="cls-5" d="M166.3,295.94A72,72,0,0,1,156,285.22c-.1-.12-.19-.25-.28-.37l-10.23,7.72c.32.37.63.76,1,1.13a81.84,81.84,0,0,0,13.66,12.23Z"/><path class="cls-5" d="M211.74,313.67a73.05,73.05,0,0,1-14.94-2.25L195,319.8h.05a77.12,77.12,0,0,0,17.57.61Z"/><path class="cls-5" d="M287.3,238.12c-.14-2.34-.13-4.69-.39-7l-1-7c-.52-2.29-1.14-4.56-1.71-6.83a24.26,24.26,0,0,0-1.09-3.35l-1.2-3.31a80.74,80.74,0,0,0-138.51-20.92c-11.93,14.7-17.91,33.82-17.39,52.6.17,2.35.15,4.72.47,7.05l1.08,7,.37,1.4,14.26-4.12,0-.25c-.17-1.93-.39-3.83-.63-5.73s-.09-3.83-.17-5.74a40.54,40.54,0,0,1,.31-5.72l.23-2.85.54-2.8a37.36,37.36,0,0,1,1.17-5.56l.76-2.73.37-1.36c.16-.45.35-.88.52-1.33a65.59,65.59,0,0,1,11-19.64,67.92,67.92,0,0,1,82.5-18.5A68.29,68.29,0,0,1,258,194.93a26.38,26.38,0,0,1,2.11,2.12l1.95,2.29,2,2.29c.57.82,1.15,1.65,1.75,2.45l1.81,2.45a29.89,29.89,0,0,1,1.6,2.58,48.33,48.33,0,0,1,3,5.35,74.21,74.21,0,0,1,7.2,23.86,64.1,64.1,0,0,1,.66,12.86,79.87,79.87,0,0,1-1.47,13.07l0,.28a2.36,2.36,0,0,0,4.55,1.23A78,78,0,0,0,287.3,238.12Z"/><path class="cls-5" d="M248.18,307l-.12.05a86.52,86.52,0,0,1-26.37,6.46l.75,5.53a79.83,79.83,0,0,0,26.49-10.59.82.82,0,0,0-.75-1.45Z"/><polygon class="cls-5" points="270.12 255.07 272.67 284.53 296.91 267.59 270.12 255.07"/><polyline class="cls-6" points="208.68 196.94 208.68 245.53 235.1 276.22"/></svg>