<svg id="katman_1" data-name="katman 1" xmlns="http://www.w3.org/2000/svg" viewBox="0 0 425 425"><defs><style>.cls-1{fill:#2a4173;}.cls-2{fill:#2b4271;stroke:#2b4271;stroke-miterlimit:10;}</style></defs><path class="cls-1" d="M212.5,419.71C97.69,419.71,4.29,326.31,4.29,211.5S97.69,3.29,212.5,3.29,420.71,96.69,420.71,211.5,327.31,419.71,212.5,419.71Zm0-402.63C105.3,17.08,18.08,104.3,18.08,211.5S105.3,405.92,212.5,405.92,406.92,318.71,406.92,211.5,319.7,17.08,212.5,17.08Z"/><path class="cls-2" d="M376.91,144.62c7.54,4.44,10.89,14.5,6,22.45a15.71,15.71,0,0,1-22,6l-141-77.64L79.79,173.05c-8,4.9-18,1.55-22.45-6a16.52,16.52,0,0,1,6.41-22.45L212.35,62.1a16.42,16.42,0,0,1,16,0ZM199.24,163.2a20.94,20.94,0,0,1,20.64-20.64,20.64,20.64,0,0,1,0,41.27A20.93,20.93,0,0,1,199.24,163.2Zm-90.79,49.52a20.93,20.93,0,0,1,20.63-20.63,20.64,20.64,0,1,1,0,41.27,20.94,20.94,0,0,1-20.63-20.64Zm222.86,0a20.34,20.34,0,0,1-20.64,20.64,20.64,20.64,0,0,1,0-41.27A20.34,20.34,0,0,1,331.31,212.72Zm-159,100.8L158,287.78v19.86a16.2,16.2,0,0,1-16.5,16.51H116.7a16.8,16.8,0,0,1-16.51-16.51V287.78L86.8,313.52A12.38,12.38,0,0,1,65,301.76L84.53,265.5a45.43,45.43,0,0,1,40-23.89H134.6a45.42,45.42,0,0,1,23.42,6.5L175.31,216c7.94-14.7,23.31-24.35,40-24.35H225.4c16.66,0,32,9.65,40,24.35l17.28,32.14a45.45,45.45,0,0,1,23.42-6.5h10.11a45.5,45.5,0,0,1,40,23.89l19.5,36.26a12.37,12.37,0,1,1-21.77,11.76l-14.35-25.74v19.86a16.2,16.2,0,0,1-16.5,16.51H298.29a16.79,16.79,0,0,1-16.5-16.51V287.78l-13.42,25.74a12.38,12.38,0,0,1-16.76,5c-6.45-3.25-8.26-10.73-5-16.77l18.73-34.82a10.64,10.64,0,0,1-2.22-2.94l-14.34-25.74v28.11a16.2,16.2,0,0,1-16.51,16.51H207.5A16.8,16.8,0,0,1,191,266.37V238.26L177.58,264c-1,1.13-1.34,2.11-2.22,2.94l18.73,34.82a12.38,12.38,0,1,1-21.78,11.76Z"/></svg>