<svg id="katman_1" data-name="katman 1" xmlns="http://www.w3.org/2000/svg" viewBox="0 0 425 425"><defs><style>.cls-1,.cls-2{fill:#2a4173;}.cls-2{stroke:#2a4173;stroke-miterlimit:10;}</style></defs><path class="cls-1" d="M212.5,419.71C97.69,419.71,4.29,326.31,4.29,211.5S97.69,3.29,212.5,3.29,420.71,96.69,420.71,211.5,327.31,419.71,212.5,419.71Zm0-402.63C105.3,17.08,18.08,104.3,18.08,211.5S105.3,405.92,212.5,405.92,406.92,318.71,406.92,211.5,319.7,17.08,212.5,17.08Z"/><path class="cls-2" d="M86.72,104.59a17.48,17.48,0,0,1,17.47-17.48H209.05a17.48,17.48,0,0,1,0,35v93.28a96.3,96.3,0,0,0-9.4,93.94,52.42,52.42,0,0,1-95.46-29.93V122.06a17.47,17.47,0,0,1-17.47-17.47Zm52.42,69.9h35V122.06h-35Zm227.19,96.12A78.64,78.64,0,1,1,287.69,192,78.65,78.65,0,0,1,366.33,270.61ZM312.1,247,279,280.11l-15.67-15.67a8.73,8.73,0,0,0-12.34,12.34l21.84,21.85a8.67,8.67,0,0,0,12.34,0l39.32-39.32A8.73,8.73,0,0,0,312.1,247Z"/></svg>