<svg id="katman_1" data-name="katman 1" xmlns="http://www.w3.org/2000/svg" viewBox="0 0 425 425"><defs><style>.cls-1,.cls-2{fill:#2a4173;}.cls-2{stroke:#2a4173;stroke-miterlimit:10;}.cls-3{fill:#c4c5c6;}</style></defs><path class="cls-1" d="M212.5,419.71C97.69,419.71,4.29,326.31,4.29,211.5S97.69,3.29,212.5,3.29,420.71,96.69,420.71,211.5,327.31,419.71,212.5,419.71Zm0-402.63C105.3,17.08,18.08,104.3,18.08,211.5S105.3,405.92,212.5,405.92,406.92,318.71,406.92,211.5,319.7,17.08,212.5,17.08Z"/><path class="cls-2" d="M316.21,168.57c.08-.61.15-1.21.23-1.81s.12-1,.17-1.47q.18-1.59.33-3.18l.09-1c.07-.81.13-1.63.19-2.44,0-.36,0-.71.08-1.07.05-.82.09-1.64.13-2.45,0-.3,0-.59.05-.88q.13-3.39.09-6.71c0-.14,0-.28,0-.42,0-1,0-1.95-.09-2.92a2.62,2.62,0,0,0,0-.28c.09-2.86.13-5.65.13-8.33,0-24.25-14.35-49.28-44.58-49.28h-.17c-5.32-.8-11.22-.22-17.74.8-16.77.89-34.42,11.76-36.65,12.15-2.23-.39-19.88-11.26-36.65-12.15-6.52-1-12.42-1.6-17.73-.8h-.18c-30.23,0-44.58,25-44.58,49.28,0,2.68,0,5.47.13,8.33a2.62,2.62,0,0,0,0,.28c-.05,1-.08,1.94-.09,2.92,0,.14,0,.28,0,.42q0,3.32.1,6.71c0,.29,0,.58,0,.88,0,.81.08,1.63.14,2.45,0,.36,0,.71.07,1.07.06.81.12,1.63.2,2.44,0,.32.05.65.08,1q.15,1.59.33,3.18c0,.49.12,1,.17,1.47s.15,1.2.23,1.81l.24,1.82c.07.45.13.91.2,1.37l.18,1.29c6.87,71.53,30.46,166,55.88,166h.26a4.87,4.87,0,0,0,.54,0h.3a5.42,5.42,0,0,0,.58-.06H179l.1,0a5.73,5.73,0,0,0,.69-.16l.19-.05a8.86,8.86,0,0,0,.85-.34l.12-.06.69-.39.28-.19c.18-.12.35-.25.52-.38l.3-.25c.17-.15.33-.3.5-.47l.27-.26c.21-.23.42-.47.62-.72l.12-.13c.24-.31.47-.63.7-1,.08-.11.15-.23.22-.35s.32-.5.47-.77a1.08,1.08,0,0,0,.11-.18,1.74,1.74,0,0,0,.1-.19,26.19,26.19,0,0,0,1.35-2.85,36,36,0,0,0,2.42-16.27c-.2-2.66-.31-5.39-.31-8.16,0-30.71,13-55.69,29.13-56.66,16.17,1,29.13,26,29.13,56.66,0,2.77-.11,5.5-.31,8.16a36,36,0,0,0,2.42,16.27A26.19,26.19,0,0,0,251,333a1.74,1.74,0,0,0,.1.19,1.08,1.08,0,0,0,.11.18c.15.27.31.53.47.77l.22.35c.23.34.46.66.7,1l.12.13c.21.25.41.49.62.72l.27.26c.17.17.33.32.5.47l.3.25c.17.13.34.26.52.38l.28.19q.34.21.69.39l.12.06a8.86,8.86,0,0,0,.85.34l.19.05a5.47,5.47,0,0,0,.7.16l.09,0H258a5.23,5.23,0,0,0,.57.06h.3a4.87,4.87,0,0,0,.54,0h.26c25.42,0,49-94.42,55.88-165.95l.18-1.29c.07-.46.13-.92.2-1.37Z"/><path class="cls-3" d="M317.59,166.23s-.37.58-1.09,1.64c.21-.55.42-1.09.57-1.64Z"/><path class="cls-3" d="M131.52,261.15c-3.12-.18-6.44.86-9.57,1.11-3.54.28-7.08.72-10.61,1.08-7,.69-15.5,1.35-25.17,1.88-4.83.24-10,.4-15.29.32A88.73,88.73,0,0,1,55,264.15c-.49-.11-1-.24-1.42-.37l.41-.4a77.88,77.88,0,0,0-12.39,11,17.86,17.86,0,0,0,5,2.66,31.81,31.81,0,0,0,5.74,1.38,88.83,88.83,0,0,0,18.83.42c5.73-.37,11.06-1,16-1.63,10-1.28,18.47-3,25.48-4.31s12.45-2.69,16.17-3.54c1.82-.42,4-.27,5.15-1.82a3,3,0,0,0,.3-.46C135.57,264.87,134.2,261.31,131.52,261.15Z"/><path class="cls-3" d="M380.83,175.14l-.08-.66-.05-.29-.08-.53A12.36,12.36,0,0,0,375,166a24.07,24.07,0,0,0-5.79-2.67c-7.21-2.17-13.84-2.54-20.74-2.74s-13.82.13-20.93.6c-14.21.89-29,2.89-44.12,5.37s-30.69,5.52-46.34,9.18-31.5,7.55-47.16,12.11-31.26,9.41-46.49,14.61-30,11-44.18,17a315.13,315.13,0,0,0-40.11,20.2C56,241.57,53,243.6,50,245.83a51.49,51.49,0,0,0-8.68,8,20.76,20.76,0,0,0-3.89,6.79,13,13,0,0,0-.48,6.25l.13.58c0-.12.31,1.29.23.9l.14.41c.1.27.2.55.32.81a11.57,11.57,0,0,0,1.7,2.74,15.5,15.5,0,0,0,2.13,2,77.88,77.88,0,0,1,12.39-11,48,48,0,0,1,5.55-4.29c2.52-1.7,5.25-3.36,8.12-5,11.54-6.42,24.87-12,38.67-17.52s28.47-10.63,43.43-15.55S180,211.34,195.42,207s30.86-8.67,46.18-12.4,30.43-7.19,45.1-10.18,28.93-5.32,42.39-7c6.72-.82,13.26-1.43,19.48-1.65s12.28-.11,16.8.91a12.89,12.89,0,0,1,2.46.81c-.36-.18,8.55,2,12.38,3.3-.07.2-.13.41-.2.6a14.13,14.13,0,0,0,.85-3.79c0-.35.05-.66.05-1.06S380.87,175.58,380.83,175.14ZM51.22,262.85c-.31-.2-.36-.31,0,0Z"/><path class="cls-3" d="M362.6,197.32c4.54-2.6,9.45-5.2,14.21-10.65a18.78,18.78,0,0,0,3.2-5.36c.07-.19.13-.4.2-.6-3.83-1.31-12.74-3.48-12.38-3.3a6.52,6.52,0,0,1-.85,1.66c-2.24,3.17-6.3,6.4-10.06,9a224.69,224.69,0,0,1-21.47,12.61,168.38,168.38,0,0,1-17,8.2c-2.39,1-4,5-.36,5.74,1.11.23,3.76-1.16,4.82-1.49,3.65-1.14,9-2.81,15.72-5.31A180.17,180.17,0,0,0,362.6,197.32Z"/><path class="cls-3" d="M380.74,178.44a.53.53,0,0,0,0-.12.68.68,0,0,0-.42-.27c-4.28-1.35-8.66-2.71-13.07-3.71a62.37,62.37,0,0,0-13.49-1.41c-1.72,0-3.44,0-5.16.08-6.22.22-12.76.82-19.48,1.65-13.46,1.72-27.72,4.12-42.39,7.05s-29.78,6.46-45.1,10.18-30.75,8.07-46.18,12.4-30.73,9.08-45.65,14.09-29.57,10-43.43,15.55S79.21,245,67.67,251.45c-2.87,1.59-5.6,3.25-8.12,4.95A49.1,49.1,0,0,0,54,260.7c-.69.46-1.65,1.16-2.84,2.1l.06.05-.07,0a90.79,90.79,0,0,0-9.54,8.91l-1.29,1.56,1.29,1.12a77.88,77.88,0,0,1,12.39-11,48,48,0,0,1,5.55-4.29c2.52-1.7,5.25-3.36,8.12-5,11.54-6.42,24.87-12,38.67-17.52s28.47-10.63,43.43-15.55S180,211.34,195.42,207s30.86-8.67,46.18-12.4,30.43-7.19,45.1-10.18,28.93-5.32,42.39-7c6.72-.82,13.26-1.43,19.48-1.65s12.28-.11,16.8.91a12.89,12.89,0,0,1,2.46.81,7.77,7.77,0,0,0,1.09.22c1.05.24,2.1.51,3.15.77,2.73.7,5.43,1.48,8.13,2.28a16.48,16.48,0,0,0,.52-2A1,1,0,0,0,380.74,178.44Z"/><path class="cls-3" d="M362.6,197.32c4.54-2.6,9.45-5.2,14.21-10.65a18.78,18.78,0,0,0,3.2-5.36c.07-.19.13-.4.2-.6-3.83-1.31-12.74-3.48-12.38-3.3a6.52,6.52,0,0,1-.85,1.66c-2.24,3.17-6.3,6.4-10.06,9a224.69,224.69,0,0,1-21.47,12.61,168.38,168.38,0,0,1-17,8.2c-2.39,1-4,5-.36,5.74,1.11.23,3.76-1.16,4.82-1.49,3.65-1.14,9-2.81,15.72-5.31A180.17,180.17,0,0,0,362.6,197.32Z"/><path class="cls-3" d="M131.52,261.15c-3.12-.18-6.44.86-9.57,1.11-3.54.28-7.08.72-10.61,1.08-7,.69-15.5,1.35-25.17,1.88-4.83.24-10,.4-15.29.32A88.73,88.73,0,0,1,55,264.15c-.49-.11-1-.24-1.42-.37l.41-.4a77.88,77.88,0,0,0-12.39,11,17.86,17.86,0,0,0,5,2.66,31.81,31.81,0,0,0,5.74,1.38,88.83,88.83,0,0,0,18.83.42c5.73-.37,11.06-1,16-1.63,10-1.28,18.47-3,25.48-4.31s12.45-2.69,16.17-3.54c1.82-.42,4-.27,5.15-1.82a3,3,0,0,0,.3-.46C135.57,264.87,134.2,261.31,131.52,261.15Z"/></svg>