<svg id="katman_1" data-name="katman 1" xmlns="http://www.w3.org/2000/svg" viewBox="0 0 425 425"><defs><style>.cls-1{fill:#2a4173;}.cls-2{fill:#2b4271;}</style></defs><path class="cls-1" d="M212.5,419.71C97.69,419.71,4.29,326.31,4.29,211.5S97.69,3.29,212.5,3.29,420.71,96.69,420.71,211.5,327.31,419.71,212.5,419.71Zm0-402.63C105.3,17.08,18.08,104.3,18.08,211.5S105.3,405.92,212.5,405.92,406.92,318.71,406.92,211.5,319.7,17.08,212.5,17.08Z"/><path class="cls-2" d="M334.62,239.18s-23,17.29-35.39,32.8c-14.5,18.09-32.8,24.87-46.23,11.75s-43.18-43.64-75.67-49c0,0,25,11.29,44.85,31,18.64,18.49,29.91,40.89,29.91,62.71a31.23,31.23,0,0,1-15.87,27.31H285.8S277.87,291.66,334.62,239.18Z"/><circle class="cls-2" cx="272.07" cy="270.15" r="14.88" transform="translate(-81.91 122.85) rotate(-22.2)"/><path class="cls-2" d="M320.57,231.64c5.87-15.28,7.07-30.61,4.22-42.71-10.22,7.08-19.6,19.26-25.47,34.54s-7.07,30.61-4.23,42.72C305.31,259.11,314.69,246.92,320.57,231.64Z"/><path class="cls-2" d="M256.11,202.87c7.28-9.55,12.07-23.41,12.53-39s-3.53-29.65-10.24-39.61c-7.28,9.55-12.07,23.41-12.52,38.95S249.4,192.91,256.11,202.87Z"/><path class="cls-2" d="M290.68,208.31c-1.1-17.11-6-32.26-12.82-42.6-5.48,11.14-8.35,26.78-7.25,43.89s5.95,32.26,12.81,42.6C288.9,241.06,291.78,225.42,290.68,208.31Z"/><path class="cls-2" d="M171.06,181c-9.74-15.87-22.09-28-33.93-34.41.39,13.47,5.57,30,15.31,45.83s22.08,28,33.92,34.41C186,213.34,180.79,196.85,171.06,181Z"/><ellipse class="cls-2" cx="352.08" cy="233.02" rx="6.9" ry="25.08"/><path class="cls-2" d="M325.06,260.36c-4.73,6.9-7.14,14.37-7.16,20.73,5.92-2.31,12-7.26,16.76-14.15s7.14-14.38,7.16-20.73C335.9,248.52,329.79,253.46,325.06,260.36Z"/><path class="cls-2" d="M353.71,172.27a35.46,35.46,0,0,0-20,40.75,35.49,35.49,0,0,0,20-40.75Z"/><path class="cls-2" d="M349,169.75a18.94,18.94,0,0,0-9.72-24.3,19,19,0,0,0,9.72,24.3Z"/><path class="cls-2" d="M327.44,183.5c4.68-6,7.49-14.57,7.24-24s-3.51-17.78-8.51-23.55c-4.68,6-7.49,14.57-7.24,24S322.44,177.73,327.44,183.5Z"/><path class="cls-2" d="M312.94,146.83a30.88,30.88,0,0,0-7.79-40.46,30.88,30.88,0,0,0,7.79,40.46Z"/><path class="cls-2" d="M297.5,167.77c2.64,9.64,7.95,17.51,14.29,22.27,3-7.33,3.55-16.81.9-26.44s-7.95-17.51-14.29-22.28C295.4,148.66,294.85,158.13,297.5,167.77Z"/><path class="cls-2" d="M271.39,137.23c2.88,10.51,8.68,19.1,15.58,24.3,3.29-8,3.88-18.34,1-28.85s-8.68-19.1-15.58-24.3C269.09,116.38,268.5,126.72,271.39,137.23Z"/><path class="cls-2" d="M240,256.16c1.91-17.49-2.75-38-14.32-57s-27.73-32.45-44.16-38.73c-1.91,17.49,2.75,38,14.32,57S223.55,249.88,240,256.16Z"/><path class="cls-2" d="M215.33,119.36c9.47,7.24,20,11.14,29.15,11.49-2.73-8.74-9.23-17.89-18.69-25.14s-20-11.14-29.15-11.49C199.37,103,205.87,112.11,215.33,119.36Z"/><path class="cls-2" d="M133.2,226c14.67,5.35,29.37,6.09,41,2.94-6.84-9.87-18.56-18.76-33.24-24.1s-29.37-6.09-40.95-2.94C106.8,211.72,118.52,220.61,133.2,226Z"/><path class="cls-2" d="M176.66,245.7c-11.48-4.18-23-4.76-32-2.29,5.36,7.72,14.53,14.67,26,18.86s23,4.76,32,2.29C197.32,256.84,188.14,249.89,176.66,245.7Z"/><path class="cls-2" d="M111.47,221.22c-12.33-3.93-24.59-3.8-34.19-.42,5.88,8.31,15.81,15.51,28.14,19.43s24.59,3.8,34.19.42C133.73,232.34,123.8,225.14,111.47,221.22Z"/><path class="cls-2" d="M76.91,184c-3.06-11-9.52-19.93-17.35-25.21-4,8.56-4.94,19.52-1.88,30.55S67.2,209.28,75,214.56C79,206,80,195.05,76.91,184Z"/><path class="cls-2" d="M90.28,151.16a26.6,26.6,0,0,0-3.57-22.49,26,26,0,0,0-11.95,39.15A26.59,26.59,0,0,0,90.28,151.16Z"/><path class="cls-2" d="M131,168.83c-.51-10.75-4.1-20.27-9.41-26.77-4.66,7-7.32,16.8-6.8,27.55s4.1,20.27,9.41,26.77C128.87,189.4,131.53,179.57,131,168.83Z"/><path class="cls-2" d="M110.18,133.47a24.79,24.79,0,0,0,13.15-10.16,26.21,26.21,0,0,0-29.78,10.36A24.81,24.81,0,0,0,110.18,133.47Z"/><path class="cls-2" d="M206.57,82.75c-8-5.26-19.6-8.56-32.41-8.53s-24.35,3.35-32.38,8.65c8.05,5.27,19.59,8.56,32.41,8.54S198.53,88.05,206.57,82.75Z"/><path class="cls-2" d="M129.42,106.83a33.45,33.45,0,0,0,8.36-22.91A34.59,34.59,0,0,0,108,118.53,33.39,33.39,0,0,0,129.42,106.83Z"/><path class="cls-2" d="M109.07,140.32c-8.5,6.86-16.13,18.19-20.64,32.06s-5,27.52-2.19,38.07c8.51-6.86,16.13-18.19,20.65-32.06S111.91,150.88,109.07,140.32Z"/><path class="cls-2" d="M131.64,140.7c5.07-4.59,9.33-11.92,11.47-20.69s1.74-17.23-.64-23.65c-5.07,4.6-9.33,11.93-11.47,20.7S129.26,134.29,131.64,140.7Z"/><path class="cls-2" d="M151.68,96.59c-3.25,10.2-3.27,23.46.71,37s11.17,24.69,19.42,31.5c3.25-10.19,3.27-23.45-.71-37S159.93,103.41,151.68,96.59Z"/><path class="cls-2" d="M168.26,96.59c1.48,11.41,7.51,24.32,17.56,35.68s22.13,18.93,33.26,21.8c-1.48-11.4-7.51-24.31-17.56-35.68S179.39,99.46,168.26,96.59Z"/><path class="cls-2" d="M288.62,116.53a18.42,18.42,0,0,0,10,18.42,18.42,18.42,0,0,0-10-18.42Z"/><path class="cls-2" d="M267.87,114.07A16.81,16.81,0,0,0,251,123a16.83,16.83,0,0,0,16.92-8.93Z"/><path class="cls-2" d="M257.63,254.79a19.93,19.93,0,0,0-8-21.17,19.89,19.89,0,0,0,8,21.17Z"/><path class="cls-2" d="M266.08,247.24a12.32,12.32,0,0,0,9.92,1,12.32,12.32,0,0,0-15.81-9.1A12.29,12.29,0,0,0,266.08,247.24Z"/><path class="cls-2" d="M215,93.93a15.72,15.72,0,0,0,9.86,1.82,16.84,16.84,0,0,0-16.93-8.92A15.71,15.71,0,0,0,215,93.93Z"/><path class="cls-2" d="M238.81,162.81c1-6.15-.22-13.52-3.94-20.45s-9.18-12-14.87-14.58c-1,6.15.22,13.52,3.94,20.45S233.12,160.27,238.81,162.81Z"/><path class="cls-2" d="M268.67,235.36c-.69-7.13-4.26-14.94-10.44-21.52s-13.76-10.63-20.83-11.77c.69,7.13,4.26,14.94,10.44,21.52S261.6,234.22,268.67,235.36Z"/><path class="cls-2" d="M179.27,137.82a27.07,27.07,0,0,0,21.08,22.44,27.07,27.07,0,0,0-21.08-22.44Z"/><path class="cls-2" d="M223.25,181.74c6.79,7.68,14.69,13,21.81,15.31-1.41-7.34-5.73-15.84-12.51-23.52s-14.69-13-21.81-15.31C212.14,165.56,216.46,174.06,223.25,181.74Z"/><path class="cls-2" d="M284.06,109a25.09,25.09,0,0,0,15.24,4.52,26.66,26.66,0,0,0-25.21-16.9A25.06,25.06,0,0,0,284.06,109Z"/><path class="cls-2" d="M259.55,111.71c6-4.14,10.22-9.7,12-15.23-5.8-.32-12.49,1.57-18.53,5.71s-10.21,9.71-12,15.23C246.82,117.75,253.52,115.85,259.55,111.71Z"/><path class="cls-2" d="M298.3,208.31c2.38-4.6,3.37-10.84,2.38-17.45s-3.76-12.3-7.39-16c-2.38,4.6-3.37,10.84-2.38,17.46S294.67,204.61,298.3,208.31Z"/></svg>