<svg id="katman_1" data-name="katman 1" xmlns="http://www.w3.org/2000/svg" viewBox="0 0 425 425"><defs><style>.cls-1{fill:#2a4173;}.cls-2{fill:#c3c4c5;}.cls-3{fill:#2b4271;}.cls-3,.cls-4{stroke:#2b4271;stroke-miterlimit:10;}.cls-4{fill:none;stroke-width:4px;}</style></defs><path class="cls-1" d="M212.5,419.71C97.69,419.71,4.29,326.31,4.29,211.5S97.69,3.29,212.5,3.29,420.71,96.69,420.71,211.5,327.31,419.71,212.5,419.71Zm0-402.63C105.3,17.08,18.08,104.3,18.08,211.5S105.3,405.92,212.5,405.92,406.92,318.71,406.92,211.5,319.7,17.08,212.5,17.08Z"/><path class="cls-2" d="M225.58,187.81c2.14.33,4.3.57,6.41,1,11.33,2.37,18.19,9.45,20.7,20.62,2.16,9.65,2.78,19.42.51,29.13-2.5,10.61-7.83,19.48-17.55,25-10.21,5.79-20.43,5.17-30.06-1.43-8.5-5.81-13.39-14.23-15.36-24.17-2.32-11.74-1.82-23.44,2.7-34.65,3-7.35,8.7-11.85,16.31-13.86,2.83-.76,5.81-1.09,8.71-1.62Z"/><path class="cls-2" d="M224.17,350.56c-14.94-.12-27.37-.95-39.55-4.16-7.25-1.89-14.16-4.57-20.17-9.29-.57-.46-1.11-.94-1.67-1.46a7.83,7.83,0,0,1-3-6.9c.5-8.67.37-17.37,1.89-25.95,1.21-6.87,3.3-13.35,8.24-18.58a34.36,34.36,0,0,1,12.27-8A103,103,0,0,1,203,270.66a2,2,0,0,1,1.47.5,23.41,23.41,0,0,0,14.38,6c5.53.47,10.91-.16,15.84-2.88,1.56-.86,2.9-2.1,4.39-3.1a2.3,2.3,0,0,1,1.49-.48c7.23,1.33,14.4,2.91,21.23,5.78,6.54,2.75,12.12,6.67,15.67,13a37.26,37.26,0,0,1,4.61,15.11c.75,8.69,1.13,17.42,1.55,26.13a4.87,4.87,0,0,1-1.1,3c-3.72,4.64-8.8,7.38-14.16,9.6-10,4.12-20.51,5.87-31.16,6.61C232,350.27,226.89,350.42,224.17,350.56Z"/><path class="cls-2" d="M300.06,210c1.89.29,3.84.5,5.74.94,10.17,2.12,16.27,8.42,18.52,18.44,1.88,8.63,2.48,17.36.44,26.05-2.22,9.5-7,17.42-15.68,22.35-9.14,5.17-18.28,4.62-26.9-1.28-7.6-5.2-12-12.73-13.74-21.63-2.06-10.5-1.62-21,2.42-31,2.64-6.61,7.79-10.61,14.59-12.4,2.55-.68,5.19-.94,7.79-1.44Z"/><path class="cls-2" d="M298.81,355.6c-13.36-.11-24.55-.83-35.38-3.72-6.49-1.72-12.7-4.09-18-8.32-.52-.4-1-.87-1.49-1.3a7,7,0,0,1-2.67-6.18c.44-7.75.33-15.53,1.69-23.21,1.08-6.14,3-11.93,7.37-16.61a30.8,30.8,0,0,1,11-7.14,91.16,91.16,0,0,1,18.59-5,1.77,1.77,0,0,1,1.32.44A20.9,20.9,0,0,0,294,289.91a24.29,24.29,0,0,0,14.16-2.58c1.4-.76,2.6-1.89,3.93-2.77a2.12,2.12,0,0,1,1.33-.43,91.14,91.14,0,0,1,19,5.16c5.86,2.47,10.85,6,14,11.67a33.36,33.36,0,0,1,4.13,13.48c.67,7.77,1,15.57,1.38,23.37a4.25,4.25,0,0,1-1,2.65c-3.33,4.15-7.87,6.61-12.68,8.59-8.93,3.69-18.33,5.25-27.9,5.95C305.83,355.32,301.23,355.45,298.81,355.6Z"/><path class="cls-3" d="M141.33,161.05c2.48.39,5,.66,7.45,1.17,13.22,2.75,21.16,10.95,24.06,24,2.52,11.23,3.23,22.58.59,33.87-2.89,12.34-9.09,22.65-20.38,29-11.88,6.73-23.77,6-34.93-1.67-9.92-6.76-15.61-16.55-17.85-28.11-2.73-13.64-2.16-27.24,3.1-40.27,3.43-8.54,10.12-13.77,19-16.11,3.3-.88,6.74-1.27,10.12-1.89Z"/><path class="cls-3" d="M139.7,350.26c-17.37-.14-31.85-1.07-46-4.83-8.43-2.23-16.5-5.31-23.45-10.81-.67-.53-1.29-1.13-2-1.7a9.08,9.08,0,0,1-3.46-8c.57-10.07.43-20.19,2.2-30.21,1.41-8,3.83-15.53,9.57-21.6a40,40,0,0,1,14.28-9.28c7.78-3.19,15.93-5,24.17-6.49a2.33,2.33,0,0,1,1.71.57c4.72,4.38,10.39,6.4,16.71,6.93s12.68-.18,18.41-3.34c1.82-1,3.38-2.43,5.11-3.6a2.72,2.72,0,0,1,1.73-.56c8.41,1.55,16.75,3.38,24.68,6.72,7.61,3.2,14.1,7.76,18.22,15.15A43.31,43.31,0,0,1,207,296.72c.88,10.1,1.31,20.25,1.8,30.38a5.59,5.59,0,0,1-1.27,3.45c-4.33,5.39-10.23,8.57-16.47,11.15-11.62,4.8-23.84,6.83-36.29,7.74C148.83,349.93,142.85,350.1,139.7,350.26Z"/><polygon class="cls-4" points="167.39 140.85 117.21 140.85 117.21 67.4 315.94 67.4 315.94 137.71 258.28 137.71 258.28 157.44 243.41 137.71 223.48 137.71 213.01 157.44 207.25 137.71 182.89 137.71 168.87 157.44 167.39 140.85"/><line class="cls-4" x1="144.51" y1="88.8" x2="269.24" y2="88.8"/><line class="cls-4" x1="144.51" y1="106.8" x2="283.43" y2="106.8"/><line class="cls-4" x1="144.51" y1="118.33" x2="241.93" y2="118.33"/></svg>