<svg id="katman_1" data-name="katman 1" xmlns="http://www.w3.org/2000/svg" viewBox="0 0 425 425"><defs><style>.cls-1{fill:#2a4173;}.cls-2{fill:#2b4271;}</style></defs><path class="cls-1" d="M212.5,419.71C97.69,419.71,4.29,326.31,4.29,211.5S97.69,3.29,212.5,3.29,420.71,96.69,420.71,211.5,327.31,419.71,212.5,419.71Zm0-402.63C105.3,17.08,18.08,104.3,18.08,211.5S105.3,405.92,212.5,405.92,406.92,318.71,406.92,211.5,319.7,17.08,212.5,17.08Z"/><path class="cls-2" d="M338,242.61H263.18L237.84,268a35.83,35.83,0,0,1-50.68,0l-25.34-25.34H87.05a17.92,17.92,0,0,0-17.92,17.92v53.76a17.92,17.92,0,0,0,17.92,17.92H338a17.92,17.92,0,0,0,17.92-17.92V260.53A17.9,17.9,0,0,0,338,242.61Zm-26.88,58.24a13.44,13.44,0,1,1,13.44-13.44A13.48,13.48,0,0,1,311.07,300.85ZM199.84,255.27a17.89,17.89,0,0,0,25.33,0l71.68-71.68a17.92,17.92,0,0,0-25.34-25.35l-41.09,41.12V63.4a17.92,17.92,0,1,0-35.84,0v136l-41.11-41.1a17.92,17.92,0,0,0-25.34,25.34Z"/></svg>