<svg id="katman_1" data-name="katman 1" xmlns="http://www.w3.org/2000/svg" viewBox="0 0 425 425"><defs><style>.cls-1,.cls-2{fill:#2a4173;}.cls-2{stroke:#2a4173;stroke-miterlimit:10;}</style></defs><path class="cls-1" d="M212.5,419.71C97.69,419.71,4.29,326.31,4.29,211.5S97.69,3.29,212.5,3.29,420.71,96.69,420.71,211.5,327.31,419.71,212.5,419.71Zm0-402.63C105.3,17.08,18.08,104.3,18.08,211.5S105.3,405.92,212.5,405.92,406.92,318.71,406.92,211.5,319.7,17.08,212.5,17.08Z"/><path class="cls-2" d="M179.6,237.43a17.73,17.73,0,0,0-23.4,0L85.07,308.55a18.35,18.35,0,0,0-4.86,12.17,16.06,16.06,0,0,0,16.1,16.1A16.51,16.51,0,0,0,108,332l71.13-71.13a17.13,17.13,0,0,0,.45-23.41Zm4.14-41a20.71,20.71,0,0,1,41.42,0,12.43,12.43,0,0,0,24.85,0,45.56,45.56,0,1,0-91.12,0,12.43,12.43,0,0,0,24.85,0ZM344.79,88.33a16.55,16.55,0,0,0-28.27-11.7l-21,21.88A16.56,16.56,0,0,0,319,121.93l21.42-21.42C343.65,97.28,344.79,93,344.79,88.33Zm-49.7,109c0-29.92-22.21-91.94-90.64-91.94-79.51,0-90.7,78.06-90.7,83,0,9,7.76,16.35,17,16.35,8.6,0,15.14-6.77,16.17-15.3a58.06,58.06,0,0,1,57.56-51c41.65,0,57.57,39.11,57.57,61.91,0,30-19.79,50.81-24,55l-8.71,8.71V271a33.19,33.19,0,0,1-27.22,32.6c-7.78,1.43-14.2,8.47-14.2,16.39a16.65,16.65,0,0,0,16.59,16.62c2.48,0,52-7.43,57.56-58.35A114.57,114.57,0,0,0,295.09,197.31Z"/></svg>