<svg id="katman_1" data-name="katman 1" xmlns="http://www.w3.org/2000/svg" viewBox="0 0 425 425"><defs><style>.cls-1,.cls-2{fill:#2a4173;}.cls-2{fill-rule:evenodd;}</style></defs><path class="cls-1" d="M212.5,419.71C97.69,419.71,4.29,326.31,4.29,211.5S97.69,3.29,212.5,3.29,420.71,96.69,420.71,211.5,327.31,419.71,212.5,419.71Zm0-402.63C105.3,17.08,18.08,104.3,18.08,211.5S105.3,405.92,212.5,405.92,406.92,318.71,406.92,211.5,319.7,17.08,212.5,17.08Z"/><path class="cls-1" d="M362.51,157.64c-6.32-12.91-23.24-11.78-33.13-5.11-7.95,5.36-11.42,12.4-14.28,18.21.25-4.35,0-20.79-.5-24.08-.53-3.45-.07-8.74-1.61-11.28s-8.9-6.44-11.66-7.59-6.91-3.15-7.21-3.68-.24-6.07-.08-7.29c0-.13,0-.25,0-.36a8.24,8.24,0,0,0,.43-1.2,1.4,1.4,0,0,0,.29-.41,7.84,7.84,0,0,1-.45,1.41,5.76,5.76,0,0,0,.63-1.51l.09-.06a1.19,1.19,0,0,1-.17.3,1.39,1.39,0,0,0,.28-.41,5.89,5.89,0,0,0,1.07-2.12,15.29,15.29,0,0,0,.59-3.55v-.24s0,0,0,0,.06-.24.09-.35a.34.34,0,0,0,.27-.24h0c0,.16,0,.28-.15.31.35,0,.37-.35.34-.67a.14.14,0,0,0,0-.06c0,.09.06.18.09.26a.73.73,0,0,1-.1.13l.11-.08c0,.2,0,.37-.15.41.38,0,.38-.39.35-.73a3.79,3.79,0,0,0,.24-1c0-.32,0-.66,0-1s.24-.88.39-1.48c0-.12.05-.23.08-.35a1.48,1.48,0,0,0,.4-.75,4.66,4.66,0,0,0,.15-1.29.58.58,0,0,0,.18-.11,1.4,1.4,0,0,0,.37-.56,2.47,2.47,0,0,0-.06-1.54,7.34,7.34,0,0,0-.52-1.22.9.9,0,0,0,.06-.22,3.6,3.6,0,0,0,.06-.94,3.69,3.69,0,0,0,.29-.38,1.72,1.72,0,0,0,.28-.86,2.36,2.36,0,0,0,0-.46c0-.09,0-.1,0-.21a1.52,1.52,0,0,0-.06-.2,4.35,4.35,0,0,0-.3-.69,7.5,7.5,0,0,0,.19-2.83,5.08,5.08,0,0,0,.05-1.88,4.15,4.15,0,0,0-.15-.7,1.85,1.85,0,0,0,0-.73,4.24,4.24,0,0,0-.44-1.46s-.06-.11-.09-.17a1.25,1.25,0,0,1,.38.63,1.28,1.28,0,0,0-.43-.81l-.11-.1-.14-.22a3,3,0,0,1,.42.35,2,2,0,0,1,.4.5.84.84,0,0,1,.11.45,1,1,0,0,0-.26-.81,4.54,4.54,0,0,0-.92-.86c-.11-.14-.22-.27-.34-.4h0a6.14,6.14,0,0,1,1,.7,2.38,2.38,0,0,1,.53.68,2,2,0,0,0-.44-.7,6.2,6.2,0,0,0-.92-.76c-.19-.13-.39-.25-.61-.38l-.45-.39c.22.06.44.12.62.19a1.19,1.19,0,0,1,.59.33,1.36,1.36,0,0,0-.72-.56,1.84,1.84,0,0,1,.87.41,1.43,1.43,0,0,0-.78-.57,9.85,9.85,0,0,0-1.36-.46,7.86,7.86,0,0,1,1.26.27,1.5,1.5,0,0,1,.79.41c-.1-.29-.52-.51-1.09-.73l-.57-.19a2.11,2.11,0,0,0-1-.74,6,6,0,0,0-1.28-.4l-.13-.07a6.3,6.3,0,0,1,1.25.26,2.13,2.13,0,0,1,1.1.65c-.11-.36-.74-.76-1.56-1a6.86,6.86,0,0,0-1.21-.27c-.21-.06-.44-.11-.69-.16a17,17,0,0,0-2.58-.33,14.93,14.93,0,0,1,2.31.14,4.75,4.75,0,0,1,1.59.4,5.18,5.18,0,0,0-2.28-.71,13,13,0,0,0-3.33-.13l-.23,0-.06,0c-.12,0-.24,0-.35,0l-.33,0-.38.15h0l-.55,0,.65-.21c-.24,0-.58.11-1,.21h-.25l.53-.18a7.36,7.36,0,0,0,.79-.32l-.79.22-1.21.3-.74.06.33-.09,1.15-.33a5.86,5.86,0,0,1,.75-.18,4.41,4.41,0,0,0-1.07.14c-.49.1-1.09.24-1.75.4a21,21,0,0,0-2,.6,6.77,6.77,0,0,0-1.84.93l-.1.08c-.33.12-.65.25-1,.38a9.72,9.72,0,0,0-1.9,1l-.25.2a1.94,1.94,0,0,0-.36.7,6.45,6.45,0,0,0-1.63,3.46l-.18.38-.13.1-.07.06a.91.91,0,0,0-.17.37,1.48,1.48,0,0,0-.05.36l-.16.32a6,6,0,0,1-.7,1.19,3.32,3.32,0,0,0,.72-.95l.07,0-.12.24-.05,0h0a4.2,4.2,0,0,1-.58,1,3.4,3.4,0,0,0,.73-1c0,.12,0,.24,0,.36s0,0,0,0a2.13,2.13,0,0,1-.26.34,1,1,0,0,0,.21-.2c0,.15-.08.33-.12.53a1.73,1.73,0,0,0-.26.49,4.72,4.72,0,0,0-.2.71,1.59,1.59,0,0,1-.29.4,1,1,0,0,0,.26-.23c0,.11-.05.23-.06.35s-.06.08-.1.1l.09-.06c0,.05,0,.1,0,.14l0,0h0a17.18,17.18,0,0,0-.15,2,1.41,1.41,0,0,0,0,.2,1.71,1.71,0,0,1-.36.71,1,1,0,0,0,.36-.42c0,.09,0,.18,0,.26a1,1,0,0,1-.22.35.72.72,0,0,0,.22-.21,12,12,0,0,1-.18,2.86,1.41,1.41,0,0,0,.13-.32,12.52,12.52,0,0,0,0,1.63,11.12,11.12,0,0,0,1,4.3,4.54,4.54,0,0,1-.34,1.06,2.89,2.89,0,0,0,.42-.94l.06.09a4.78,4.78,0,0,1-.34,1.11,3,3,0,0,0,.4-.92c0,.14,0,.27.05.42l-.06.11.06-.08c0,.11,0,.21,0,.33s0,.36-.05.52a5.27,5.27,0,0,1-.36,1.59,4,4,0,0,0,.5-1.54s0,.09,0,.14a5.22,5.22,0,0,1-.39,1.67,3.56,3.56,0,0,0,.46-1.25,2.56,2.56,0,0,0,0,.27c0,.14-.09.25-.13.34l.13-.22a.09.09,0,0,1,0,0,1.57,1.57,0,0,1,0,.23l-.06.15,0-.07a4.67,4.67,0,0,1-.45,1.46,3.87,3.87,0,0,0,.58-1.45,0,0,0,0,0,0,0s0,.09,0,.13a5.5,5.5,0,0,1-.5,1.65,3.73,3.73,0,0,0,.56-1.32c0,.14.05.28.07.41a2.28,2.28,0,0,1-.19.46,1.62,1.62,0,0,0,.2-.35c0,.15.05.3.07.44l.06.47a.19.19,0,0,1,0,.07.08.08,0,0,0,0,0,3.77,3.77,0,0,1,0,1.14,3.59,3.59,0,0,0,.11-1.48.88.88,0,0,1,0-.16c0,.22.06.43.08.63a.24.24,0,0,1,0,.08s0,0,0-.05a3.37,3.37,0,0,1,0,1.22,2.21,2.21,0,0,0,.14-1,2.21,2.21,0,0,1,.05.25c.06.29.12.58.17.87v.39a2.57,2.57,0,0,1-.28,1.17,1.77,1.77,0,0,0,.38-1,1.87,1.87,0,0,1,0,.25,2.12,2.12,0,0,1-.28.91,1.21,1.21,0,0,0,.3-.56c0,.1,0,.2,0,.29a2.9,2.9,0,0,1-.13.93,1.17,1.17,0,0,1-.31.53,1.17,1.17,0,0,0,.45-.67,3.49,3.49,0,0,0,.14-.92l0,0a3.76,3.76,0,0,1-.09,1.09,1.51,1.51,0,0,1-.49.82,1.28,1.28,0,0,0,.56-.73,1.89,1.89,0,0,1-.11.39,2,2,0,0,0,.3-1.07.14.14,0,0,1,0,.07,4.55,4.55,0,0,1,0,.53.12.12,0,0,0,0,.08v0a1.36,1.36,0,0,1-.22.42,1.14,1.14,0,0,0,.22-.28,1.45,1.45,0,0,1-.11.38,1.21,1.21,0,0,0,.18-.36c.06.16.18.39.26.62a2,2,0,0,1,0,.34,1.39,1.39,0,0,1-.12.54.64.64,0,0,0,.11-.16.75.75,0,0,1-.11.31.72.72,0,0,0,.16-.21.35.35,0,0,0,.11-.1.9.9,0,0,1-.09.29,1,1,0,0,0,.11-.15.7.7,0,0,1-.11.26.62.62,0,0,0,.18-.25c.29-.19.21-.68.12-1.13v-.05a2.49,2.49,0,0,1,.11.29,2.6,2.6,0,0,1,0,.26,1.23,1.23,0,0,1-.12.51.78.78,0,0,0,.11-.18.77.77,0,0,1-.11.36.77.77,0,0,0,.12-.13c.35-.17.27-.69.17-1.16,0-.21,0-.43,0-.67s0-.3,0-.46a.89.89,0,0,0,0-.32s0-.1,0-.15a.56.56,0,0,1,.05.08l.12.53a0,0,0,0,0,0,0v0c.16.69.28,1.18.28,1.18.08,1,.08,3.68-.38,4.29s-1.3,1.61-1.3,1.61-1.54.16-1.61.7-.39,1.15-.77,1.22-7.22,4.92-9.67,5.84-7.75,2.76-8.75,3.91-3.76,8.36-5.14,11.74-1.39,5.37-2.15,7.83-2.61,11.35-3.22,13.5a37.81,37.81,0,0,0-.93,4.15s-1.23,8.13-1.07,11.2a10.46,10.46,0,0,0,.77,4.14,78.71,78.71,0,0,0,8.21,9.06,82,82,0,0,0,9.28,7.13,65.72,65.72,0,0,1-.61,7.14c-.38,1.46-2.46,10.82-2.91,12.05a12.33,12.33,0,0,0-.16,4l3.38.15s-3.38,20.41-3.68,26.55a79.52,79.52,0,0,1-2.31,13.66l1.07,1.69s-1.68,9-2.45,12.28-3.38,2.3-6,12.74-2.69,20.25-2.38,23.17.76,3.84.53,4.22-.53-.54-.76.46a8.15,8.15,0,0,0-.16,2.76,59,59,0,0,0,.23,6.52,31.28,31.28,0,0,1,.31,5.14c0,.7.15,2.39.08,3a12.69,12.69,0,0,0-.39,2.22c0,.93-2.23,4.07-2.68,7.91s-.7,5.6-.7,5.6-1.22,3.14-.61,4.83,4.53,2.23,6.37,2.23,1.76-.46,2.76.23,8.6,2.07,15.35,2.61,10.13-.61,10.13-2.23-.27-.92-.27-1.45.23-2.35-.31-3.08-7.12-4.63-10-7.4a3.28,3.28,0,0,0,1.58.17.31.31,0,0,0,.27-.46,6.64,6.64,0,0,0-.88-1.4,6,6,0,0,0,1.26-.13.3.3,0,0,0,.18-.45,6.61,6.61,0,0,0-2-2,7.15,7.15,0,0,0,3.33-.84c.34-.19,0-.72-.31-.53a7.39,7.39,0,0,1-4.3.73,8.92,8.92,0,0,0-3.21-.6,9.56,9.56,0,0,1-1.18-3.17c-.23-2,.23-2.38-.69-2.76a11.54,11.54,0,0,0-1.22-.47s-1.23-4.83-1-6.59,1.22-6.07,1.38-7.22.23-2.91.23-2.91-.46-2.15,3.38-13.35,4.29-16.58,4.29-16.58,4.38-9.36,7.29-14.73S276.7,267,276.7,267s4.4,1,8.22,1.72a37.73,37.73,0,0,0,2.67-5.63c.31-1.53,1.69-6.14,1.84-7.06a5.86,5.86,0,0,1,.92-2S290,266.6,290,268c0,.49,0,1-.09,1.52h.25a4.43,4.43,0,0,0,2.92-1.46l2.3.07v1.46c0,.62-.61,6-.15,8.6s1.46,6.29,1.22,7.06-1.3,13-.3,17.49a76.93,76.93,0,0,0,3,9.67s-.61.31-.46,2.15.92,13.81.92,14.89v3.83l-.3,1.08a38.87,38.87,0,0,1-.93,4.91c-.69,2.68-.46,3.53-1.23,5.45a9.19,9.19,0,0,0-.69,6.06c.62,2.15,5.53,3.45,7.6,3.07a18.86,18.86,0,0,1,5.14-.62c1.54.16,13,1.69,16.81,1.69s8-.23,8.28-1.61-.31-4.14-1.38-4.6a72.76,72.76,0,0,1-6.75-4c-.6-.48-1.29-1.65-2.25-2.62a3.66,3.66,0,0,0,1.06-.3.31.31,0,0,0,.11-.42,5.25,5.25,0,0,0-2-2.12,8.48,8.48,0,0,0,2.79-.54c.37-.14.21-.73-.16-.59a8.86,8.86,0,0,1-3.91.49c-.58-.24-1.18-.44-1.78-.65a6.33,6.33,0,0,0,1.48-.38c.36-.14.2-.73-.17-.59a6.26,6.26,0,0,1-2.84.39c-.67-1.25-1.4-2.36-1.7-2.8s-.08-3-1.08-3.76a4.37,4.37,0,0,0-2.38-.77,5.66,5.66,0,0,1-.38-2.15c0-1.3.08-2.84,0-3.22a11.15,11.15,0,0,1,0-1.54c0-.61-.15-2.45-.15-2.45s0-1.08.08-1.92a23,23,0,0,1,.07-2.38,4.44,4.44,0,0,0,.23-2.53,10.16,10.16,0,0,0-.3-2.38s-.46-20.79.07-25.55,1.61-9.36,1.46-11.67-.69-6.75-.69-6.75l3-1.91s2.76-19,1.23-24.87a72.39,72.39,0,0,1-2.45-13.2,51.35,51.35,0,0,0-.93-6.44l1.46-2.15s-1.69-9-2-10.59-1.76-6.06-2.07-7.14a33.49,33.49,0,0,1-.31-5.37c0-.69.07-1.53.07-1.53s3.45.07,3.84-.39a8.12,8.12,0,0,0,.84-1.91,16.88,16.88,0,0,0,2.84.53c.47-.07,1.69-1.61,1.69-1.61a11,11,0,0,1,2.46-.31,4.49,4.49,0,0,0,2.91-1.91.55.55,0,0,0-.15-.34c8,.66,15.8,1.42,23.47-2.84C359.19,180.29,368.17,168.85,362.51,157.64Zm-63.69-55.3a3.83,3.83,0,0,1-.12.94,1.37,1.37,0,0,1-.22.47c.11-.43.22-.91.34-1.41Zm0-9.32a2.38,2.38,0,0,1-.12.35l-.08-.14a.32.32,0,0,0,0-.09,1.55,1.55,0,0,0,.07-.23,2.29,2.29,0,0,0,.19-.35,1.77,1.77,0,0,1,0,.23A1.57,1.57,0,0,1,298.78,93Zm.15,4.36s0,0,0,.06a3.16,3.16,0,0,1,0,.76l-.14-.24a2.11,2.11,0,0,0,0-.26.61.61,0,0,0,0-.19Zm.55,2.91a1.77,1.77,0,0,1-.13,1,1.32,1.32,0,0,1-.33.39v-.07a1,1,0,0,0,0-.17,1.26,1.26,0,0,0,.34-.9,2.9,2.9,0,0,0-.22-1.15c-.1-.25-.21-.5-.33-.73l0,0A4.88,4.88,0,0,1,299.48,100.29Zm-.08-4.78a1.58,1.58,0,0,1,0,.58,1.4,1.4,0,0,1-.17.57,1.81,1.81,0,0,1-.18.31.81.81,0,0,0,0-.16s0,0,0-.07a2.48,2.48,0,0,0,.22-.43,1.67,1.67,0,0,0,.06-.63.93.93,0,0,0-.05-.29,1.47,1.47,0,0,0-.08-.3,2.62,2.62,0,0,0-.22-.48h0A2.64,2.64,0,0,1,299.4,95.51Zm-.16-1.16a0,0,0,0,1,0,0l-.13-.21a9,9,0,0,0,.08-1.36v-.39l.11-.27a2.45,2.45,0,0,0,0,.27A7.8,7.8,0,0,1,299.24,94.35Zm.14-3.63v.11a15.3,15.3,0,0,0-.29-1.62s0,0,0,0l0-.1a.14.14,0,0,1,0,.07A4.86,4.86,0,0,1,299.38,90.72ZM298.17,86a5.9,5.9,0,0,1,.91,1.5,3.25,3.25,0,0,1,.24,1,1.84,1.84,0,0,1,0,.34,4.84,4.84,0,0,0-.18-.49,3.28,3.28,0,0,0-.1-.51,5.52,5.52,0,0,0-.95-1.87Zm-.16,18.5c0-.21.09-.44.14-.67a.86.86,0,0,0,.22-.27q0,.24-.09.45c-.11.55-.2,1-.28,1.41,0-.25,0-.5,0-.72C298,104.67,298,104.61,298,104.54Zm-2.43,8.86a12,12,0,0,0,.75-2.71,11.92,11.92,0,0,1-.51,2.47,6.23,6.23,0,0,1-.52,1.17A8.15,8.15,0,0,0,295.58,113.4ZM277,109.65a2.52,2.52,0,0,1-.1-.63,1.24,1.24,0,0,1,.08.32,1.41,1.41,0,0,0-.09-.6.76.76,0,0,1,0-.15c.06.11.11.23.16.33a4,4,0,0,1,.07.68,4.45,4.45,0,0,0,0,.58C277.07,110,277,109.86,277,109.65ZM262.14,344.42a11.73,11.73,0,0,1,2.25,1.26,13.41,13.41,0,0,1-1.74-.53Zm4.12,3.33a4.25,4.25,0,0,1-2.78-1.5l-.21-.27a9.9,9.9,0,0,0,2,.44A6.06,6.06,0,0,1,266.26,347.75Zm.52-1.92a6.21,6.21,0,0,1-1.22,0,12.45,12.45,0,0,0-4-2.32.22.22,0,0,0-.05-.08,21.13,21.13,0,0,0,2.61.41A6.37,6.37,0,0,1,266.78,345.83Zm55.07-6.6a5.49,5.49,0,0,1,2.55,2.16,2.83,2.83,0,0,1-1.16.1l-.19-.15a31.42,31.42,0,0,1-3.2-2.38A15,15,0,0,0,321.85,339.23Zm-6.36-164.5.35-.48a15.54,15.54,0,0,0,.19,2.21C315.83,175.89,315.65,175.31,315.49,174.73Zm46.3-12.18-3.7,2.06,0-.05-.71-1.17,0,0h0l4.07-2.25A9.9,9.9,0,0,1,361.79,162.55Zm-3.54,6.52,0,0,0,0,1.5-.81.06,0,0,.06.65,1.15,0,.05-.05,0-1.51.81-.05,0v-.05Zm-9.78,7.43v-.05l1.2-.64.06,0,0,.06,1,1.73,0,.06-.06,0-1.19.65-.05,0v0Zm-4.58,2.55v0l1.2-.7.09,0,1,1.78,0,0-.05,0-1.19.6-.05,0v-.05Zm-4.58,2.5,0-.08,1.19-.65.05,0,0,.05,1,1.78,0,.06h0l-1.2.69h-.05v0Zm-13.66-4.71,0-.06h0l1.82-1,0,0v0l.71,1.12,0,.05-.06,0-1.81,1-.06,0,0,0Zm-2.74-4.59,0-.05.05,0,1.82-1h.05v.05l.7,1.16,0,0h0l-1.83,1-.06,0v-.05Zm-2.71-4.66,0-.06h0l1.83-1v0l0,0,.7,1.16,0,.05-.06,0-1.82,1h0v0Zm9.29-5.67,0,.06,0,0-1.2.65,0,0,0-.05-.66-1.15,0-.05h.05l1.2-.7.05,0v.05Zm4.59-2.5,0,.05h0l-1.21.7h0l0-.06-.66-1.15,0-.05h.05l1.2-.7h0v0Zm4.57-2.55,0,.06-.05,0-1.19.65-.06,0,0,0-.66-1.15,0-.05,0,0,1.2-.65,0,0v0Zm10.07-3.52,0,.05-.05,0-1.2.65-.05,0,0-.05-.66-1.15,0,0,0,0,1.19-.65.06,0v.05Zm3.64,2.08,0,.06h0l-1.51.85-.06,0v0l-.7-1.16,0,0,.06,0,1.5-.81.06,0v0Zm2.72,4.63,0,.05,0,0-1.51.81-.06,0v0l-.7-1.16,0-.05h0l1.52-.85.05,0v.05ZM347.57,175l0-.05h0l1.2-.69.06,0,0,0,.66,1.15,0,.05-.05,0-1.2.65-.05,0v0ZM343,177.52l0-.05.05,0,1.2-.65.05,0,0,.06L345,178l0,0-.05,0-1.2.64-.05,0v0Zm-15.22-1.81,0-.06,0,0L329,175l0,0,0,.05.65,1.15,0,.05-.05,0-1.19.6,0,0v-.05Zm-5.44-9.3,0,0h0l1.21-.69.05,0,0,.06.65,1.19h.05l-.06,0-1.19.65-.06,0v-.05Zm6.54-2.07,0,.06h0l-1.21.69-.08,0-.65-1.19-.05,0,.06,0,1.2-.69h0v0Zm4.58-2.54,0,0-.05,0-1.19.65-.06,0,0-.06-.66-1.15,0-.05.05,0,1.2-.64.05,0v0Zm4.59-2.55,0,.05-.06,0-1.19.64-.05,0,0-.05-.65-1.15,0-.06.05,0,1.19-.65.06,0v0Zm10-3.49h.05l-.06,0-1.19.65-.05,0v0l-.71-1.16,0-.06h0l1.21-.69,0,0v0Zm6.21,13.44,0,0h.05l1.2-.7.05,0,0,0,.65,1.2h0l0,0-1.2.65,0,0v0ZM339,177.65l0-.05h0l1.21-.7.05,0,0,.05.65,1.2h0l0,0-1.2.65,0,0v-.05Zm-7.91.26,0-.06.06,0,1.18-.6.05,0,0,.06.67,1.1,0,.06-.05,0-1.2.65-.05,0v0Zm-5.45-9.25,0,0h0l1.2-.69.06,0,0,.05.64,1.2h0l-.05,0-1.19.64-.06,0v-.05Zm7.16-4.49,0,.06-.05,0-1.2.65-.05,0,0-.05-.67-1.15,0-.05.05,0,1.19-.65.06,0v0Zm4.58-2.5,0,.05h0l-1.21.69h0l0-.06-.65-1.15,0-.05h0l1.21-.7h0v0Zm4.58-2.55,0,0-.06,0-1.19.65-.06,0,0,0-.65-1.15,0-.05,0,0,1.2-.65.05,0v0Zm10.64,4.37,0,0h0l-1.2.69h0l0-.05-.66-1.15,0,0h0l1.2-.7h.05v.05Zm-13,11.79,0-.06.06,0,1.19-.65.06,0,0,.05.65,1.15,0,0-.06,0-1.19.65-.05,0v0Zm-4,.12,0-.05h.05l1.2-.69.05,0,0,.06.65,1.19h0l-.05,0-1.19.66-.06,0v0ZM329,170.91l0-.06,0,0,1.21-.7,0,0,0,.05.65,1.2H331l-.05,0-1.2.65-.05,0v0Zm3.19-4.32.05,0h-.05l-1.2.7-.1,0-.64-1.2h-.05l.05,0,1.21-.69h0v0Zm4.59-2.55,0,.06-.05,0-1.2.65,0,0,0-.05-.66-1.15,0-.05.05,0,1.2-.65.05,0v0Zm4.59-2.54,0,.05-.05,0-1.2.65-.05,0,0-.06-.66-1.15,0-.05.06,0,1.19-.64.05,0v0Zm3.95-.13,0,0-.05,0-1.2.65-.05,0,0,0-.67-1.16,0-.05.06,0,1.19-.65.05,0v.05Zm6.68,4.49,0,.06-.06,0-1.19.65-.05,0-.05,0-.65-1.15,0-.05.05,0,1.19-.65.06,0v0ZM351,167l0,0h0l1.2-.69.06,0,0,.06.65,1.19H353l-.06,0-1.2.65-.05,0v0ZM336.31,173l0-.06.06,0,1.19-.65.05,0,0,.05.66,1.15,0,0-.05,0-1.19.65-.06,0v0Zm-4,.12,0-.05h0l1.21-.69,0,0,0,.05.65,1.19.05,0-.06,0-1.19.65-.05,0v0Zm-2.72-4.62,0-.05,0,0,1.2-.64.06,0,0,.05.65,1.15,0,.06-.05,0-1.2.65-.05,0v-.05Zm6.54-2.07h0l0,0-1.2.65,0,0,0-.05-.66-1.15,0-.06.06,0,1.19-.65.05,0v0Zm4.58-2.54,0,.05h0l-1.2.69h-.05l0,0-.66-1.15,0-.05h.05l1.2-.69h0v0Zm4-.18,0,.06-.06,0-1.19.65-.05,0,0-.06-.67-1.15,0-.05,0,0,1.2-.65,0,0v0Zm4-.12,0,0-.06,0-1.19.65,0,0,0,0-.66-1.16,0-.05.05,0,1.2-.65,0,0v.05ZM333,170.78l0-.05.05,0,1.19-.66.06,0,0,.06.66,1.14,0,.06,0,0-1.2.65,0,0v-.05Zm7.16-4.49,0,.05-.06,0-1.19.65-.06,0,0-.05-.65-1.15,0-.06.05,0,1.2-.65.05,0v0Zm4-.13,0,.06h0l-1.21.69-.08,0-.65-1.19,0-.06h0l1.2-.69h0v0Zm4-.17,0,0,0,0-1.2.65,0,0,0,0-.66-1.15,0-.06.05,0,1.21-.65,0,0v0Zm-1.51.86,0,.08-1.19.65-.06,0,0-.05-.7-1.16,0-.09,1.19-.64.06,0,0,.05Zm-9,1.38,0,0h0l1.2-.69.06,0v0l.69,1.21h.05l-.06,0-1.19.65-.05,0,0-.06Zm.48,1.34,0,0-1.19.65-.06,0,0,0-.71-1.17v0l.06,0,1.19-.65v0l0,.05.71,1.16Zm1-2.19,0,0h.05l1.2-.7.09,0,.65,1.2h0l-.05,0-1.2.65v0l0-.06Zm1.52-.85v-.05l1.21-.69.08,0,.69,1.21v0l-1.19.69h-.06l0-.05Zm-.57,2.34,1.2-.65v0l.05,0,.7,1.16,0,.06h0l-1.21.69-.05,0,0,0-.7-1.2Zm1.5-.77,0,0,.07,0,1.18-.65.06,0v0l.7,1.16,0,.05-.06,0-1.19.65-.06,0,0-.05Zm1.51-.85,0-.05.05,0,1.2-.65.05,0,0,.06.66,1.15,0,.05-.07,0-1.19.65v.05l0-.06Zm2.58-1.89-1.22.69h0l-.69-1.21h0l.05,0,1.2-.65.05,0,0,0,.65,1.15,0,.06Zm-2.42-.67-1.19.64-.05,0,0-.06-.72-1.16,0-.09,1.2-.64,0,0,0,.06.71,1.16Zm-1.53.75,0,.05-.05,0-1.2.65v0l0-.06-.71-1.16,0-.05.06,0,1.19-.65.05,0,0,.06Zm-3,1.7,0,.06h0l-1.21.69,0,0,0-.06-.69-1.16v-.09l1.24-.64v0l0,0Zm-1.55.85,0,0h0l-1.21.69h0l-.69-1.2h0l.05,0,1.2-.65.05,0,0,.06Zm-1.51.85,0,0h0l-1.21.69h0l-.7-1.2h0l.06,0,1.2-.69h.05l0,.06Zm-1.52.85,0,.05H334l-1.2.69h0l0-.06-.66-1.15,0-.05h0l1.21-.69h0Zm.46.24,0-.05.05,0,1.19-.65.06,0,0,.05.69,1.16v.09l-1.24.64v0l0,0Zm.95,1.49,1.2-.69h0l.69,1.21,0,.05h0l-1.2.7-.05,0,0,0-.66-1.15,0-.05Zm1.5-.81,0-.05h0l1.21-.69h0l0,.05.66,1.16,0,0h-.05l-1.2.69h-.05Zm1.51-.85h0l0,0,1.19-.65.06,0,0,.06.7,1.15v0h0l-1.21.69h0Zm.95,1.49,1.19-.65v0l0,.06.71,1.16,0,0-.06,0-1.19.65-.05,0,0-.06-.66-1.15,0-.05Zm1.49-.77,0,0,.05,0,1.2-.65.06,0,0,0,.66,1.16,0,.05-.06,0-1.19.65-.06,0,0-.06Zm1.52-.85,0-.06h0l1.21-.69.05,0,0,0,.65,1.19h0l-.06,0-1.19.65v0l0-.05Zm1.51-.85v-.05l1.25-.68h0l.69,1.2v.05l-1.2.69h-.05l0-.05Zm1.56-.85,0-.05h0l1.2-.69h.05v0l.7,1.16,0,.05h0l-1.21.7-.08,0Zm1.51-.85h0l.06,0,1.19-.65.05,0,0,0,.65,1.15,0,.05h0l-1.2.69h-.05Zm1.51-.85v0l1.2-.65.05,0,0,.05.71,1.17v0l-1.21.69-.06,0,0-.06Zm1.05-1-1.2.64,0,0v0l-.7-1.17,0,0h0l1.2-.69.06,0,0,.05.65,1.19h0Zm-2.39-.76v0l-1.21.69-.05,0,0-.05-.69-1.21v0l1.19-.65.05,0,0,.05Zm-1-1.49-1.19.65-.06,0v0l-.7-1.16,0-.05h0l1.2-.69,0,0,0,.05.65,1.19h0Zm-2.4-.72-1.21.7-.05,0,0-.05-.69-1.21v0L343,161l.06,0,0,.05.7,1.16Zm-1.55.8,0,.06h-.05l-1.2.69H341l-.69-1.21h0l.05,0,1.2-.65.05,0,0,0Zm-3,1.71v0l-1.21.69h0l0-.06-.7-1.16v0l1.21-.69h.08Zm-1.55.84h0l-.05,0-1.2.65v0l0,0-.71-1.17,0,0h.05l1.2-.69.09,0Zm-3,1.66,0,.06-.06,0-1.2.65-.05,0,0,0-.7-1.16v-.05l.05,0,1.19-.65v0l0,.05Zm-1.51.86,0,.08-1.25.64v.05l0-.06-.69-1.16,0-.05.06,0,1.18-.65.06,0,0,.06ZM330.53,170l1.21-.69.08,0,.7,1.2v.05l-1.24.64v0l0-.05-.71-1.17,0-.05Zm.94,1.54,1.2-.65v-.05l0,.06.7,1.16,0,.05-.05,0-1.2.64-.06,0,0-.06-.65-1.15,0,0Zm2.39.75,0-.05h0l1.21-.69.08,0,.69,1.2v0l-1.24.65v0l0-.06Zm1,1.5,1.19-.66v0l0,.05.7,1.17,0,.05-.06,0-1.19.65-.05,0,0-.06-.66-1.15,0,0Zm3-1.62,0-.06,0,0,1.19-.65.06,0,0,.05.71,1.16,0,.08-1.24.65v0l0,0Zm.95,1.49L340,173h0l.69,1.21,0,.05h0l-1.2.69h-.05l0,0-.66-1.15,0-.05Zm1.51-.81h0l0,0,1.21-.69h.05l0,.05.67,1.15,0,.06h-.05l-1.2.69h0Zm1.51-.85-.05,0,.06,0,1.19-.65.05,0,0,.05.7,1.16v0l-1.25.68h0Zm1.51-.86.06,0,1.19-.65v0l0,0,.71,1.16,0,.05-.05,0-1.2.65,0,0,0,0Zm1.55-.8,0,0,.06,0,1.2-.65,0,0v0l.71,1.15,0,.06-.06,0-1.19.65-.05,0,0-.05Zm1.51-.85,0-.05.05,0,1.2-.64.05,0,0,.05.66,1.15,0,.06,0,0-1.2.65v.05l0-.06Zm1.52-.85v-.09l1.25-.64v0l0,.05.7,1.16,0,.09-1.19.65-.06,0,0-.05Zm1.55-.85,0-.05.05,0,1.2-.65.05,0v0l.69,1.16,0,0-.05,0-1.2.64-.05,0,0,0Zm1.68-3.42-1.21.7h0l0-.06-.69-1.16v0l1.2-.69.09,0,.69,1.2Zm-.94-1.53-1.2.65-.05,0v0l-.7-1.16,0-.06.05,0,1.2-.64.05,0,0,.05.65,1.16,0,0Zm-.89-1.57-1.21.7h0l0-.06-.66-1.15,0,0h0l1.21-.69,0,.05.7,1.16,0,0Zm-1.51.81v0l-1.19.64-.05,0,0,0-.71-1.16v-.05l1.21-.69.08,0Zm-.94-1.49-1.2.65-.05,0v0l-.7-1.16,0-.05.06,0,1.19-.66,0,0,0,.05.66,1.15,0,.06Zm-2.4-.71-1.19.65-.06,0,0,0-.7-1.16,0,0,1.2-.7.08,0,.7,1.2Zm-1.55.8h0l-.05,0-1.19.65-.05,0v0l-.7-1.16,0-.05h.05l1.2-.7.06,0,0,.05Zm-3,1.66v.09l-1.2.65,0,0,0-.06-.7-1.15,0-.09,1.19-.65.05,0,.05.06Zm-1.55.84,0,.06,0,0-1.2.65v0l0-.05-.7-1.16,0,0,.05,0,1.19-.65.06,0,0,0Zm-3,1.71,0,0h0l-1.2.69-.06,0,0-.06-.69-1.2v0l1.23-.64v0l0,.06Zm-1.56.84,0,0h0l-1.2.69h-.05l-.69-1.2h0l0,0,1.2-.65,0,0,0,.06Zm-3,1.7,0,.06h0l-1.21.69h0l0,0-.65-1.15,0-.06h0l1.21-.69h0Zm-1.51.86v0l-1.24.64v0l0-.05-.7-1.16-.05-.05h.06l1.2-.7.09,0Zm-1,1,1.19-.65v0l0,0,.71,1.16,0,.05-.06,0-1.19.65-.06,0,0-.05-.66-1.16,0,0Zm1.78,3.09,1.19-.65.06,0,0,0,.7,1.16v0l-1.2.7-.06,0,0-.05-.69-1.21Zm.94,1.53,1.19-.65v0l0,.05.71,1.16,0,.06-.05,0-1.2.65-.05,0,0-.05-.66-1.15,0-.06Zm.88,1.57,1.21-.69h0l0,.05.65,1.15,0,.05h-.05l-1.2.69h-.05l-.69-1.21h0Zm1.51-.81v0l1.2-.66.06,0,0,.06.7,1.16v0l-1.2.69-.06,0,0-.06Zm.95,1.49,1.19-.65.05,0v0l.69,1.16,0,.05-.06,0-1.19.65-.05,0,0-.05-.66-1.15,0-.06Zm3-1.62v0l1.21-.69h.09l.68,1.21v0l-1.18.65-.07,0,0,0Zm.95,1.49,1.19-.65v0l0,.05.71,1.16,0,.05-.05,0-1.2.65-.05,0,0-.05-.66-1.15,0-.06Zm3-1.62,0-.08,1.2-.65.05,0,0,.06.7,1.16,0,.08-1.23.64v0l0-.06Zm1.55-.84,0-.05.05,0,1.2-.64v0l0,.06.71,1.16,0,0,0,0-1.19.65-.06,0,0-.06Zm1.52-.85,0,0h0l1.21-.7.05,0,0,0,.66,1.15,0,.06-.05,0-1.19.65-.06,0,0-.05Zm1.52-.85,0-.06h0l1.2-.69.09,0,.65,1.2h0l-.05,0-1.2.65v0l0-.05Zm1.51-.86v0l1.25-.68h0l.7,1.2,0,.05h0l-1.21.69h0l0-.06Zm1.56-.84,0-.05h.05l1.2-.69h0v.05l.71,1.16,0,.05h0l-1.2.69h-.05l0,0Zm1.51-.85h0l0,0,1.2-.64,0,0,0,.05.66,1.16,0,.05h-.05l-1.21.69h0Zm1.51-.86,0,0,1.19-.65.05,0,0,.05.7,1.16,0,0-1.19.69-.05,0,0-.06Zm1.36-1.16,0-.05-.7-1.16,0,0,1.19-.69h.09l.7,1.21v0l-1.21.69Zm.3-2.21-1.18.64-.07,0,0,0-.71-1.17,0,0,.06,0,1.19-.65.06,0,0,.05.67,1.15,0,.05ZM351.72,162l-1.19.65,0,0,0-.05-.7-1.16,0-.09,1.2-.65.05,0,0,0,.7,1.16Zm-.92-1.58-1.21.7,0,0-.69-1.2h-.05l.05,0,1.21-.7h.05l0,0,.66,1.16,0,.05Zm-.9-1.52-1.19.64-.06,0,0-.05-.65-1.15,0-.06.05,0,1.2-.65v0l0,0,.7,1.16,0,.05Zm-1.49.77,0,.08-1.2.65-.05,0,0-.06-.71-1.16,0-.09,1.19-.65.06,0,0,0Zm-1-1.5-1.21.7h0l-.69-1.21h0l.06,0,1.2-.69h0l0,.05.66,1.15,0,.05ZM346,159l0,0h-.05l-1.2.69h-.05l0-.05-.66-1.16,0,0h0l1.21-.69,0,.05Zm-.9-1.48-1.24.64v0l0-.06-.7-1.16v-.08l1.2-.65.05,0,0,0,.7,1.17Zm-1.54.76,0,0-.05,0-1.19.65-.06,0v0l-.7-1.16,0-.06.05,0,1.19-.65.06,0,0,.05Zm-3,1.7V160l-1.2.69-.06,0,0-.05-.69-1.2v-.05l1.19-.65.06,0,0,.05Zm-1.56.84,0,.06h0l-1.2.69h0l-.7-1.2h0l.05,0,1.2-.65.05,0,0,.06Zm-3,1.71v0l-1.21.7h0l0-.06L333.9,162v0l1.25-.68h0Zm-1.56.84h0l-.05,0-1.2.64v0l0,0-.7-1.17,0,0h0l1.2-.69.09,0Zm-3,1.66,0,.06-.05,0-1.2.65-.05,0,0-.06-.7-1.16,0-.08,1.24-.65v0l0,.05Zm-1.56.85,0,0-.05,0-1.2.65v.05l0-.06-.7-1.16,0-.05.05,0,1.2-.65.05,0,0,.06Zm-1.51.85,0,.05,0,0-1.19.65-.06,0v0l-.7-1.16,0-.06.06,0,1.2-.65.05,0,0,.06Zm-1.51.85,0,.06,0,0-1.2.65,0,0,0-.05-.65-1.15,0-.06.05,0,1.2-.65v0l0,0Zm-.17,2.57,1.2-.65.06,0,0,0,.7,1.16v.05l-1.24.68v0l0-.05-.7-1.21Zm.95,1.54,1.19-.66.06,0v0l.7,1.15,0,.06-.05,0-1.2.65-.05,0,0-.06-.66-1.15,0,0Zm.88,1.56,1.21-.69h0l0,.05.66,1.15,0,.05h-.05l-1.2.7h-.05l-.69-1.2h0Zm.9,1.52,1.2-.64,0,0,0,.06.69,1.16,0,.08-1.19.65-.05,0,0-.06-.7-1.16Zm.93,1.58,1.2-.69h0v0l.71,1.16,0,0h0l-1.19.65-.1,0-.65-1.15,0,0Zm2.39.76,0-.09,1.19-.65.05,0,0,0,.7,1.16v.09l-1.19.61-.05,0,0-.05Zm1,1.44,1.2-.64h0v0l.71,1.12,0,.05h0l-1.21.69-.08,0-.65-1.19,0-.06Zm1.49-.76h0l.05,0,1.2-.7h.05l0,.06.65,1.15,0,.05h0l-1.2.65h-.05Zm1.52-.85v0l1.19-.66,0,0,0,.06.7,1.16v0l-1.21.69-.05,0,0-.05Zm.94,1.49,1.2-.65,0,0v.05l.7,1.16,0,.05-.06,0-1.18.6,0,0,0,0-.68-1.11,0-.05Zm3-1.62v0l1.19-.7.09,0,.7,1.21v0l-1.2.65-.05,0,0,0Zm1.55-.84,0-.06h0l1.2-.69h.05l.69,1.21,0,.05h0l-1.21.69h0l0,0Zm1.52-.86h-.05l.06,0,1.2-.69h0l0,.05.67,1.15,0,.06h0l-1.21.69h0Zm1.5-.85h0l.06,0,1.19-.65.06,0,0,.06.71,1.16v0h-.06l-1.15.71-.09,0Zm1.51-.81v0l.06,0,1.19-.64v-.05l0,.06.71,1.16,0,.05h0l-1.21.69-.05,0,0-.06Zm1.56-.84,0,0,.06,0,1.19-.65.06,0v0l.7,1.16,0,.06-.05,0-1.2.65-.05,0,0-.05Zm1.52-.85,0-.06.05,0,1.2-.65.05,0,0,.05.65,1.15,0,.06-.06,0-1.19.65v0l0-.05Zm1.51-.86,0-.08,1.24-.64v0l0,.05.7,1.16,0,.08-1.2.65-.05,0,0-.05Zm1.56-.84,0-.05.05,0,1.19-.65.05,0v.05l.7,1.16,0,0,0,0-1.2.64,0,0,0-.06Zm2.55-1.85-1.19.65-.06,0,0,0-.66-1.15,0-.06.05,0,1.2-.65.05,0v0l.7,1.16,0,0Zm-.62-1.74,0-.05-.66-1.15,0-.06,0,0,1.2-.7h0l.7,1.21,0,0h0l-1.2.69Zm.36-2.2-1.2.65-.05,0,0-.06-.7-1.15,0-.09,1.2-.65.05,0,0,.06.7,1.16Zm-.93-1.58-1.21.69h0l-.69-1.2h-.05l.06,0,1.2-.7h0l0,.06.66,1.15,0,.05Zm-.9-1.52-1.19.64-.06,0,0-.06-.65-1.15,0,0,.06,0,1.19-.65v0l0,0,.71,1.16,0,.05Zm-.88-1.57-1.26.68h0l-.69-1.2h-.05l.07,0,1.18-.65.06,0,0,.06.71,1.16Zm-.95-1.53-1.19.64-.06,0v0l-.7-1.16,0-.06h0l1.21-.69.05,0,0,.06.65,1.19h0Zm-.88-1.57-1.21.69-.05,0,0-.05-.66-1.15,0,0,0-.05,1.23-.64v0l0,.05.7,1.16,0,.06Zm-1.51.81v0l-1.25.68h0l-.69-1.2h0l.06,0,1.19-.65.06,0,0,.06Zm-2.44-.73,0,.06-.05,0-1.19.65-.05,0,0-.05-.66-1.15,0,0,.06,0,1.19-.65v0l0,0Zm-.9-1.48h-.05l-1.21.7h0l-.69-1.21h0l.05,0,1.2-.65.05,0,0,0,.7,1.16Zm-1.56.8,0,.06h0l-1.2.69h-.05l-.7-1.21h0l.05,0,1.21-.69h.05l0,.05Zm-1.51.85,0,.06h0l-1.2.69h0l0-.05-.66-1.15,0-.06h0l1.22-.69h0Zm-1.51.85v0l-1.19.65,0,0,0,0-.71-1.16v0l1.21-.7.08,0Zm-1.55.85h0l-.06,0-1.19.65-.06,0v0l-.7-1.16,0-.05h0l1.2-.69.05,0,0,.06Zm-3,1.66v.09l-1.2.65-.06,0,0-.05-.7-1.16,0-.09,1.19-.65.06,0,0,.05ZM335,161l0,.05-.06,0-1.19.65-.05,0v0l-.71-1.16,0,0,.06,0,1.19-.65.06,0,0,0Zm-3,1.7v0l-1.2.7-.05,0,0-.06-.69-1.2v0l1.24-.64v0l0,.05Zm-1.55.84,0,.06-.05,0-1.2.7h0l-.7-1.21h-.05l.06,0,1.19-.65.05,0,0,.05Zm-3,1.7,0,.06h-.05l-1.2.69h-.05l0,0-.66-1.15,0-.06,0,0,1.2-.7h.05Zm-1.52.86v0l-1.24.64v0l0-.05-.7-1.16,0-.05h.05l1.2-.7.09,0Zm-2.6,1.84,1.19-.65.06,0,0,0,.7,1.17v0l-1.25.68v0l0-.05-.69-1.2Zm.93,1.54,1.2-.65,0,0,0,0,.7,1.16,0,.05,0,0-1.2.66,0,0,0-.05-.66-1.16,0,0Zm.89,1.56,1.21-.69h0l0,.05.66,1.15,0,.06H327l-1.2.69h0l-.7-1.2h0Zm.9,1.53,1.19-.65.06,0,0,.06.7,1.16v.08l-1.2.65-.06,0,0,0-.7-1.16Zm.93,1.57,1.21-.69h0v.05l.7,1.15,0,.06h-.05l-1.19.69h-.05l0-.05-.65-1.15,0-.06Zm1.79,3,1.2-.65.09,0,.7,1.16,0,0-1.19.7h0l0-.06-.7-1.15Zm.94,1.53,1.19-.65.06,0v0l.7,1.16,0,.05,0,0-1.2.65-.06,0,0-.06-.65-1.15,0,0Zm.89,1.57,1.2-.69.05,0,0,.06.65,1.19h0l-.06,0-1.18.65v0l0-.06-.7-1.16,0-.05Zm1.5-.81v0l1.21-.69h.08l.69,1.21v0l-1.21.7h0l0-.06Zm.95,1.49,1.2-.65,0,0v0l.7,1.16,0,.06-.06,0-1.2.65-.05,0,0-.05-.66-1.15,0-.06Zm1.49-.76,0-.06.05,0,1.2-.65.05,0,0,.05.66,1.15,0,.06-.06,0-1.19.65v0l0-.06Zm1.52-.86,0-.08,1.19-.61.05,0,0,0,.71,1.12,0,.08-1.19.65-.05,0,0-.06Zm.95,1.49,1.2-.69h.05v0l.7,1.15,0,.06h0l-1.21.69h0l0,0-.66-1.15,0-.05Zm1.51-.8-.06,0,.06,0,1.2-.65,0,0,.05.05.66,1.15,0,.06h0l-1.21.69h0Zm1.49-.81v-.05l1.2-.65.05,0,0,.05.71,1.16v.05l-1.2.64,0,0,0,0Zm1.55-.8,0-.06.05,0,1.2-.65.05,0v0l.7,1.16,0,.05-.06,0-1.19.64-.05,0,0-.06Zm3-1.71,0-.09,1.2-.65,0,0,0,0,.7,1.16v.09l-1.25.64v0l0-.06Zm1.56-.84,0-.05.06,0,1.19-.65v0l0,0,.7,1.16,0,.06-.05,0-1.2.65-.05,0,0-.05Zm3-1.71,0-.05h.05l1.19-.69.1,0,.69,1.2-.05,0-1.2.65v.05l0-.06Zm1.51-.85v0l1.25-.68h0l.69,1.21h.05l-.05,0-1.21.7h0l0-.06Zm1.56-.84,0-.05h0l1.21-.69h0v0l.7,1.17,0,.05h-.06l-1.19.69h0l0,0Zm1.51-.86h0l.05,0,1.2-.65.05,0,0,.05.66,1.15,0,0h0l-1.21.69h0Zm1.51-.85v0l1.21-.65,0,0,0,.05.7,1.16v0L356,172l-.06,0,0,0Zm1.36-1.16,0-.05-.71-1.16v0l1.21-.69.08,0,.7,1.21v0l-1.2.65Zm.3-2.21-1.19.65,0,0V168l-.71-1.16,0,0,.06,0,1.19-.65.05,0,0,.05.66,1.15,0,.05Zm-.61-1.74-.7-1.21h0l.05,0,1.51-.85h.05l.69,1.2h0l0,0-1.52.85Zm.66-2.37-1.51.81-.05,0,0-.06-.66-1.15,0,0,.05,0,1.5-.8v-.05l0,.06.7,1.16,0,.05Zm-.93-1.57-1.51.85v0l0-.05-.69-1.2,0,0,0,0,1.52-.85h0l0,.05.66,1.15,0,.06Zm-1.78-3.1-1.52.86-.05,0,0-.05-.66-1.15,0-.06.06,0,1.46-.82.05,0,0,.05.7,1.16Zm-.94-1.53-1.51.81v0l0,0-.7-1.16,0-.05h0l1.51-.85.05,0,0,.05.66,1.16,0,0ZM351.45,154l-1.51.85h-.05l0,0-.7-1.16v0l1.51-.86.05,0,0,0,.69,1.21Zm-1.86,1h.05l-.05,0-1.2.65v.05l0-.05-.71-1.17,0-.05h.05l1.2-.69.08,0Zm-2.4-.71,0,.05,0,0-1.2.64-.05,0,0-.06-.69-1.2v0l1.24-.64,0-.05,0,.06Zm-.94-1.49-1.2.65v0l0-.05-.7-1.16,0-.06h.05l1.2-.69.08,0,.66,1.19h.05Zm-1.5.81h0l-.05,0-1.2.65-.05,0,0-.06-.66-1.15,0-.06.05,0,1.2-.65.05,0,0,0Zm-1.51.81,0,0,0,0-1.2.65,0,0,0-.05-.66-1.15,0,0,.05,0,1.19-.66v0l0,.06Zm-1.52.85,0,.09-1.23.63v0l0,0-.71-1.17,0,0,.05,0,1.19-.65.07,0,0,.06Zm-1.55.84,0,0-.05,0-1.2.65-.05,0v0l-.7-1.16,0-.06.05,0,1.2-.65.05,0,0,.05Zm-3,1.7v.05l-1.2.69-.05,0,0-.06-.69-1.2v0l1.2-.66.06,0,0,.05Zm-1.56.85,0,.05h-.05l-1.2.7-.05,0-.69-1.2h0l.05,0,1.2-.65.05,0,0,0Zm-3,1.7,0,0-1.2.69h0l0-.05-.7-1.16,0,0,1.2-.69.08,0Zm-1.56.85h0l-.05,0-1.19.65,0,0,0,0-.7-1.16,0-.06,0,0,1.2-.7.06,0,0,0Zm-3,1.65,0,.06-.05,0-1.19.65-.06,0,0-.06-.7-1.16,0-.08,1.24-.64v-.05l0,.05Zm-1.51.86,0,0,0,0-1.2.65v0l0-.05-.7-1.17,0-.05.05,0,1.2-.65.05,0,0,.06Zm-1.57.84.05.05-.06,0-1.19.65-.05,0v0L323,164l0-.06,0,0,1.21-.65,0,0,0,0Zm-1.5.86,0,0-.05,0-1.2.64-.05,0,0-.05-.66-1.15,0-.06.06,0,1.19-.65v0l0,0Zm-2.3,3.73,1.82-1,.05,0,0,.06.66,1.15,0,0h0l-1.83,1v.05l0-.06-.7-1.16,0-.05Zm.94,1.58,1.78-1,.05,0,0,0,.7,1.16,0,.09-1.82,1h0l0,0-.66-1.15,0-.06Zm1.78,3.09,1.82-1,.06,0,0,.05.66,1.15,0,.05-.05,0-1.77,1-.06,0,0-.05-.7-1.17Zm.93,1.53,1.79-1,.08,0,.7,1.21v0l-1.82,1-.05,0,0,0-.67-1.15h0Zm1.8,3.05,1.82-1,.05,0,0,.06.64,1.19h0l0,0-1.78,1-.09,0-.69-1.2Zm.94,1.54,1.81-1v0l0,.06.7,1.16,0,0h0l-1.83,1,0,0,0-.06-.66-1.15,0-.05Zm.88,1.56,1.83-1,.05,0v0l.7,1.16,0,.06-.06,0-1.82,1h0l-.7-1.2h0Zm.9,1.53,1.81-1,.06,0,0,0,.66,1.16,0,.05h0l-1.78,1-.05,0,0-.06-.71-1.16Zm2.13-1.13v-.05l1.23-.64v0l0,0,.7,1.17,0,0h0l-1.21.69-.05,0,0-.05Zm.94,1.49,1.2-.65,0,0v0l.7,1.16,0,.05-.05,0-1.19.66-.06,0,0-.06-.66-1.15,0,0Zm1.5-.77,0-.05h.05l1.2-.69.06,0,0,.05.65,1.2h0l-.06,0-1.19.65v.05l0-.06Zm1.51-.85v0l1.25-.69h.05l.68,1.21v0l-1.2.65-.05,0,0,0Zm.94,1.49,1.21-.65.05,0,0,.05,1.08,1.79v0l-1.2.65,0,0,0-.06-1-1.73,0-.06Zm1.5-.77,0-.05.05,0,1.2-.65.05,0,0,.05,1,1.78h.05l-.06,0-1.19.7h-.05l0-.06Zm3.08-1.69,0-.05.05,0,1.2-.65.05,0v0l1.06,1.79v0l-1.21.7-.09,0Zm1.51-.85,0-.06h0l1.19-.65.06,0,0,.05,1,1.74,0,.05h-.05l-1.2.69-.05,0,0-.05Zm3.06-1.66,0,0h.05l1.2-.69h.05v0l1.07,1.75,0,.08-1.19.65-.05,0,0-.06Zm1.51-.85h0l0,0,1.21-.7,0,0,0,.05,1,1.74,0,.05-.05,0-1.2.65-.05,0,0-.05Zm3.07-1.69h0l0,0,1.2-.64v-.05l0,.05,1.07,1.79,0,0-1.2.65v0l0-.05Zm1.51-.81,0-.06.05,0,1.2-.65.05,0,0,0,1,1.78h0l-.06,0-1.19.66-.06,0,0-.06ZM353,174l0-.05.05,0,1.19-.65.07,0,0,.05,1,1.78,0,.05h0l-1.21.7,0,0,0-.05Zm1.52-.85,0-.08,1.23-.64v0l0,.06,1,1.78,0,0h0l-1.21.69h0Zm1.55-.84,0-.05.07,0,1.19-.65.05,0v0l1.06,1.79v0l-1.21.69-.08,0Zm1.31-1.17,0,0-.65-1.15,0-.06.05,0,1.2-.65.05,0v0l.7,1.16,0,0-.05,0-1.2.64Zm2.19-3.26-1.52.85h0l-.05-.05-.66-1.16,0-.05h.05l1.51-.85v-.05l0,.06.7,1.2h.05Zm-.89-1.57-.05,0-1.46.82,0,0,0-.06-.7-1.16,0-.09,1.51-.8.05,0,0,.05.7,1.17Zm2.64-5.54L357.21,163l-.06,0,0,0-.66-1.15,0-.05.05,0,4.37-2.41C361,159.82,361.19,160.31,361.36,160.76Zm-1-2.32c.08.2.22.42.31.62l-4.38,2.46-.08,0-.7-1.21v0l4.48-2.48C360.15,158,360.25,158.19,360.38,158.44ZM359,156.27c.27.38.55.81.82,1.23l-4.47,2.44v0l0,0-.7-1.16,0-.05.06,0Zm-.21-.27-4.33,2.42-.06,0,0,0-.65-1.2h-.05l.06,0,4.06-2.25C358.16,155.26,358.49,155.6,358.82,156Zm-1.21-1.37-4,2.22-.05,0,0,0-.7-1.16v0l3.65-2C356.85,153.91,357.23,154.27,357.61,154.63Zm-1.47-1.23-3.48,1.92-.05,0v0l-.7-1.16,0-.06.06,0,2.87-1.6A8.86,8.86,0,0,1,356.14,153.4Zm-1.66-1.15-2.71,1.5,0,0,0-.05-.66-1.15,0-.05H351l1.87-1A9.91,9.91,0,0,1,354.48,152.25ZM350.11,151l.52-.25a15.13,15.13,0,0,1,1.87.59l-1.62.93-.06,0,0,0-.7-1.16Zm-.27.17,0,.05.66,1.15,0,.06-.05,0-1.51.81v0l0-.05-.71-1.16,0-.05.06,0,1.5-.81Zm-2.45-.68.46-.26,1.56.2.23.42h0l-.05,0-1.51.86-.09,0-.65-1.19,0-.05Zm-.27.17.69,1.2v0l-1.21.7h0l0-.06-.71-1.16,0,0,1.25-.68Zm-.3-.53.07.16,0,.05-.05,0-1.2.65v0l0-.05-.53-.89C345.65,150.06,346.24,150.06,346.82,150.09Zm-2,0,.59,1,0,.05,0,0-1.2.64,0,0,0-.06-.92-1.62C343.67,150.13,344.22,150.11,344.78,150.05Zm-2,.16,1,1.74,0,.05-.05,0-1.2.65-.05,0,0-.05-1.29-2.21C341.79,150.35,342.31,150.28,342.82,150.21Zm-1.84.28,1.32,2.3,0,.05-1.24.69v0l0,0-1.6-2.68C340,150.68,340.46,150.6,341,150.49Zm-1.77.38,1.57,2.78,0,0h-.05l-1.19.69h-.05l-1.79-3.05C338.19,151.15,338.67,151,339.21,150.87Zm-1.76.53,1.82,3.1,0,.05h0l-1.21.69H338l0-.06-1.92-3.3A11.36,11.36,0,0,1,337.45,151.4Zm-1.68.58,2,3.37v0l-1.21.7h0l0-.06-2.07-3.47C334.86,152.33,335.31,152.16,335.77,152Zm-1.62.7,2.05,3.51h0l-.05,0-1.19.65-.06,0v0l-2.13-3.58C333.28,153.08,333.7,152.85,334.15,152.68Zm-1.55.75,2.1,3.57,0,.05-.05,0-1.2.65-.05,0,0-.05-2.09-3.57C331.73,153.92,332.16,153.65,332.6,153.43Zm-1.51.9,2.09,3.52v.09l-1.2.65-.05,0,0-.05-2-3.46C330.29,154.84,330.67,154.56,331.09,154.33Zm-1.45,1,2,3.41,0,.05-.06,0-1.18.65-.07,0,0-.05-1.89-3.2C328.86,155.89,329.26,155.57,329.64,155.29Zm-1.39,1.1,1.86,3.16,0,0-.06,0-1.19.64,0,0,0-.06-1.69-2.88C327.52,157.05,327.87,156.68,328.25,156.39ZM324.63,160l0,0a11.88,11.88,0,0,1,1-1.13h0l.23-.22c.35-.38.7-.72,1.07-1.09l1.65,2.83v0l-1.2.69-.06,0,0,0-1.42-2.46-.23.22,1.39,2.37,0,.05h0l-1.2.69h-.05l-1.13-2,0,.05Zm-.19.23,1.09,1.89,0,.05h0l-1.21.69-.08,0-.8-1.36C323.76,161,324.12,160.6,324.44,160.21Zm-1.2,1.47L324,163l0,.05h0l-1.21.69h0l0-.06-.4-.63C322.65,162.51,322.92,162.11,323.24,161.68Zm-1.07,1.55.33.57v0l-1.14.61C321.63,164,321.9,163.62,322.17,163.23ZM321,165l0,0,.05,0,0,.06.7,1.16v0l-1.83,1-.05,0,0-.06,0-.05A24,24,0,0,1,321,165Zm-1.4,2.84.26-.17H320l.68,1.21h.05l-.05,0-1.73.94A19.82,19.82,0,0,1,319.64,167.87Zm-.88,2.5,2-1.1,0,0,0,.06.66,1.15,0,.05-.06,0-3.07,1.69A12.78,12.78,0,0,1,318.76,170.37Zm-.36,2.25,3.27-1.83.1,0,.69,1.2v.05l-4.1,2.24A9.52,9.52,0,0,1,318.4,172.62Zm0,2,4.2-2.27.05,0v0l.7,1.16,0,.05h0l-4.73,2.56A7.53,7.53,0,0,1,318.41,174.64Zm.84,3.24a6.69,6.69,0,0,1-.52-1.39l4.77-2.6.07,0,0,0,.65,1.15,0,.06-.05,0Zm.16.31,5-2.73.05,0,0,.06.71,1.11v0l-5,2.77A6.77,6.77,0,0,1,319.41,178.19Zm1.06,1.61c-.05,0-.09-.07-.12-.12l5-2.73.06,0V177l.7,1.16,0,0-.06,0-4.79,2.65A8.92,8.92,0,0,1,320.47,179.8Zm1.07,1.29,4.7-2.62h0l0,.05.65,1.16,0,.05H327l-4.32,2.42A8.44,8.44,0,0,1,321.54,181.09Zm1.36,1.3,4.22-2.35.06,0,0,.06.71,1.16,0,.08-3.69,2.06C323.72,183,323.34,182.72,322.9,182.39Zm3.13,2c-.54-.26-1-.51-1.51-.8l3.55-2h0l.69,1.2,0,0,0,0Zm.37.17,2.55-1.4.05,0,0,.06.66,1.15,0,.06-.05,0-1.52.85A13.76,13.76,0,0,1,326.4,184.54Zm4.21,1.39c-.69-.16-1.33-.34-2-.54l1.3-.72h0l.7,1.21h0Zm.27-.17,0,0-.66-1.15,0-.06h0l1.82-1v0l0,0,.7,1.16,0,.06-.06,0-1.82,1Zm.27.24,1.77-1h0l0,.06.73,1.26A18.06,18.06,0,0,1,331.15,186Zm4.38.06-.64.36-.81,0-.86-1.47h-.05l.06,0,1.19-.65.05,0,0,.06,1,1.73,0,.05Zm.3-.16,0-.06-1.07-1.79v0l1.24-.64v0l0,0,1,1.78h0l0,0-1.2.65Zm.3.52-.14-.21v-.05l1.24-.63v-.05l0,.06.51.79C337.23,186.39,336.68,186.41,336.13,186.42Zm1.94-.12-.52-.94h0l.05,0,1.2-.65.05,0v0l.86,1.47A13.4,13.4,0,0,1,338.07,186.3Zm1.92-.21-.94-1.53,0-.06.06,0,1.18-.65.06,0,0,.06,1.15,2A14.15,14.15,0,0,1,340,186.09Zm1.8-.29-1.22-2.1,0-.08,1.19-.65.05,0,0,.06,1.42,2.46C342.8,185.57,342.32,185.69,341.79,185.8Zm1.79-.43-1.46-2.51,0-.05.06,0,1.19-.65.05,0v0l1.67,2.79C344.55,185.09,344.07,185.21,343.58,185.37Zm1.71-.53L343.63,182l0,0,0,0,1.21-.65,0,0,0,0,1.75,3C346.23,184.5,345.78,184.68,345.29,184.84Zm3.42-1.39c-.57.29-1.16.52-1.73.81l-1.83-3.1v0l1.2-.65.05,0,0,0,1.87,3.11.25-.13-1.86-3.1,0-.06h0l1.2-.69h0l1.9,3.16.26-.12-1.9-3.17,0-.05h.05l1.2-.69.08,0,1.87,3.15C350.47,182.52,349.58,183,348.71,183.45Zm2.88-1.65-1.86-3.15h-.05l.06,0,1.2-.69H351l0,0,1.75,3C352.39,181.25,352,181.52,351.59,181.8Zm1.4-1-1.7-3h-.05l.06,0,1.19-.64v-.05l0,.06,1.58,2.73C353.77,180.19,353.4,180.47,353,180.79Zm1.35-1.12L352.79,177l0-.05.06,0,1.19-.65.05,0v0l1.4,2.37Zm1.34-1.25-1.38-2.27,0-.06.05,0,1.2-.65.05,0,0,.05,1.09,1.89C356.34,177.7,356,178.08,355.68,178.42Zm1.2-1.33-1.06-1.8v-.08l1.24-.64v0l0,.06.77,1.26C357.56,176.28,357.25,176.66,356.88,177.09ZM358,175.6l-.66-1.15,0,0,.05,0,1.2-.65.05,0v0l.34.53C358.68,174.74,358.35,175.17,358,175.6Zm1.09-1.58-.23-.42,0,0,.06,0,.72-.39C359.47,173.41,359.32,173.7,359.12,174Zm.82-1.47-1.2.7-.05,0,0-.05-1-1.78,0,0h.05l1.2-.7.05,0,0,0,1,1.78Zm.17-.33-1-1.62v0l1.52-.85.05,0,0,.05.23.42A18.51,18.51,0,0,1,360.11,172.22Zm1.27-3.28-.57.29v.05l0-.06-.7-1.16,0-.05,0,0,1.71-.94A12.52,12.52,0,0,1,361.38,168.94Zm.47-2.31-1.93,1.08h0l0-.06-.66-1.15,0-.05h0l2.77-1.54A11.2,11.2,0,0,1,361.85,166.63Zm-2.82-.49,0,0,0,0-.71-1.16,0-.09,3.58-1.94c.06.51.08,1.06.11,1.58Z"/><path class="cls-2" d="M168.26,156.6c.08-2.4-.94-6.48-.94-7.68,0,0,3.49,3.4,6.34,5.73s5.93,4.57,5.93,4.57a13.3,13.3,0,0,1-4.35.9,38.52,38.52,0,0,1-6.53-.22,6.85,6.85,0,0,1-.45-3.3ZM76.93,214.93c.33,0,.67,0,1,0a1.8,1.8,0,0,1,0-.35s-2,.19-2.89.3a3.66,3.66,0,0,0-.67.19,19.86,19.86,0,0,1,2.58-.16Zm3.22.25a20.06,20.06,0,0,1,7.68,3c-.14-.7-.17-1.4-.28-1.71-.23-.6-.6-.86-1.39-1.12s-2.29-1.5-2.89-1.69a2.21,2.21,0,0,0-2,.37,4.39,4.39,0,0,0-1.13,1.18Zm10.56,5.24a.5.5,0,0,0,.36-.49c0-.83-.56-1.84-.56-2.29s.64-1.2.15-2.47-1.46-3.08-1.54-4.24a3.24,3.24,0,0,1,.19-1.69c.08-.23.38-1,.94-2.33s-.11-.71,1.2-2,9.52-12.6,11.33-16.06,1.57-6.07,2.39-8.85,1.28-3.75,1.43-4.2,2.85-8.4,4.43-13.43,1.8-6.45,1.8-6.07,1.65,5.32,1.2,7.35a20.41,20.41,0,0,0-.38,7c.38,1.72,4.28,9.37,4.88,12.9s-.3,6.3-.75,9.15-.83,2.85-.3,4.58,1,4.27,1,4.27-2.18,9.68-2.33,15.68,2.1,7.8,2.1,13.35S120,257.93,120,260.63s.22,6.9-.07,8,4.27,3.46,4.27,3.46a26.8,26.8,0,0,0,.75,8c1,3.45,2,4.58,2.25,5.78s1.43,3.3.38,9.6a72.37,72.37,0,0,0-.76,17c.31,6.15,2.26,13.2,2.11,15.75a15.62,15.62,0,0,1-.45,3.45s-.91-1.27-2.25.53-1.43,1.5-1.43,3.67a22.88,22.88,0,0,1-.37,5.11c-.31,1.12,0,1.35-.38,3.44s-.08,3-1,4.73-1.28,2-2,3.53-1.87,3.37-1.87,3.37a10.18,10.18,0,0,0-1.73,2c-1.12,1.58-1.8,3-1.57,4.35s.52,1.72,2.32,2.4,13.51.22,16.28-.37,3.3-2,4.65-2.93,1.95-1,2.4-1.5.23-8,.3-10.13a35.29,35.29,0,0,1,.75-4.87c.3-2,.15-6.91-.75-8.26a4.5,4.5,0,0,0-1.87-1.72,5.49,5.49,0,0,0,.75-2.22c-.08-.78.19-.78-.3-1.12a6.8,6.8,0,0,0-.71-.45s3.22-15,3.52-19.09l.56-7.66s1.84,3.08,2.89,4.47,1.43,1.95,1,2.14a2.84,2.84,0,0,0-1.77,1.76c-.34,1.16-.6.56-.37,1.61s3.82,6.57,4.27,7.77,1.32,1.12,1.65,3.22-.37,6.23-.33,7.43.52.19.48,1.87a19.52,19.52,0,0,1-.48,3.34c-.19,1.39-1.09,1.84-.9,4s.44,3.19,1.61,3.94a6.29,6.29,0,0,0,4.95.11c1.31-.6,6.26-7.62,6.57-8.37a37.67,37.67,0,0,0,1.68-7.31c.34-3.08,5.63-14,5.55-15.91s.19-2.73-1.68-3.6-4-.9-4.58-1.53a9,9,0,0,0-2.89-2.22,9.42,9.42,0,0,1-3.11-2.32c-.51-.66-1.43-2.14-1.67-2.35a2.62,2.62,0,0,0-.41-.28,19.82,19.82,0,0,1-3.12-7.5c-.75-4.27-4.72-12.38-6.6-14.78a22.12,22.12,0,0,1-2.1-2.92l-.37-4.28s4.35,1.28,7.72.3a31.5,31.5,0,0,1,5.1-1.13s-2-7.64-1.87-10.95.52-4.57,0-7.73a43.64,43.64,0,0,1-.6-5.25s5-6.15,6.67-11.4,1.5-5.85,3.6-9.6,4.5-8.55,4.06-15a34.11,34.11,0,0,0-3.31-12.61c-.6-1-.14-4.2-.14-4.2s.37-1.95,1.57-7.2.45-5.48,1.28-8.25a73.89,73.89,0,0,0,1.42-9.6s9,1.5,12.91,1.27,5.39-.45,7.5-.38,2.85.46,3.75-.29a5.53,5.53,0,0,0,2.25-5.26c-.53-2.69-.75-4.72-3.23-7.12s-3.67-5.93-6.9-9.68-5.4-4.65-6.38-6.07-4.87-9.46-7.95-13.51a19.5,19.5,0,0,0-5.7-5.4s-.15-1.13-.52-1.27a7.11,7.11,0,0,0-1.66-.46c-.59-.07-8.06-1.8-11.28-2.58a77.86,77.86,0,0,1-7.66-2c-1.42-.6-1.91-.72-2.4-.46s-1.27-.33-1.46-.48a50.25,50.25,0,0,1-.75-7.43,5.55,5.55,0,0,1,.26-1.54,10.15,10.15,0,0,1,.56-1.2s.26.34,1.28-.19,1.27-1.76,1.69-2.62,1.35-1.39,1.2-3.11c-.19-2.15.11-1.83-1.43-2.86,0,0,.53-4.87.6-7.72.26-9.7-9.92-14.29-17-11.78-3.82,1.35-5,3.23-6.45,7.35a34.3,34.3,0,0,0-1.61,8.48,4.72,4.72,0,0,0-1.47.71c-1,.64-1,1.46-1.08,3.08a25.78,25.78,0,0,0,.18,2.88c0,1.06-.07,1.84.72,2.45a4.06,4.06,0,0,0,2,.63s.2,3.83.86,4.71.94,1.22.94,1.22,1,8.16,1,9.51a9.4,9.4,0,0,1-.35,2.21s-3,2-4.13,2.77-11.77,8-12.67,8.93a14.33,14.33,0,0,0-1.69,1.88,3.9,3.9,0,0,0-.19,1c0,.23-.52.64-.67.94s-.19,1.09-.57,3a58,58,0,0,0-1.16,10.72c0,4.8.15,7.77.15,7.77s-1.63,6.58-3.36,11.46-1.87,7-2.85,8.25-2.55,3.15-4.88,9-3.14,7.8-4.42,11.18S83.08,203,82.11,204s-1.09,1.09-1.35,1.95a8.72,8.72,0,0,0-.34,1.5A21.19,21.19,0,0,0,77,208.79c-1,.6-1,1.09-2,1.35a10.08,10.08,0,0,0-4,1.58c-2.21,1.35-4.76,2.77-5.59,4s-1.24,1.39-1.2,2a.81.81,0,0,0,1.16.79,20,20,0,1,0,25.26,1.88Zm-23.48-3a17,17,0,0,1,2.91-1.95,1.3,1.3,0,0,0,.51.46A20.45,20.45,0,0,0,67.23,217.42Z"/><path class="cls-2" d="M151.3,46.62l1.41.23,1-6.53a1.31,1.31,0,0,1,1.49-1.07l2.55.42a1.28,1.28,0,0,1,1.06,1.48,1.31,1.31,0,0,1,1.49-1.07l2.55.41A1.29,1.29,0,0,1,164,42a1.29,1.29,0,0,1,1.48-1.06l2.55.41a1.28,1.28,0,0,1,1.07,1.48L168,49.32l.81.14c.4-.7.06-.94.3-1.41s.26-.57,1.29-.88a3.35,3.35,0,0,1,2.14.31c.26,0,.26-.31,1.38-.31s1.37.23,1.37.23l.6-.3a5.18,5.18,0,0,1,1.8.07,1.6,1.6,0,0,1,1.16-1c.9-.18,1.33.23,2.36,1s2.19.42,3,.87c.44.25.58,2.23.62,4h.07L186,45.54a1.3,1.3,0,0,1,1.48-1.07l2.55.42a1.28,1.28,0,0,1,1.06,1.48,1.29,1.29,0,0,1,1.49-1.07l2.55.41a1.29,1.29,0,0,1,1.06,1.48,1.31,1.31,0,0,1,1.49-1.07l2.55.42A1.28,1.28,0,0,1,201.27,48l-1.05,6.52,1.4.23a1,1,0,0,1,.82,1.13l-.36,2.25a1,1,0,0,1-1.14.82l-1.4-.23-1.15,7.05a1.3,1.3,0,0,1-1.48,1.07l-2.55-.41A1.29,1.29,0,0,1,193.3,65,1.29,1.29,0,0,1,191.81,66l-2.55-.41a1.28,1.28,0,0,1-1.06-1.48,1.31,1.31,0,0,1-1.49,1.07l-2.55-.41a1.29,1.29,0,0,1-1.06-1.49l1-6.13A8.77,8.77,0,0,1,182.94,59a9.72,9.72,0,0,1-4.72,2.74A22.21,22.21,0,0,0,176.37,67a36.4,36.4,0,0,0-1.07,9c-.09,2-.09,2.58.52,8.51s-1.38,18.69-1.38,18.69.6,1.51,5,5.92,7.34,11.25,7.34,11.25a40,40,0,0,1,6.27,3.34,34.21,34.21,0,0,1,7.08,6.3,29.17,29.17,0,0,0,3.61,2,5.07,5.07,0,0,0,3.09-1.49,7.05,7.05,0,0,0,1.29-2.93s-.52-.72-1.55-2.35-1.28-6.12-1.28-6.12a3.83,3.83,0,0,1-1.59-1.36c-.6-1-.35-1.41-.6-2.78s-.82-1.93-.35-2.58,1.68-.23,1.68-.23a1.77,1.77,0,0,0,0-1,11.87,11.87,0,0,1,2.24-10c3-4,8.57-4.83,10.08-5l.77.09.76-.09c1.52.15,7.07.94,10.09,5a11.85,11.85,0,0,1,2.23,10,1.8,1.8,0,0,0,0,1s1.2-.42,1.67.23-.08,1.22-.34,2.58,0,1.83-.6,2.78a3.89,3.89,0,0,1-1.59,1.36s-.26,4.49-1.29,6.12-1.55,2.35-1.55,2.35a7.05,7.05,0,0,0,1.29,2.93,5.09,5.09,0,0,0,3.1,1.49,29,29,0,0,0,3.6-2,34.21,34.21,0,0,1,7.08-6.3,40,40,0,0,1,6.27-3.34s3-6.84,7.34-11.25,5-5.92,5-5.92-2-12.77-1.37-18.69.6-6.54.51-8.51a35.91,35.91,0,0,0-1.07-9,22,22,0,0,0-1.84-5.28A9.73,9.73,0,0,1,252,59a9.06,9.06,0,0,1-1.34-2.28l1.07,6.57a1.31,1.31,0,0,1-1.07,1.49l-2.55.41a1.3,1.3,0,0,1-1.48-1.07,1.3,1.3,0,0,1-1.07,1.48L243,66A1.28,1.28,0,0,1,241.48,65a1.3,1.3,0,0,1-1.07,1.48l-2.55.41a1.3,1.3,0,0,1-1.48-1.07l-1.14-7.05-1.41.23a1,1,0,0,1-1.13-.82l-.37-2.25a1,1,0,0,1,.82-1.13l1.4-.23L233.5,48a1.3,1.3,0,0,1,1.07-1.48l2.55-.42a1.3,1.3,0,0,1,1.48,1.07,1.3,1.3,0,0,1,1.07-1.48l2.55-.41a1.29,1.29,0,0,1,1.48,1.07,1.28,1.28,0,0,1,1.07-1.48l2.55-.42a1.3,1.3,0,0,1,1.48,1.07l1,6.52.2,0c0-1.74.17-3.7.61-4,.82-.45,2-.07,3-.87s1.46-1.21,2.36-1a1.6,1.6,0,0,1,1.16,1,5.2,5.2,0,0,1,1.8-.07l.6.3s.26-.23,1.38-.23,1.11.34,1.37.31a3.4,3.4,0,0,1,2.15-.31c1,.31,1,.27,1.29.88s-.1.71.29,1.39l.7-.12-1.06-6.52a1.3,1.3,0,0,1,1.07-1.48l2.55-.41A1.28,1.28,0,0,1,270.81,42a1.3,1.3,0,0,1,1.07-1.48l2.55-.41a1.3,1.3,0,0,1,1.48,1.07A1.29,1.29,0,0,1,277,39.67l2.55-.42A1.3,1.3,0,0,1,281,40.32l1.05,6.53,1.41-.23a1,1,0,0,1,1.13.82l.37,2.25a1,1,0,0,1-.82,1.13l-1.41.22,1.15,7.06a1.3,1.3,0,0,1-1.07,1.48l-2.55.41a1.29,1.29,0,1,0-2.55.41l-2.55.42a1.29,1.29,0,1,0-2.55.41l-2.55.41a1.29,1.29,0,0,1-1.46-1,3.91,3.91,0,0,0-.34,1.59c-.09,1.14,5.75,17.86,6.87,24.24s-.52,12.69-.09,14.74.86,2.43.43,3.57-1.89,2.12-2.41,3.57-2.92,12.69-7.38,19-7.81,8.21-11.07,11.7a31.47,31.47,0,0,0-3.61,4.18s-.09,5.62-3.95,14.74-4.1,8.44-5.84,12.76-4.55,23.83-4.76,27.36c.28.66.7.3,1,.7.57.9.44,2.35.91,3.67,4.35,12.36,11.19,34.17,10.4,43.31a1.52,1.52,0,0,1-.5,1.13,43.73,43.73,0,0,1-1.15,10.64c-1.29,4.86-1.57,5.77-1.29,9s.29,4.78.65,7.37,2,5,3.23,11.85,1.36,19.67,1.72,25.07.21,6,.21,6a2,2,0,0,1,.34.58c.1.32.19,8.81.53,10.2a18.28,18.28,0,0,0,.81,2.45s.72-.23,1.11.13a22.69,22.69,0,0,1,2.44,2.28c1.44,1.52,1.37,2.81,2.08,5.32s.36,2.73,2,4.48,3.16,2.13,4,4.64,1,4.17.36,5.39-3.59,2.35-8.11,1.59-7.17-1.89-7.68-3,.15-2.28-.5-2.51a18.84,18.84,0,0,1-3.08-1.13c-1.37-.69-3-2-3.09-3.27s.5-2.51.43-3,.15-2.43,0-4.56-.28-3.57.22-4,.64-.45.64-.45-1.14-10-2.22-12.54-.79-3.64-.79-3.64-1.29-8.89-3.23-11.4a19.31,19.31,0,0,1-3-7.22c-.15-.83-.22-15.57-1.29-17.93a65.06,65.06,0,0,1-3.09-8.05c-.5-1.9-3.59-13.68-4.66-15.5s-.65-3-1.51-4.1-4.31-9.72-5.24-13.83-1.51-7.21-1.51-7.21l-.06-.06-.07.06-.07-.06-.07.06s-.57,3.11-1.51,7.21-4.37,12.77-5.23,13.83-.44,2.28-1.51,4.1-4.16,13.6-4.67,15.5a64.89,64.89,0,0,1-3.08,8.05c-1.08,2.36-1.15,17.1-1.29,17.93a19.56,19.56,0,0,1-3,7.22c-1.93,2.51-3.23,11.4-3.23,11.4s.29,1.14-.79,3.64-2.22,12.54-2.22,12.54.14,0,.65.45.36,1.9.21,4,.07,4,0,4.56.5,1.75.43,3-1.72,2.58-3.08,3.27a18.86,18.86,0,0,1-3.09,1.13c-.64.23,0,1.45-.5,2.51s-3.16,2.2-7.68,3-7.46-.38-8.11-1.59-.5-2.89.36-5.39,2.37-2.89,4-4.64,1.29-2,2-4.48.65-3.8,2.08-5.32a25,25,0,0,1,2.44-2.28,1.29,1.29,0,0,1,1.11-.13,16.73,16.73,0,0,0,.81-2.45c.34-1.39.43-9.88.54-10.2a2.05,2.05,0,0,1,.33-.58,40.7,40.7,0,0,1,.21-6c.36-5.4.51-18.24,1.73-25.07s2.87-9.27,3.22-11.85.36-4.18.65-7.37,0-4.11-1.29-9a44.3,44.3,0,0,1-1.15-10.64,1.52,1.52,0,0,1-.5-1.13c-.79-9.14,4.83-30.95,9.19-43.31.47-1.32.33-2.77.91-3.67.26-.4.68,0,1-.7-.2-3.53-1.8-23-3.54-27.36s-2-3.65-5.84-12.76-4-14.74-4-14.74a31.57,31.57,0,0,0-3.6-4.18c-3.26-3.49-6.61-5.39-11.08-11.7s-6.86-17.55-7.38-19-2-2.43-2.4-3.57,0-1.52.43-3.57-1.21-8.36-.09-14.74,7-23.1,6.87-24.24a4.22,4.22,0,0,0-.43-1.79l0,.11a1.28,1.28,0,0,1-1.48,1.07l-2.55-.41a1.3,1.3,0,0,1-1.07-1.48,1.3,1.3,0,0,1-1.48,1.07l-2.55-.42A1.28,1.28,0,0,1,156,58.92,1.31,1.31,0,0,1,154.5,60L152,59.58a1.29,1.29,0,0,1-1.06-1.48L152,51l-1.41-.22a1,1,0,0,1-.82-1.13l.37-2.25A1,1,0,0,1,151.3,46.62Z"/></svg>