<svg id="katman_1" data-name="katman 1" xmlns="http://www.w3.org/2000/svg" viewBox="0 0 425 425"><defs><style>.cls-1{fill:#c4c5c6;}.cls-2,.cls-3{fill:#2a4173;}.cls-3{stroke:#2a4173;stroke-miterlimit:10;}.cls-4{fill:#fff;}</style></defs><path class="cls-1" d="M227.73,159.28c2.26.35,4.55.6,6.79,1.06,12,2.51,19.27,10,21.92,21.84,2.29,10.22,2.95,20.57.54,30.85-2.64,11.24-8.29,20.63-18.58,26.46-10.82,6.13-21.64,5.48-31.85-1.51-9-6.16-14.18-15.08-16.26-25.61-2.46-12.43-1.93-24.82,2.85-36.7,3.14-7.78,9.22-12.55,17.28-14.68,3-.8,6.15-1.15,9.23-1.71Z"/><path class="cls-1" d="M226.24,331.66c-15.83-.12-29-1-41.9-4.4-7.68-2-15-4.84-21.36-9.84-.61-.49-1.18-1-1.77-1.55a8.32,8.32,0,0,1-3.16-7.31c.53-9.18.39-18.4,2-27.49,1.29-7.27,3.5-14.14,8.73-19.67a36.51,36.51,0,0,1,13-8.46,109,109,0,0,1,22-5.91,2.09,2.09,0,0,1,1.56.53,24.75,24.75,0,0,0,15.23,6.31c5.86.5,11.55-.17,16.78-3.05,1.65-.91,3.07-2.22,4.65-3.28a2.44,2.44,0,0,1,1.57-.51c7.66,1.41,15.26,3.08,22.49,6.12,6.93,2.92,12.84,7.07,16.6,13.81a39.55,39.55,0,0,1,4.88,16c.8,9.21,1.2,18.45,1.64,27.68a5.13,5.13,0,0,1-1.16,3.14c-3.94,4.92-9.32,7.82-15,10.17-10.58,4.37-21.72,6.22-33,7C234.56,331.36,229.12,331.52,226.24,331.66Z"/><path class="cls-1" d="M306.62,182.79c2,.31,4.07.53,6.08,1,10.77,2.24,17.23,8.92,19.61,19.53,2,9.14,2.63,18.39.47,27.59-2.35,10.06-7.41,18.45-16.61,23.67-9.68,5.48-19.36,4.9-28.49-1.35-8.05-5.51-12.69-13.49-14.55-22.91-2.19-11.12-1.72-22.2,2.56-32.82,2.8-7,8.25-11.23,15.45-13.13,2.7-.72,5.5-1,8.26-1.53Z"/><path class="cls-1" d="M305.29,337c-14.15-.11-26-.88-37.47-3.94-6.87-1.82-13.45-4.33-19.11-8.81-.55-.43-1.05-.92-1.58-1.38a7.42,7.42,0,0,1-2.83-6.54c.47-8.21.35-16.45,1.79-24.59,1.15-6.5,3.13-12.64,7.81-17.59a32.49,32.49,0,0,1,11.63-7.56,96.6,96.6,0,0,1,19.69-5.29,1.9,1.9,0,0,1,1.4.47,22.12,22.12,0,0,0,13.62,5.65c5.24.45,10.33-.15,15-2.73,1.48-.81,2.75-2,4.16-2.93a2.2,2.2,0,0,1,1.41-.46,96.7,96.7,0,0,1,20.11,5.47c6.2,2.61,11.49,6.33,14.85,12.36a35.46,35.46,0,0,1,4.37,14.27c.71,8.23,1.07,16.5,1.46,24.76a4.57,4.57,0,0,1-1,2.81c-3.53,4.39-8.34,7-13.43,9.09-9.46,3.91-19.42,5.56-29.56,6.31C312.73,336.7,307.86,336.84,305.29,337Z"/><path class="cls-2" d="M212.5,419.71C97.69,419.71,4.29,326.31,4.29,211.5S97.69,3.29,212.5,3.29,420.71,96.69,420.71,211.5,327.31,419.71,212.5,419.71Zm0-402.63C105.3,17.08,18.08,104.3,18.08,211.5S105.3,405.92,212.5,405.92,406.92,318.71,406.92,211.5,319.7,17.08,212.5,17.08Z"/><rect class="cls-3" x="226.31" y="69.9" width="86.27" height="75" rx="12"/><polygon class="cls-3" points="257.09 141.96 268.07 154.97 279.87 141.96 257.09 141.96"/><polygon class="cls-4" points="262.5 123.14 248.27 109.27 253.39 104.29 262.5 113.16 285.5 90.75 290.62 95.74 262.5 123.14"/><path class="cls-3" d="M138.49,130.93c2.63.41,5.29.7,7.89,1.24,14,2.91,22.41,11.6,25.49,25.38,2.66,11.89,3.42,23.92.62,35.87-3.06,13.08-9.63,24-21.59,30.77-12.58,7.13-25.17,6.37-37-1.76C103.4,215.27,97.37,204.9,95,192.65,92.11,178.2,92.71,163.8,98.28,150c3.64-9.05,10.72-14.59,20.09-17.07,3.5-.93,7.14-1.34,10.72-2Z"/><path class="cls-3" d="M136.76,331.35c-18.4-.15-33.73-1.14-48.71-5.12-8.93-2.36-17.48-5.63-24.84-11.45-.71-.56-1.37-1.2-2.06-1.8a9.63,9.63,0,0,1-3.67-8.5c.61-10.66.46-21.38,2.33-32,1.49-8.46,4.06-16.44,10.14-22.87a42.2,42.2,0,0,1,15.12-9.83c8.24-3.38,16.88-5.3,25.6-6.88a2.49,2.49,0,0,1,1.82.61c5,4.64,11,6.77,17.7,7.34,6.81.59,13.43-.19,19.5-3.54,1.92-1.06,3.58-2.58,5.41-3.81a2.89,2.89,0,0,1,1.83-.6c8.91,1.64,17.74,3.58,26.14,7.12,8.06,3.39,14.94,8.22,19.3,16.05a45.91,45.91,0,0,1,5.68,18.56c.93,10.7,1.39,21.45,1.91,32.18a6,6,0,0,1-1.35,3.66c-4.59,5.71-10.84,9.08-17.45,11.81-12.3,5.08-25.25,7.23-38.43,8.2C146.43,331,140.1,331.18,136.76,331.35Z"/></svg>