<svg id="katman_1" data-name="katman 1" xmlns="http://www.w3.org/2000/svg" viewBox="0 0 425 425"><defs><style>.cls-1{fill:#2a4173;}.cls-2,.cls-3,.cls-4,.cls-5,.cls-6{fill:none;}.cls-3,.cls-4,.cls-5,.cls-7{stroke:#2b4271;}.cls-3,.cls-4,.cls-5,.cls-6,.cls-7{stroke-miterlimit:10;}.cls-3{stroke-width:8px;}.cls-4,.cls-6{stroke-width:6px;}.cls-5{stroke-width:4px;}.cls-6{stroke:#fff;}.cls-7{fill:#2b4271;}</style></defs><path class="cls-1" d="M212.5,419.71C97.69,419.71,4.29,326.31,4.29,211.5S97.69,3.29,212.5,3.29,420.71,96.69,420.71,211.5,327.31,419.71,212.5,419.71Zm0-402.63C105.3,17.08,18.08,104.3,18.08,211.5S105.3,405.92,212.5,405.92,406.92,318.71,406.92,211.5,319.7,17.08,212.5,17.08Z"/><path class="cls-2" d="M289.55,61.79,304.65,78C95.3,73.12,129.83,265.21,129.83,265.21"/><path class="cls-3" d="M234.29,60S133.93,39.44,78.35,128.47c0,0-35.07,49.1-18.88,118.71"/><polyline class="cls-3" points="221.59 43.31 237.38 57.91 221.59 73.68"/><path class="cls-3" d="M183.89,362s99.46,24.48,158.54-62.26c0,0,37-47.67,23.59-117.86"/><polyline class="cls-3" points="195.91 379.17 180.72 363.96 197.12 348.82"/><path class="cls-4" d="M87.73,224S74.08,92.55,222.1,89.06"/><path class="cls-4" d="M218.91,335.17s99-7.89,114.78-111.13"/><path class="cls-4" d="M330,193.06s3.65,10.33,3.65,20.65"/><path class="cls-4" d="M213.86,336.62s-11,.28-20.77-2.91"/><path class="cls-5" d="M154.75,110.47s2.07,16.4,21,8.5,23.14,15.79,17.37,23.69c0,0-6.75,18.83,20.77,18.83"/><path class="cls-5" d="M143.6,115.33s16.4,14.58-7.28,37.05v4.17s33.2,15.1,12.81,36.51c0,0-12.21,10.33-31.64,3.65"/><path class="cls-5" d="M93.2,204.8s7.29-9.31,15.79-8.7"/><path class="cls-5" d="M192.12,241s10.39-21.26,41.36-6.68c0,0,12.65,11.54,4.81,24.9,0,0-13.31,41.29,8.55,39.47l5.47-4.25,4.25-6.07,4.86-8.81s3-20.34,28.54-18.52L300.29,264"/><path class="cls-5" d="M198.57,267.88s24.31,9.44,17.13,29.06l-7.9,11.32s-14.71,7.87-15.68,14.2"/><path class="cls-5" d="M258.38,234.56s-16.82,7.71,1,16.62C259.37,251.18,280.65,243.87,258.38,234.56Z"/><circle class="cls-4" cx="134.13" cy="287.83" r="67.54"/><circle class="cls-4" cx="285.01" cy="133.02" r="66.1"/><rect class="cls-6" x="285.01" y="58.45" width="4.95" height="13.77" rx="2.47"/><path class="cls-7" d="M244,101.48l1.25.29v11.45a4.52,4.52,0,0,0-1.8,6.13,4.59,4.59,0,0,0,1.63,1.7l-3.06,12.19c-.35,1.34.42,2.74,1.49,2.74h8.18c1.08,0,1.83-1.4,1.49-2.57l-3.06-12.35a4.71,4.71,0,0,0,2.18-3.88,4.62,4.62,0,0,0-2.34-4v-10.3l10.18,2.45v11.82a25,25,0,0,0,49.94,0l.17-11.83,16.12-3.88c3.57-.86,3.57-5.29,0-6.17l-37.29-9a17.48,17.48,0,0,0-7.75,0l-37.33,9A3.12,3.12,0,0,0,244,101.48Zm61.4,45.62-20.2,20.2L265,147.1a33.81,33.81,0,0,0-23.64,32.2,6.78,6.78,0,0,0,6.78,6.79H322.3a6.79,6.79,0,0,0,6.78-6.78h0A33.85,33.85,0,0,0,305.43,147.1Z"/><path class="cls-7" d="M92.93,255.35l1.25.3V267.1a4.5,4.5,0,0,0-.17,7.82L91,287.11c-.35,1.35.42,2.74,1.49,2.74h8.18c1.08,0,1.83-1.39,1.49-2.56l-3.06-12.35a4.72,4.72,0,0,0,2.18-3.88,4.6,4.6,0,0,0-2.34-4V256.8l10.18,2.44v11.82a25,25,0,0,0,49.94,0l.17-11.82,16.12-3.89c3.57-.86,3.57-5.28,0-6.17l-37.29-9a17.19,17.19,0,0,0-7.75,0l-37.33,9A3.12,3.12,0,0,0,92.93,255.35ZM154.33,301l-20.2,20.21L113.92,301a33.84,33.84,0,0,0-23.64,32.21A6.78,6.78,0,0,0,97.06,340H171.2a6.79,6.79,0,0,0,6.78-6.79h0A33.86,33.86,0,0,0,154.33,301Z"/><polygon class="cls-7" points="246.2 183.96 257.34 193.06 294.01 198.51 312.69 193.06 328.3 182.46 246.2 183.96"/><polygon class="cls-7" points="93.08 339.44 104.21 348.55 140.88 354 159.56 348.55 175.18 337.94 93.08 339.44"/></svg>