<svg id="katman_1" data-name="katman 1" xmlns="http://www.w3.org/2000/svg" viewBox="0 0 425 425"><defs><style>.cls-1,.cls-3{fill:#2a4173;}.cls-2{fill:#fff;}.cls-3{stroke:#2a4173;stroke-miterlimit:10;}</style></defs><path class="cls-1" d="M212.5,419.71C97.69,419.71,4.29,326.31,4.29,211.5S97.69,3.29,212.5,3.29,420.71,96.69,420.71,211.5,327.31,419.71,212.5,419.71Zm0-402.63C105.3,17.08,18.08,104.3,18.08,211.5S105.3,405.92,212.5,405.92,406.92,318.71,406.92,211.5,319.7,17.08,212.5,17.08Z"/><rect class="cls-2" x="121.5" y="211.29" width="110.61" height="8.43"/><rect class="cls-2" x="121.5" y="229.57" width="110.61" height="8.43"/><path class="cls-3" d="M256.47,289.58c11.22,7.83,19.38,21.2,19.38,36.36a43.81,43.81,0,1,1-85.58-13.25l-79.73-69.76a43.26,43.26,0,0,1-18.67,4.16,43.8,43.8,0,1,1,30.77-75l100.65-40.29a43.81,43.81,0,1,1,53.88,44Zm-122.82-73,79.72,69.76a45.6,45.6,0,0,1,8.6-3l20.7-113.73a44.05,44.05,0,0,1-6.35-5.2l-101.14,40.3a30.76,30.76,0,0,1-1.53,11.88Z"/></svg>