<svg id="katman_1" data-name="katman 1" xmlns="http://www.w3.org/2000/svg" viewBox="0 0 425 425"><defs><style>.cls-1{fill:#2a4173;}.cls-2{fill:#2b4271;}</style></defs><path class="cls-1" d="M212.5,419.71C97.69,419.71,4.29,326.31,4.29,211.5S97.69,3.29,212.5,3.29,420.71,96.69,420.71,211.5,327.31,419.71,212.5,419.71Zm0-402.63C105.3,17.08,18.08,104.3,18.08,211.5S105.3,405.92,212.5,405.92,406.92,318.71,406.92,211.5,319.7,17.08,212.5,17.08Z"/><path class="cls-2" d="M87.08,120a30.83,30.83,0,0,1,30.83-30.83H195v61.66a15.39,15.39,0,0,0,15.41,15.41h61.66V233.5l-45.62,45.62a30.78,30.78,0,0,0-8.09,14.36l-7.27,28.95a23.43,23.43,0,0,0,.67,13.39H117.91A30.84,30.84,0,0,1,87.08,305ZM210.4,150.84V89.18l61.66,61.66Zm148.42,58.82a19.2,19.2,0,0,1,0,27.26l-14.16,14.17-34.15-34.21,14.16-14.16a19.32,19.32,0,0,1,27.27,0Zm-121.49,80,62.24-61.81L333.77,262l-62.24,62.24a15.4,15.4,0,0,1-7.17,4.05l-29,7.27a7.85,7.85,0,0,1-7.32-2,8.14,8.14,0,0,1-2-7.75l7.22-28.57a19.4,19.4,0,0,1,4.05-7.56Z"/></svg>