<svg id="katman_1" data-name="katman 1" xmlns="http://www.w3.org/2000/svg" viewBox="0 0 425 425"><defs><style>.cls-1,.cls-2{fill:#2a4173;}.cls-2{stroke:#2a4173;stroke-miterlimit:10;}</style></defs><path class="cls-1" d="M212.5,419.71C97.69,419.71,4.29,326.31,4.29,211.5S97.69,3.29,212.5,3.29,420.71,96.69,420.71,211.5,327.31,419.71,212.5,419.71Zm0-402.63C105.3,17.08,18.08,104.3,18.08,211.5S105.3,405.92,212.5,405.92,406.92,318.71,406.92,211.5,319.7,17.08,212.5,17.08Z"/><path class="cls-2" d="M342.69,113.92a28,28,0,0,1,0,39.7l-15,15.09-49.12-49.12,15.08-15.07a28.09,28.09,0,0,1,39.71,0ZM183.33,214.82l83.87-83.89L316.32,180,232.41,263.9a27.89,27.89,0,0,1-11,6.82l-44.51,14.83a12.31,12.31,0,0,1-15.24-15.23l14.84-44.52a27.87,27.87,0,0,1,6.81-11Zm9.83-89.52a16.33,16.33,0,0,1,16,16,15.75,15.75,0,0,1-16,16H145a16.33,16.33,0,0,0-16,16V302.2a16,16,0,0,0,16,16H273.36a16,16,0,0,0,16-16V253.62a16,16,0,0,1,32.09,0V302.2a48.14,48.14,0,0,1-48.13,48.12H145A48.14,48.14,0,0,1,96.91,302.2V173.42A48.13,48.13,0,0,1,145,125.3Z"/></svg>