<svg id="katman_1" data-name="katman 1" xmlns="http://www.w3.org/2000/svg" viewBox="0 0 425 425"><defs><style>.cls-1{fill:#2a4173;}.cls-2{fill:#2b4271;}</style></defs><path class="cls-1" d="M212.5,419.71C97.69,419.71,4.29,326.31,4.29,211.5S97.69,3.29,212.5,3.29,420.71,96.69,420.71,211.5,327.31,419.71,212.5,419.71Zm0-402.63C105.3,17.08,18.08,104.3,18.08,211.5S105.3,405.92,212.5,405.92,406.92,318.71,406.92,211.5,319.7,17.08,212.5,17.08Z"/><path class="cls-2" d="M176.23,76.35V93.69h69.36V76.35a17.34,17.34,0,0,1,34.68,0V93.69h26a26,26,0,0,1,26,26v26H89.53v-26a26,26,0,0,1,26-26h26V76.35a17.34,17.34,0,0,1,34.68,0Zm-86.7,86.7H332.29V310.44a26,26,0,0,1-26,26H115.54a26,26,0,0,1-26-26Zm34.68,60.69a8.68,8.68,0,0,0,8.67,8.67h17.34a8.69,8.69,0,0,0,8.67-8.67V206.4a8.69,8.69,0,0,0-8.67-8.67H132.88a8.68,8.68,0,0,0-8.67,8.67Zm69.36,0a8.69,8.69,0,0,0,8.67,8.67h17.34a8.69,8.69,0,0,0,8.67-8.67V206.4a8.69,8.69,0,0,0-8.67-8.67H202.24a8.69,8.69,0,0,0-8.67,8.67Zm78-26a8.69,8.69,0,0,0-8.67,8.67v17.34a8.69,8.69,0,0,0,8.67,8.67h17.34a8.69,8.69,0,0,0,8.67-8.67V206.4a8.69,8.69,0,0,0-8.67-8.67ZM124.21,293.1a8.68,8.68,0,0,0,8.67,8.67h17.34a8.69,8.69,0,0,0,8.67-8.67V275.76a8.69,8.69,0,0,0-8.67-8.67H132.88a8.68,8.68,0,0,0-8.67,8.67Zm78-26a8.69,8.69,0,0,0-8.67,8.67V293.1a8.69,8.69,0,0,0,8.67,8.67h17.34a8.69,8.69,0,0,0,8.67-8.67V275.76a8.69,8.69,0,0,0-8.67-8.67Zm60.69,26a8.69,8.69,0,0,0,8.67,8.67h17.34a8.69,8.69,0,0,0,8.67-8.67V275.76a8.69,8.69,0,0,0-8.67-8.67H271.6a8.69,8.69,0,0,0-8.67,8.67Z"/></svg>