<svg id="katman_1" data-name="katman 1" xmlns="http://www.w3.org/2000/svg" viewBox="0 0 425 425"><defs><style>.cls-1{fill:#2a4173;}.cls-2{fill:none;stroke:#fff;stroke-width:6px;}.cls-2,.cls-3{stroke-miterlimit:10;}.cls-3{fill:#2b4271;stroke:#2b4271;}</style></defs><path class="cls-1" d="M212.5,419.71C97.69,419.71,4.29,326.31,4.29,211.5S97.69,3.29,212.5,3.29,420.71,96.69,420.71,211.5,327.31,419.71,212.5,419.71Zm0-402.63C105.3,17.08,18.08,104.3,18.08,211.5S105.3,405.92,212.5,405.92,406.92,318.71,406.92,211.5,319.7,17.08,212.5,17.08Z"/><rect class="cls-2" x="285.01" y="58.45" width="4.95" height="13.77" rx="2.47"/><path class="cls-3" d="M287.06,202V313.66a18.62,18.62,0,0,1-18.62,18.62H156.73a18.62,18.62,0,0,1-18.62-18.62V202a18.62,18.62,0,0,1,18.62-18.62H268.44A18.62,18.62,0,0,1,287.06,202Zm74.47,6v99.65c0,9.89-11.31,15.66-19.54,10l-42.52-29.28v-61L342,198C350.25,192.3,361.53,198.11,361.53,208Z"/><path class="cls-3" d="M219.65,93.88H98.14a14,14,0,0,0-13.76,14V210.72a14,14,0,0,0,13.76,14H219.65a14,14,0,0,0,14-14V107.9A13.86,13.86,0,0,0,219.65,93.88ZM116.84,203.7A2.34,2.34,0,0,1,114.5,206h-14a2.34,2.34,0,0,1-2.34-2.34v-14a2.33,2.33,0,0,1,2.34-2.33h13.76a2.33,2.33,0,0,1,2.33,2.33Zm0-37.38a2.33,2.33,0,0,1-2.34,2.33h-14a2.33,2.33,0,0,1-2.34-2.33v-14a2.34,2.34,0,0,1,2.34-2.34h13.76a2.33,2.33,0,0,1,2.33,2.34v14Zm0-37.39a2.34,2.34,0,0,1-2.34,2.34h-14a2.34,2.34,0,0,1-2.34-2.34v-14a2.34,2.34,0,0,1,2.34-2.34h13.76a2.33,2.33,0,0,1,2.33,2.34Zm70.1,72.44a4.68,4.68,0,0,1-4.68,4.67H135.53a4.67,4.67,0,0,1-4.67-4.67v-28a4.68,4.68,0,0,1,4.67-4.68h46.73a4.69,4.69,0,0,1,4.68,4.68Zm0-56.08a4.68,4.68,0,0,1-4.68,4.67H135.53a4.67,4.67,0,0,1-4.67-4.67v-28a4.68,4.68,0,0,1,4.67-4.68h46.73a4.69,4.69,0,0,1,4.68,4.68Zm32.71,58.41a2.34,2.34,0,0,1-2.34,2.34H203.56a2.13,2.13,0,0,1-2.08-2.34v-14a2.33,2.33,0,0,1,2.34-2.33h13.76a2.33,2.33,0,0,1,2.33,2.33v14Zm0-37.38a2.33,2.33,0,0,1-2.34,2.33H203.56a2.33,2.33,0,0,1-2.34-2.33v-14a2.34,2.34,0,0,1,2.34-2.34h13.75a2.34,2.34,0,0,1,2.34,2.34Zm0-37.39a2.34,2.34,0,0,1-2.34,2.34H203.56a2.34,2.34,0,0,1-2.34-2.34v-14a2.31,2.31,0,0,1,2.07-2.34h13.76a2.34,2.34,0,0,1,2.34,2.34v14Z"/></svg>