<svg id="katman_1" data-name="katman 1" xmlns="http://www.w3.org/2000/svg" viewBox="0 0 425 425"><defs><style>.cls-1{fill:#2a4173;}.cls-2{fill:#fff;}.cls-3{fill:#2b4271;}</style></defs><path class="cls-1" d="M212.5,419.71C97.69,419.71,4.29,326.31,4.29,211.5S97.69,3.29,212.5,3.29,420.71,96.69,420.71,211.5,327.31,419.71,212.5,419.71Zm0-402.63C105.3,17.08,18.08,104.3,18.08,211.5S105.3,405.92,212.5,405.92,406.92,318.71,406.92,211.5,319.7,17.08,212.5,17.08Z"/><circle class="cls-2" cx="219.71" cy="116.45" r="13.28"/><path class="cls-3" d="M305.8,192.63l-121,120.91L167.25,296l1.82-1.81H145.15a8.33,8.33,0,0,1-8.3-8.3V261.93L135,263.74a21.08,21.08,0,0,0-5.23,8.82l-11.92,40.56,40.54-11.93a24.54,24.54,0,0,0,8.82-5.24l17.59,17.59a45.5,45.5,0,0,1-19.4,11.51L103,343.42a11.73,11.73,0,0,1-12.32-3.58A11.43,11.43,0,0,1,87.56,328l18.36-62.4a45.7,45.7,0,0,1,11.52-19.4L238.37,125.21Zm36.83-83.8a33.21,33.21,0,0,1,0,47l-25.11,25.1-67.43-67.42,25.11-25.1a33.24,33.24,0,0,1,47,0Z"/></svg>