<svg id="katman_1" data-name="katman 1" xmlns="http://www.w3.org/2000/svg" viewBox="0 0 425 425"><defs><style>.cls-1{fill:#2a4173;}.cls-2{fill:#fff;}.cls-3{fill:#2b4271;}.cls-3,.cls-4{stroke:#2b4271;stroke-miterlimit:10;}.cls-4{fill:none;stroke-width:6px;}</style></defs><path class="cls-1" d="M212.5,419.71C97.69,419.71,4.29,326.31,4.29,211.5S97.69,3.29,212.5,3.29,420.71,96.69,420.71,211.5,327.31,419.71,212.5,419.71Zm0-402.63C105.3,17.08,18.08,104.3,18.08,211.5S105.3,405.92,212.5,405.92,406.92,318.71,406.92,211.5,319.7,17.08,212.5,17.08Z"/><circle class="cls-2" cx="219.71" cy="116.45" r="13.28"/><path class="cls-3" d="M110.13,311.44c-12-.09-22.06-.74-31.86-3.34-5.84-1.55-11.43-3.69-16.24-7.49-.46-.37-.9-.79-1.35-1.18a6.32,6.32,0,0,1-2.4-5.56c.4-7,.3-14,1.53-20.92,1-5.54,2.65-10.75,6.63-15a27.65,27.65,0,0,1,9.89-6.43,82.63,82.63,0,0,1,16.74-4.5,1.67,1.67,0,0,1,1.19.4,18.63,18.63,0,0,0,11.57,4.8A21.82,21.82,0,0,0,118.58,250c1.26-.7,2.34-1.69,3.54-2.49a1.87,1.87,0,0,1,1.2-.4,81.76,81.76,0,0,1,17.09,4.66c5.27,2.22,9.77,5.37,12.62,10.49a30.09,30.09,0,0,1,3.72,12.14c.61,7,.91,14,1.25,21a3.9,3.9,0,0,1-.89,2.39c-3,3.73-7.09,5.94-11.41,7.72-8,3.32-16.51,4.73-25.13,5.36C116.45,311.21,112.31,311.33,110.13,311.44Z"/><ellipse class="cls-3" cx="107.94" cy="218.28" rx="27.37" ry="29.72"/><path class="cls-3" d="M217,311.44c-12-.09-22.06-.74-31.86-3.34-5.84-1.55-11.43-3.69-16.24-7.49-.47-.37-.9-.79-1.35-1.18a6.32,6.32,0,0,1-2.4-5.56c.4-7,.3-14,1.53-20.92,1-5.54,2.65-10.75,6.63-15a27.61,27.61,0,0,1,9.88-6.43,82.89,82.89,0,0,1,16.75-4.5,1.67,1.67,0,0,1,1.19.4,18.63,18.63,0,0,0,11.57,4.8A21.82,21.82,0,0,0,225.43,250c1.26-.7,2.34-1.69,3.54-2.49a1.85,1.85,0,0,1,1.2-.4,81.76,81.76,0,0,1,17.09,4.66c5.27,2.22,9.77,5.37,12.62,10.49a30.09,30.09,0,0,1,3.72,12.14c.6,7,.9,14,1.24,21a3.88,3.88,0,0,1-.88,2.39c-3,3.73-7.09,5.94-11.41,7.72-8,3.32-16.51,4.73-25.13,5.36C223.3,311.21,219.16,311.33,217,311.44Z"/><ellipse class="cls-3" cx="214.79" cy="218.28" rx="27.37" ry="29.72"/><path class="cls-3" d="M325.29,311.44c-12-.09-22.06-.74-31.86-3.34-5.84-1.55-11.43-3.69-16.24-7.49-.46-.37-.9-.79-1.35-1.18a6.32,6.32,0,0,1-2.4-5.56c.4-7,.3-14,1.53-20.92,1-5.54,2.65-10.75,6.63-15a27.56,27.56,0,0,1,9.89-6.43,82.63,82.63,0,0,1,16.74-4.5,1.67,1.67,0,0,1,1.19.4,18.63,18.63,0,0,0,11.57,4.8A21.82,21.82,0,0,0,333.74,250c1.26-.7,2.34-1.69,3.54-2.49a1.87,1.87,0,0,1,1.2-.4,81.76,81.76,0,0,1,17.09,4.66c5.27,2.22,9.77,5.37,12.62,10.49a30.09,30.09,0,0,1,3.72,12.14c.61,7,.91,14,1.25,21a3.9,3.9,0,0,1-.89,2.39c-3,3.73-7.09,5.94-11.41,7.72-8,3.32-16.51,4.73-25.13,5.36C331.61,311.21,327.47,311.33,325.29,311.44Z"/><ellipse class="cls-3" cx="323.1" cy="218.28" rx="27.37" ry="29.72"/><polyline class="cls-4" points="107.25 171.43 107.25 142.35 332.16 142.35 332.16 172.17"/><circle class="cls-1" cx="228.38" cy="93.73" r="36.46"/><path class="cls-2" d="M239.7,82.76,224.33,98.13l-7.27-7.26a4,4,0,1,0-5.72,5.72l10.13,10.13a4,4,0,0,0,5.72,0l18.23-18.23a4,4,0,1,0-5.72-5.73Z"/></svg>