<svg id="katman_1" data-name="katman 1" xmlns="http://www.w3.org/2000/svg" viewBox="0 0 425 425"><defs><style>.cls-1{fill:#2a4173;}.cls-2{fill:#2b4271;}</style></defs><path class="cls-1" d="M212.5,419.71C97.69,419.71,4.29,326.31,4.29,211.5S97.69,3.29,212.5,3.29,420.71,96.69,420.71,211.5,327.31,419.71,212.5,419.71Zm0-402.63C105.3,17.08,18.08,104.3,18.08,211.5S105.3,405.92,212.5,405.92,406.92,318.71,406.92,211.5,319.7,17.08,212.5,17.08Z"/><path class="cls-2" d="M136,170.44a49.22,49.22,0,0,1,.16,16.47,46.78,46.78,0,0,1-5.22,14.93c-4.6,7-10.33,11.54-17.27,13.68v93.21c0,4.54-1,8.9-3.42,12.11a11.37,11.37,0,0,1-9.24,5c-3.08,0-6.3-1.79-8.68-5a20.73,20.73,0,0,1-4-12.11V215.52C81.92,213.81,75.9,209,71.57,202A42.8,42.8,0,0,1,66.33,187a48.91,48.91,0,0,1,.18-16.55l9.56-58.32a7.37,7.37,0,0,1,2-4.09,4.17,4.17,0,0,1,3.51-1.24,4.81,4.81,0,0,1,3.23,2.25,8.36,8.36,0,0,1,1.29,4.59v61.6h5.5L97,111.92a6.55,6.55,0,0,1,1.42-3.62,3.6,3.6,0,0,1,2.54-1.45,3.77,3.77,0,0,1,3.1,1.45,9.66,9.66,0,0,1,1.42,3.62l5.42,63.35h5.26v-61.6a12,12,0,0,1,1.27-4.57,6.11,6.11,0,0,1,3.48-2.27,4.46,4.46,0,0,1,3.52,1.26,7.49,7.49,0,0,1,2,4.11Z"/><path class="cls-2" d="M345.15,317c0,4.24.75-1.09-2,1.91s.79,4.68-3.09,4.68a14.08,14.08,0,0,1-10.37-4.68c-2.75-3-4.28-.37-4.28-4.61V247.5H309.55a22,22,0,0,1-9-2,24.09,24.09,0,0,1-7.62-5.6,34.7,34.7,0,0,1-5.39-8.35,38.23,38.23,0,0,1-1.43-9.84l0-45.5a82,82,0,0,1,12-41.38,69.06,69.06,0,0,1,30.89-27.17,10.42,10.42,0,0,1,5.6-.84,11.11,11.11,0,0,1,5.31,2.13,12.3,12.3,0,0,1,3.78,4.59,20.33,20.33,0,0,1,1.39,6Z"/><path class="cls-2" d="M148.52,132.16s65.17-47,128.73,10.15c0,0-8,27.78-4.27,39.53,0,0-47-76.92-117.52-17.63Z"/><path class="cls-2" d="M134.9,211.48l-11.22,6.15v56.08s23.24,37.66,71,43c0,0,70.51,10.69,104.16-57.69,0,0-15.75,0-24.57-18.16,0,0-23.77,66.51-95.61,41.4C178.7,282.26,131.43,263.83,134.9,211.48Z"/><circle class="cls-2" cx="206.68" cy="215.22" r="58.16"/><circle class="cls-2" cx="335.28" cy="317.01" r="9.87"/></svg>