<svg id="katman_1" data-name="katman 1" xmlns="http://www.w3.org/2000/svg" viewBox="0 0 425 425"><defs><style>.cls-1,.cls-2{fill:#2a4173;}.cls-2{stroke:#2a4173;stroke-miterlimit:10;}</style></defs><path class="cls-1" d="M212.5,419.71C97.69,419.71,4.29,326.31,4.29,211.5S97.69,3.29,212.5,3.29,420.71,96.69,420.71,211.5,327.31,419.71,212.5,419.71Zm0-402.63C105.3,17.08,18.08,104.3,18.08,211.5S105.3,405.92,212.5,405.92,406.92,318.71,406.92,211.5,319.7,17.08,212.5,17.08Z"/><path class="cls-2" d="M347.39,214.56A134.89,134.89,0,1,1,212.5,79.66,134.87,134.87,0,0,1,347.39,214.56Zm-177-46.37v92.74a12.67,12.67,0,0,0,19.23,10.8l75.88-46.37a12.66,12.66,0,0,0,0-21.61l-75.88-46.37c-3.9-2.84-8.8-2.47-12.75-.21a12.57,12.57,0,0,0-6.48,11Z"/></svg>