<svg id="katman_1" data-name="katman 1" xmlns="http://www.w3.org/2000/svg" viewBox="0 0 425 425"><defs><style>.cls-1,.cls-2{fill:#2a4173;}.cls-2{stroke:#2a4173;stroke-miterlimit:10;}</style></defs><path class="cls-1" d="M212.5,419.71C97.69,419.71,4.29,326.31,4.29,211.5S97.69,3.29,212.5,3.29,420.71,96.69,420.71,211.5,327.31,419.71,212.5,419.71Zm0-402.63C105.3,17.08,18.08,104.3,18.08,211.5S105.3,405.92,212.5,405.92,406.92,318.71,406.92,211.5,319.7,17.08,212.5,17.08Z"/><path class="cls-2" d="M243.34,250.59A8.06,8.06,0,0,0,241,256.3v31.19H272.2a8,8,0,0,0,5.68-2.36L356.45,206l-34-34ZM381.44,163l-16-16a12.69,12.69,0,0,0-18,0L333.8,160.68l34,34L381.43,181A12.67,12.67,0,0,0,381.44,163ZM225,79.19v64.09h64.1Zm0,224.33a21.6,21.6,0,0,1-19-12,5.59,5.59,0,0,0-10.07-.19l-3.88,7.7a8.48,8.48,0,0,1-7.14,4.45h-.55a7.94,7.94,0,0,1-7-5.51l-8.46-25.24-5.31,16a21.64,21.64,0,0,1-20.5,14.78h-6.24a8,8,0,0,1,0-16H143a5.58,5.58,0,0,0,5.31-3.82l9.14-27.35a12,12,0,0,1,22.78,0l6.95,20.84c9.89-8.13,27.11-4.88,33.05,7.07a5.91,5.91,0,0,0,4.69,3.18v-34.5a16.06,16.06,0,0,1,4.73-11.37l59.37-59V159.31H225a16,16,0,0,1-16-16V79.19H120.81a24,24,0,0,0-24,24V311.53a24,24,0,0,0,24,24H265a24,24,0,0,0,24-24v-8Z"/></svg>