<svg id="katman_1" data-name="katman 1" xmlns="http://www.w3.org/2000/svg" viewBox="0 0 425 425"><defs><style>.cls-1,.cls-2{fill:#2a4173;}.cls-2{stroke:#2a4173;stroke-miterlimit:10;}</style></defs><path class="cls-1" d="M212.5,419.71C97.69,419.71,4.29,326.31,4.29,211.5S97.69,3.29,212.5,3.29,420.71,96.69,420.71,211.5,327.31,419.71,212.5,419.71Zm0-402.63C105.3,17.08,18.08,104.3,18.08,211.5S105.3,405.92,212.5,405.92,406.92,318.71,406.92,211.5,319.7,17.08,212.5,17.08Z"/><path class="cls-2" d="M203.84,379.25c-10.76-4.12-21.49-8.3-32.27-12.36q-31.75-12-63.56-23.81c-6.28-2.36-8.19-5.11-8.19-11.75,0-5.88,0-11.77,0-17.65a7.74,7.74,0,0,1,.16-.94c2.26-.16,4.63-.14,6.93-.5,13.78-2.16,24-11.91,25.21-25.7a189.08,189.08,0,0,0,0-33c-1.37-15.34-13.84-25.8-29.36-26.07H100c0-8-.46-15.84.15-23.6.49-6.25,7.14-9.53,13.45-7.21,14,5.16,27.92,10.43,41.88,15.66,15.29,5.72,30.55,11.51,45.87,17.12,2.42.88,3.26,2,3.25,4.63q-.15,72.57-.07,145.15Z"/><path class="cls-2" d="M224.12,379.25q0-72.57-.06-145.15c0-2.39.52-3.63,2.93-4.52q43.45-16.12,86.83-32.46c8.87-3.32,15,.91,15,10.37,0,6.52,0,13,0,19.65A95.56,95.56,0,0,0,319,228.3c-12.19,2.69-21.61,12.57-22.58,25.28a198.34,198.34,0,0,0,0,33c1.39,15.19,13.88,25.69,29.13,26,1,0,1.91,0,3.1,0,0,7.55.29,14.83-.11,22.08-.23,4.3-3.39,6.79-7.38,8.27-15.5,5.75-31,11.59-46.44,17.4q-24.13,9.06-48.26,18.14c-.6.22-1.15.55-1.73.83Z"/><path class="cls-2" d="M214.2,155.54a55.6,55.6,0,1,1,55.71-55.33A55.63,55.63,0,0,1,214.2,155.54Z"/><path class="cls-2" d="M138.05,184.71a110.3,110.3,0,0,1,34.12-21,4.47,4.47,0,0,1,3.26.6q38.82,22,77.65.1a5.16,5.16,0,0,1,3.85-.51,108.94,108.94,0,0,1,32.69,20,6.13,6.13,0,0,1,.75,1.06l-18.05,6.77c-18.32,6.88-36.63,13.81-55,20.58a8.72,8.72,0,0,1-5.55.11c-23.66-8.74-47.27-17.63-70.89-26.49C140.07,185.61,139.29,185.24,138.05,184.71Z"/><path class="cls-2" d="M112.89,270c0,4.25.07,8.5,0,12.75-.11,6-4.18,10.07-10.13,10.09a57.38,57.38,0,0,1-11.06-.62,22.63,22.63,0,0,1-18-24.22,23,23,0,0,1,21.88-20.87q3.75-.14,7.52,0a9.77,9.77,0,0,1,9.76,9.81C113,261.31,112.89,265.67,112.89,270Z"/><path class="cls-2" d="M315.71,270c0-4.24-.06-8.49,0-12.73.11-5.92,4.19-10.05,10.12-10.06a57.92,57.92,0,0,1,11,.6,22.63,22.63,0,0,1,18,24.11,23,23,0,0,1-21.69,21c-2.38.11-4.78.08-7.17,0-6.15-.1-10.2-4.13-10.33-10.23V270Z"/></svg>