<svg id="katman_1" data-name="katman 1" xmlns="http://www.w3.org/2000/svg" viewBox="0 0 425 425"><defs><style>.cls-1{fill:#2a4173;}.cls-2{fill:#2b4271;stroke:#2b4271;stroke-miterlimit:10;}</style></defs><path class="cls-1" d="M212.5,419.71C97.69,419.71,4.29,326.31,4.29,211.5S97.69,3.29,212.5,3.29,420.71,96.69,420.71,211.5,327.31,419.71,212.5,419.71Zm0-402.63C105.3,17.08,18.08,104.3,18.08,211.5S105.3,405.92,212.5,405.92,406.92,318.71,406.92,211.5,319.7,17.08,212.5,17.08Z"/><path class="cls-2" d="M100,106.93l3.41.81V139a12.34,12.34,0,0,0-.47,21.38l-8.35,33.28c-.94,3.68,1.14,7.48,4.08,7.48H121c2.94,0,5-3.81,4.07-7l-8.35-33.73a12.84,12.84,0,0,0,5.94-10.59A12.6,12.6,0,0,0,116.28,139V110.88l27.8,6.68v32.27a68.18,68.18,0,1,0,136.36,0l.48-32.28,44-10.62c9.76-2.34,9.76-14.43,0-16.84L223.11,65.5a47.33,47.33,0,0,0-21.18,0L100,90.09C90.35,92.44,90.35,104.6,100,106.93ZM267.67,231.51,212.5,286.68l-55.17-55.17a92.38,92.38,0,0,0-64.57,87.94A18.53,18.53,0,0,0,111.29,338H313.73a18.52,18.52,0,0,0,18.51-18.55C332.24,278.13,305,243.43,267.67,231.51Z"/></svg>