<svg id="katman_1" data-name="katman 1" xmlns="http://www.w3.org/2000/svg" viewBox="0 0 425 425"><defs><style>.cls-1{fill:#2a4173;}.cls-2{fill:#2b4271;}.cls-2,.cls-3{stroke:#2b4271;stroke-miterlimit:10;}.cls-3{fill:none;stroke-width:8px;}</style></defs><path class="cls-1" d="M212.5,419.71C97.69,419.71,4.29,326.31,4.29,211.5S97.69,3.29,212.5,3.29,420.71,96.69,420.71,211.5,327.31,419.71,212.5,419.71Zm0-402.63C105.3,17.08,18.08,104.3,18.08,211.5S105.3,405.92,212.5,405.92,406.92,318.71,406.92,211.5,319.7,17.08,212.5,17.08Z"/><path class="cls-2" d="M208.48,162.73c-11.18-.09-20.55-.69-29.68-3.11-5.44-1.45-10.64-3.44-15.12-7-.43-.35-.84-.74-1.26-1.1a5.89,5.89,0,0,1-2.24-5.18c.38-6.52.28-13,1.43-19.49.93-5.16,2.47-10,6.17-14a25.74,25.74,0,0,1,9.22-6,77.05,77.05,0,0,1,15.59-4.19,1.56,1.56,0,0,1,1.11.37,17.35,17.35,0,0,0,10.78,4.47,20.24,20.24,0,0,0,11.87-2.07c1.18-.65,2.18-1.57,3.3-2.31a1.75,1.75,0,0,1,1.12-.38,76.26,76.26,0,0,1,15.92,4.34c4.91,2.07,9.1,5,11.76,9.78a28.13,28.13,0,0,1,3.46,11.3c.57,6.52.85,13.05,1.16,19.57a3.61,3.61,0,0,1-.82,2.22c-2.8,3.48-6.61,5.54-10.63,7.19-7.46,3.1-15.38,4.41-23.41,5C214.37,162.51,210.51,162.63,208.48,162.73Z"/><ellipse class="cls-2" cx="206.44" cy="75.95" rx="25.5" ry="27.69"/><path class="cls-2" d="M208.48,366.36c-11.18-.09-20.55-.69-29.68-3.11-5.44-1.45-10.64-3.44-15.12-7-.43-.34-.84-.74-1.26-1.1a5.89,5.89,0,0,1-2.24-5.18c.38-6.52.28-13,1.43-19.49.93-5.16,2.47-10,6.17-14a25.74,25.74,0,0,1,9.22-6,77.05,77.05,0,0,1,15.59-4.19,1.56,1.56,0,0,1,1.11.37,17.35,17.35,0,0,0,10.78,4.47,20.31,20.31,0,0,0,11.87-2.06c1.18-.66,2.18-1.58,3.3-2.32a1.75,1.75,0,0,1,1.12-.38,76.26,76.26,0,0,1,15.92,4.34c4.91,2.07,9.1,5,11.76,9.78a28.13,28.13,0,0,1,3.46,11.3c.57,6.53.85,13,1.16,19.57a3.61,3.61,0,0,1-.82,2.22c-2.8,3.48-6.61,5.54-10.63,7.19-7.46,3.1-15.38,4.41-23.41,5C214.37,366.14,210.51,366.26,208.48,366.36Z"/><ellipse class="cls-2" cx="206.44" cy="279.58" rx="25.5" ry="27.69"/><path class="cls-2" d="M88.61,276.31c-11.18-.08-20.55-.68-29.68-3.11-5.44-1.44-10.65-3.43-15.13-7-.42-.35-.83-.74-1.25-1.1A5.91,5.91,0,0,1,40.31,260c.37-6.52.28-13,1.43-19.49.93-5.16,2.46-10,6.17-14a25.79,25.79,0,0,1,9.21-6,76.67,76.67,0,0,1,15.6-4.19,1.52,1.52,0,0,1,1.11.37,17.33,17.33,0,0,0,10.77,4.47,20.27,20.27,0,0,0,11.88-2.07c1.18-.65,2.18-1.57,3.3-2.32a1.74,1.74,0,0,1,1.12-.37,76.43,76.43,0,0,1,15.92,4.34c4.91,2.07,9.1,5,11.75,9.77A28,28,0,0,1,132,241.81c.57,6.52.85,13,1.16,19.56a3.63,3.63,0,0,1-.83,2.23c-2.79,3.47-6.6,5.53-10.63,7.19-7.45,3.09-15.37,4.41-23.4,5C94.5,276.1,90.64,276.21,88.61,276.31Z"/><ellipse class="cls-2" cx="86.57" cy="189.53" rx="25.5" ry="27.69"/><path class="cls-2" d="M335.41,276.31c-11.18-.08-20.55-.68-29.68-3.11-5.44-1.44-10.65-3.43-15.13-7-.43-.35-.84-.74-1.26-1.1a5.88,5.88,0,0,1-2.23-5.18c.37-6.52.28-13,1.42-19.49.93-5.16,2.47-10,6.18-14a25.61,25.61,0,0,1,9.21-6,76.58,76.58,0,0,1,15.59-4.19,1.49,1.49,0,0,1,1.11.37,17.35,17.35,0,0,0,10.78,4.47,20.27,20.27,0,0,0,11.88-2.07c1.17-.65,2.18-1.57,3.3-2.32a1.71,1.71,0,0,1,1.11-.37,76.26,76.26,0,0,1,15.92,4.34c4.91,2.07,9.1,5,11.76,9.77a27.87,27.87,0,0,1,3.46,11.31c.57,6.52.85,13,1.17,19.56a3.63,3.63,0,0,1-.83,2.23c-2.79,3.47-6.6,5.53-10.63,7.19-7.45,3.09-15.38,4.41-23.41,5C341.29,276.1,337.44,276.21,335.41,276.31Z"/><ellipse class="cls-2" cx="333.37" cy="189.53" rx="25.5" ry="27.69"/><line class="cls-3" x1="147.97" y1="124.16" x2="112.07" y2="158.16"/><line class="cls-3" x1="304.31" y1="287.09" x2="268.4" y2="321.09"/><line class="cls-3" x1="268.4" y1="124.16" x2="304.31" y2="161.85"/><line class="cls-3" x1="115.25" y1="288.42" x2="151.16" y2="326.1"/></svg>