<svg id="katman_1" data-name="katman 1" xmlns="http://www.w3.org/2000/svg" viewBox="0 0 425 425"><defs><style>.cls-1{fill:#2a4173;}.cls-2{fill:#2b4271;}.cls-2,.cls-3,.cls-4{stroke:#2b4271;stroke-miterlimit:10;}.cls-3,.cls-4{fill:none;}.cls-3{stroke-width:6px;}.cls-4{stroke-width:4px;}</style></defs><path class="cls-1" d="M212.5,419.71C97.69,419.71,4.29,326.31,4.29,211.5S97.69,3.29,212.5,3.29,420.71,96.69,420.71,211.5,327.31,419.71,212.5,419.71Zm0-402.63C105.3,17.08,18.08,104.3,18.08,211.5S105.3,405.92,212.5,405.92,406.92,318.71,406.92,211.5,319.7,17.08,212.5,17.08Z"/><path class="cls-2" d="M110.92,322.18c-12-.09-22.06-.74-31.86-3.34-5.84-1.55-11.43-3.69-16.24-7.49-.46-.37-.9-.79-1.35-1.18a6.34,6.34,0,0,1-2.4-5.56c.4-7,.3-14,1.53-20.92,1-5.54,2.65-10.75,6.63-15a27.73,27.73,0,0,1,9.89-6.43,83,83,0,0,1,16.74-4.5,1.7,1.7,0,0,1,1.19.4,18.6,18.6,0,0,0,11.57,4.8,21.8,21.8,0,0,0,12.75-2.22c1.26-.7,2.34-1.69,3.54-2.49a1.87,1.87,0,0,1,1.2-.4,81.59,81.59,0,0,1,17.09,4.66c5.27,2.22,9.77,5.37,12.62,10.49a30.09,30.09,0,0,1,3.72,12.14c.61,7,.91,14,1.25,21a3.85,3.85,0,0,1-.89,2.39c-3,3.73-7.09,5.94-11.41,7.72-8,3.32-16.51,4.73-25.13,5.36C117.24,322,113.1,322.07,110.92,322.18Z"/><ellipse class="cls-2" cx="108.73" cy="229.02" rx="27.37" ry="29.72"/><path class="cls-2" d="M214.79,322.18c-12-.09-22.06-.74-31.86-3.34-5.84-1.55-11.43-3.69-16.24-7.49-.47-.37-.9-.79-1.35-1.18a6.34,6.34,0,0,1-2.4-5.56c.4-7,.3-14,1.53-20.92,1-5.54,2.65-10.75,6.63-15a27.78,27.78,0,0,1,9.88-6.43,83.07,83.07,0,0,1,16.75-4.5,1.7,1.7,0,0,1,1.19.4,18.6,18.6,0,0,0,11.57,4.8,21.82,21.82,0,0,0,12.73-2.22c1.26-.7,2.34-1.69,3.54-2.49a1.87,1.87,0,0,1,1.2-.4,81.59,81.59,0,0,1,17.09,4.66c5.27,2.22,9.77,5.37,12.62,10.49a30.09,30.09,0,0,1,3.72,12.14c.6,7,.9,14,1.24,21a3.8,3.8,0,0,1-.88,2.39c-3,3.73-7.09,5.94-11.41,7.72-8,3.32-16.51,4.73-25.13,5.36C221.09,322,217,322.07,214.79,322.18Z"/><ellipse class="cls-2" cx="212.58" cy="229.02" rx="27.37" ry="29.72"/><path class="cls-2" d="M318.08,322.18c-12-.09-22.06-.74-31.86-3.34-5.84-1.55-11.43-3.69-16.24-7.49-.46-.37-.9-.79-1.35-1.18a6.34,6.34,0,0,1-2.4-5.56c.4-7,.3-14,1.53-20.92,1-5.54,2.65-10.75,6.63-15a27.73,27.73,0,0,1,9.89-6.43,83,83,0,0,1,16.74-4.5,1.7,1.7,0,0,1,1.19.4,18.6,18.6,0,0,0,11.57,4.8,21.8,21.8,0,0,0,12.75-2.22c1.26-.7,2.34-1.69,3.54-2.49a1.87,1.87,0,0,1,1.2-.4,81.59,81.59,0,0,1,17.09,4.66c5.27,2.22,9.77,5.37,12.62,10.49a30.09,30.09,0,0,1,3.72,12.14c.61,7,.91,14,1.25,21a3.85,3.85,0,0,1-.89,2.39c-3,3.73-7.09,5.94-11.41,7.72-8,3.32-16.51,4.73-25.13,5.36C324.4,322,320.26,322.07,318.08,322.18Z"/><ellipse class="cls-2" cx="315.89" cy="229.02" rx="27.37" ry="29.72"/><polyline class="cls-3" points="105.23 204.49 105.23 100.82 319.94 100.82 319.94 204.49"/><line class="cls-4" x1="234.8" y1="119.87" x2="297.95" y2="119.87"/><line class="cls-4" x1="234.8" y1="157.91" x2="297.95" y2="157.91"/><line class="cls-4" x1="223.56" y1="175.61" x2="297.95" y2="175.61"/><line class="cls-4" x1="198.96" y1="139.66" x2="297.95" y2="139.66"/><circle class="cls-4" cx="144.68" cy="164.68" r="21.02"/><polyline class="cls-4" points="142.68 157.9 142.68 168.38 154.57 168.38"/></svg>